<?xml version="1.0" encoding="utf-8"?>
<!-- Generator: Adobe Illustrator 24.2.3, SVG Export Plug-In . SVG Version: 6.00 Build 0)  -->
<svg version="1.1" id="Layer_1" xmlns="http://www.w3.org/2000/svg" xmlns:xlink="http://www.w3.org/1999/xlink" x="0px" y="0px"
	 viewBox="0 0 504.6 42.7" style="enable-background:new 0 0 504.6 42.7;" xml:space="preserve">
<style type="text/css">
	.st0{fill:#AC8B51;}
	.st1{fill:#A50A42;}
	.st2{fill:none;stroke:#DF352D;stroke-width:0.12;stroke-miterlimit:10;}
	.st3{fill:#E34F63;}
	.st4{fill:#27ACA4;}
	.st5{fill:#5C77B7;}
	.st6{fill:#63B00A;}
	.st7{fill:#1F95DA;}
	.st8{fill:#8C4193;}
	.st9{fill:#F4C72B;}
	.st10{fill:#EB8800;}
	.st11{fill:#727171;}
	.st12{fill:#CD223A;}
	.st13{fill:#9C254C;}
	.st14{fill:url(#SVGID_1_);}
	.st15{fill:url(#SVGID_2_);}
	.st16{enable-background:new    ;}
</style>
<path class="st0" d="M181.4,26.2c-0.2-0.1-0.4-0.2-0.6-0.3l0.2-0.5c0.2,0.1,0.4,0.2,0.6,0.3c0.2,0.1,0.4,0.1,0.7,0.1
	c0.2,0,0.4,0,0.6-0.1c0.1-0.1,0.2-0.2,0.2-0.4c0-0.1,0-0.2-0.1-0.3c-0.1-0.1-0.2-0.1-0.3-0.2l-0.5-0.1c-0.2-0.1-0.5-0.1-0.7-0.2
	s-0.3-0.2-0.5-0.3c-0.1-0.2-0.2-0.4-0.2-0.6s0.1-0.4,0.2-0.6c0.1-0.2,0.3-0.3,0.5-0.4c0.3-0.1,0.6-0.2,0.8-0.1c0.2,0,0.5,0,0.7,0.1
	s0.4,0.1,0.6,0.2l-0.2,0.5c-0.2-0.1-0.3-0.2-0.5-0.2s-0.3,0-0.5,0s-0.4,0-0.6,0.1c-0.1,0.1-0.2,0.2-0.2,0.4c0,0.1,0,0.2,0.1,0.3
	c0.1,0.1,0.2,0.1,0.3,0.2c0.1,0,0.3,0.1,0.5,0.1s0.5,0.1,0.7,0.2s0.3,0.2,0.5,0.3c0.1,0.2,0.2,0.4,0.2,0.6s-0.1,0.4-0.2,0.6
	c-0.1,0.2-0.3,0.3-0.5,0.4c-0.3,0.1-0.6,0.2-0.8,0.1C182,26.3,181.7,26.3,181.4,26.2z"/>
<path class="st0" d="M185,22.4h0.7v3.8H185V22.4z"/>
<path class="st0" d="M187.6,26.2c-0.2-0.1-0.4-0.2-0.6-0.3l0.2-0.5c0.4,0.3,0.8,0.4,1.2,0.4c0.2,0,0.4,0,0.6-0.1
	c0.1-0.1,0.2-0.2,0.2-0.4c0-0.1,0-0.2-0.1-0.3c-0.1-0.1-0.2-0.1-0.3-0.2l-0.5-0.1c-0.2-0.1-0.5-0.1-0.7-0.2s-0.3-0.2-0.5-0.3
	c-0.1-0.2-0.2-0.4-0.2-0.6s0.1-0.4,0.2-0.6c0.1-0.2,0.3-0.3,0.5-0.4c0.3-0.1,0.6-0.2,0.8-0.1c0.2,0,0.5,0,0.7,0.1s0.4,0.1,0.6,0.2
	l-0.2,0.5c-0.2-0.1-0.3-0.2-0.5-0.2c-0.2-0.1-0.3-0.1-0.5-0.1s-0.4,0-0.6,0.1c-0.1,0.1-0.2,0.2-0.2,0.4c0,0.1,0,0.2,0.1,0.3
	c0.1,0.1,0.2,0.1,0.3,0.2l0.5,0.1c0.2,0,0.5,0.1,0.7,0.2s0.3,0.2,0.5,0.3c0.1,0.2,0.2,0.4,0.2,0.6s-0.1,0.4-0.2,0.6
	c-0.1,0.2-0.3,0.3-0.5,0.4c-0.3,0.1-0.6,0.2-0.8,0.1C188.2,26.3,187.9,26.2,187.6,26.2z"/>
<path class="st0" d="M192,23h-1.2v-0.6h3.2V23h-1.2v3.2H192V23z"/>
<path class="st0" d="M197.8,25.6v0.6H195v-3.8h2.8V23h-2.1v1h1.8v0.6h-1.8v1H197.8z"/>
<path class="st0" d="M202.6,26.2v-2.5l-1.2,2.1h-0.3l-1.2-2v2.5h-0.7v-3.8h0.6l1.5,2.5l1.5-2.5h0.6v3.8L202.6,26.2z"/>
<path class="st0" d="M207.3,25.3h-1.9l-0.4,0.9h-0.7l1.7-3.8h0.7l1.7,3.8h-0.7L207.3,25.3z M207.1,24.8l-0.7-1.7l-0.7,1.7H207.1z"/>
<path class="st0" d="M211.5,22.4h1.7c0.4,0,0.7,0.1,1.1,0.2c0.3,0.1,0.6,0.4,0.7,0.7c0.4,0.6,0.4,1.4,0,2c-0.2,0.3-0.4,0.5-0.7,0.7
	s-0.7,0.2-1.1,0.2h-1.7V22.4z M213.1,25.6c0.3,0,0.5,0,0.7-0.2c0.2-0.1,0.4-0.3,0.5-0.5c0.2-0.4,0.2-0.9,0-1.4
	c-0.1-0.2-0.3-0.4-0.5-0.5s-0.5-0.2-0.7-0.2h-0.9v2.6L213.1,25.6z"/>
<path class="st0" d="M219.3,25.6v0.6h-2.8v-3.8h2.8V23h-2.1v1h1.8v0.6h-1.8v1H219.3z"/>
<path class="st0" d="M223,26.2c-0.2-0.1-0.5-0.2-0.6-0.3l0.2-0.5c0.2,0.1,0.4,0.2,0.6,0.3c0.2,0.1,0.4,0.1,0.7,0.1
	c0.2,0,0.4,0,0.6-0.1c0.1-0.1,0.2-0.2,0.2-0.4c0-0.1,0-0.2-0.1-0.3c-0.1-0.1-0.2-0.1-0.3-0.2l-0.5-0.1c-0.2-0.1-0.5-0.1-0.7-0.2
	s-0.3-0.2-0.5-0.3c-0.1-0.2-0.2-0.4-0.2-0.6s0.1-0.4,0.2-0.6c0.1-0.2,0.3-0.3,0.5-0.4c0.3-0.1,0.6-0.2,0.8-0.1c0.2,0,0.5,0,0.7,0.1
	s0.4,0.1,0.6,0.2l-0.2,0.5c-0.2-0.1-0.3-0.2-0.5-0.2c-0.2-0.1-0.4-0.1-0.5-0.1c-0.2,0-0.4,0-0.6,0.1c-0.1,0.1-0.2,0.2-0.2,0.4
	c0,0.1,0,0.2,0.1,0.3c0.1,0.1,0.2,0.1,0.3,0.2c0.1,0,0.3,0.1,0.5,0.1s0.5,0.1,0.7,0.2s0.3,0.2,0.5,0.3c0.1,0.2,0.2,0.4,0.2,0.6
	s-0.1,0.4-0.2,0.6c-0.1,0.2-0.3,0.3-0.5,0.4c-0.3,0.1-0.6,0.2-0.9,0.1C223.6,26.3,223.3,26.2,223,26.2z"/>
<path class="st0" d="M229.5,25.6v0.6h-2.8v-3.8h2.8V23h-2v1h1.8v0.6h-1.8v1H229.5z"/>
<path class="st0" d="M233.3,26.2l-0.8-1.1h-1v1.1h-0.7v-3.8h1.6c0.3,0,0.6,0.1,0.9,0.2c0.5,0.2,0.8,0.7,0.8,1.2
	c0,0.3-0.1,0.5-0.2,0.7c-0.1,0.2-0.4,0.4-0.6,0.5l0.9,1.2C234.2,26.2,233.3,26.2,233.3,26.2z M233,23.2c-0.2-0.1-0.5-0.2-0.7-0.2
	h-0.8v1.5h0.8c0.2,0,0.5-0.1,0.7-0.2C233.3,24,233.3,23.6,233,23.2L233,23.2z"/>
<path class="st0" d="M238.7,22.4l-1.6,3.8h-0.7l-1.7-3.8h0.8l1.3,2.9l1.3-2.9H238.7z"/>
<path class="st0" d="M239.7,22.4h0.7v3.8h-0.7V22.4z"/>
<path class="st0" d="M242,22.4h1.6c0.4,0,0.7,0.1,1.1,0.2c0.3,0.1,0.6,0.4,0.7,0.7c0.4,0.6,0.4,1.4,0,2c-0.2,0.3-0.4,0.5-0.7,0.7
	s-0.7,0.2-1.1,0.2H242V22.4z M243.6,25.6c0.3,0,0.5,0,0.7-0.2c0.2-0.1,0.4-0.3,0.5-0.5c0.2-0.4,0.2-0.9,0-1.4
	c-0.1-0.2-0.3-0.4-0.5-0.5s-0.5-0.2-0.7-0.2h-0.9v2.6L243.6,25.6z"/>
<path class="st0" d="M247.7,26c-0.6-0.3-1-1-1-1.7c0-0.4,0.1-0.7,0.3-1s0.4-0.5,0.7-0.7c0.7-0.3,1.4-0.3,2.1,0
	c0.3,0.2,0.6,0.4,0.7,0.7c0.2,0.3,0.3,0.6,0.3,1s-0.1,0.7-0.3,1s-0.4,0.5-0.7,0.7C249.1,26.3,248.3,26.3,247.7,26L247.7,26z
	 M249.4,25.5c0.2-0.1,0.4-0.3,0.5-0.5c0.2-0.4,0.2-0.9,0-1.4c-0.1-0.2-0.3-0.4-0.5-0.5s-0.4-0.2-0.7-0.2c-0.2,0-0.5,0.1-0.7,0.2
	s-0.4,0.3-0.5,0.5c-0.2,0.4-0.2,0.9,0,1.4c0.1,0.2,0.3,0.4,0.5,0.5s0.4,0.2,0.7,0.2C249,25.6,249.2,25.6,249.4,25.5L249.4,25.5z"/>
<path class="st0" d="M254.5,26.2l-0.8-1.1h-1v1.1H252v-3.8h1.6c0.3,0,0.6,0.1,0.9,0.2c0.2,0.1,0.4,0.3,0.6,0.5
	c0.1,0.2,0.2,0.5,0.2,0.7c0,0.3-0.1,0.5-0.2,0.7c-0.1,0.2-0.4,0.4-0.6,0.5l0.9,1.2C255.4,26.2,254.5,26.2,254.5,26.2z M254.3,23.2
	c-0.2-0.1-0.5-0.2-0.7-0.2h-0.8v1.5h0.8c0.2,0,0.5-0.1,0.7-0.2C254.6,24,254.6,23.6,254.3,23.2L254.3,23.2z"/>
<path class="st0" d="M259.4,25.6v0.6h-2.8v-3.8h2.8V23h-2.1v1h1.8v0.6h-1.8v1H259.4z"/>
<path class="st0" d="M261,26.2c-0.2-0.1-0.4-0.2-0.6-0.3l0.2-0.5c0.2,0.1,0.4,0.2,0.6,0.3c0.2,0.1,0.4,0.1,0.7,0.1
	c0.2,0,0.4,0,0.6-0.1c0.1-0.1,0.2-0.2,0.2-0.4c0-0.1,0-0.2-0.1-0.3c-0.1-0.1-0.2-0.1-0.3-0.2l-0.5-0.1c-0.2-0.1-0.5-0.1-0.7-0.2
	s-0.3-0.2-0.5-0.3c-0.1-0.2-0.2-0.4-0.2-0.6s0.1-0.4,0.2-0.6s0.3-0.3,0.5-0.4c0.3-0.1,0.6-0.2,0.8-0.1c0.2,0,0.5,0,0.7,0.1
	s0.4,0.1,0.6,0.2l-0.2,0.5c-0.2-0.1-0.3-0.2-0.5-0.2c-0.2-0.1-0.3-0.1-0.5-0.1s-0.4,0-0.6,0.1c-0.1,0.1-0.2,0.2-0.2,0.4
	c0,0.1,0,0.2,0.1,0.3c0.1,0.1,0.2,0.1,0.3,0.2c0.1,0,0.3,0.1,0.5,0.1s0.5,0.1,0.7,0.2s0.3,0.2,0.5,0.3c0.1,0.2,0.2,0.4,0.2,0.6
	s-0.1,0.4-0.2,0.6s-0.3,0.3-0.5,0.4c-0.3,0.1-0.6,0.2-0.8,0.1C261.6,26.3,261.3,26.2,261,26.2z"/>
<path class="st0" d="M183.5,29.1c0.2,0.1,0.4,0.3,0.6,0.5c0.3,0.4,0.3,1,0,1.4c-0.1,0.2-0.3,0.4-0.6,0.5s-0.6,0.2-0.9,0.2h-0.9v1.1
	H181V29h1.6C182.9,28.9,183.2,29,183.5,29.1z M183.3,30.8c0.2-0.1,0.3-0.3,0.2-0.5c0-0.2-0.1-0.4-0.2-0.6c-0.2-0.1-0.5-0.2-0.7-0.2
	h-0.8V31h0.8C182.9,31,183.1,31,183.3,30.8z"/>
<path class="st0" d="M185.9,32.3c-0.3-0.3-0.5-0.8-0.4-1.3v-2.1h0.7V31c0,0.7,0.3,1.1,1,1.1s1-0.4,1-1.1v-2.1h0.7V31
	c0,0.5-0.1,0.9-0.4,1.3C187.7,32.9,186.7,32.9,185.9,32.3L185.9,32.3z M187.4,27.9h0.8l-0.9,0.7h-0.6L187.4,27.9z"/>
<path class="st0" d="M193.5,31.1c0.1,0.2,0.2,0.4,0.2,0.6c0,0.3-0.1,0.6-0.4,0.8c-0.3,0.2-0.7,0.3-1.1,0.3h-1.9V29h1.8
	c0.4,0,0.7,0.1,1,0.3c0.2,0.2,0.4,0.4,0.4,0.7c0,0.2,0,0.3-0.1,0.5c-0.1,0.1-0.2,0.3-0.4,0.3C193.2,30.8,193.4,30.9,193.5,31.1z
	 M191,29.5v1h1c0.2,0,0.4,0,0.6-0.1c0.1-0.1,0.2-0.2,0.2-0.4c0-0.2-0.1-0.3-0.2-0.4c-0.2-0.1-0.4-0.1-0.6-0.1H191z M193,31.6
	c0-0.4-0.3-0.5-0.8-0.5H191v1.1h1.1C192.7,32.2,193,32,193,31.6L193,31.6z"/>
<path class="st0" d="M195,28.9h0.7v3.2h2v0.6H195V28.9z"/>
<path class="st0" d="M198.7,28.9h0.7v3.8h-0.7V28.9z"/>
<path class="st0" d="M201.7,32.5c-0.3-0.2-0.6-0.4-0.7-0.7c-0.2-0.3-0.3-0.6-0.3-1s0.1-0.7,0.3-1s0.4-0.5,0.7-0.7
	c0.6-0.3,1.3-0.3,1.9-0.1c0.2,0.1,0.5,0.3,0.6,0.5l-0.5,0.4c-0.3-0.3-0.6-0.5-1-0.5c-0.2,0-0.5,0.1-0.7,0.2s-0.4,0.3-0.5,0.5
	c-0.2,0.4-0.2,0.9,0,1.4c0.1,0.2,0.3,0.4,0.5,0.5c0.2,0.1,0.5,0.2,0.7,0.2c0.4,0,0.7-0.2,1-0.5l0.5,0.4c-0.2,0.2-0.4,0.4-0.7,0.5
	C203,32.8,202.3,32.8,201.7,32.5L201.7,32.5z"/>
<path class="st0" d="M230.4,32.5c-0.3-0.2-0.6-0.4-0.7-0.7c-0.2-0.3-0.3-0.6-0.3-1s0.1-0.7,0.3-1s0.4-0.5,0.7-0.7
	c0.6-0.3,1.3-0.3,1.9-0.1c0.2,0.1,0.5,0.3,0.6,0.5l-0.5,0.4c-0.3-0.3-0.6-0.5-1-0.5c-0.2,0-0.5,0.1-0.7,0.2s-0.4,0.3-0.5,0.5
	c-0.2,0.4-0.2,0.9,0,1.4c0.1,0.2,0.3,0.4,0.5,0.5c0.2,0.1,0.5,0.2,0.7,0.2c0.4,0,0.7-0.2,1-0.5l0.5,0.4c-0.2,0.2-0.4,0.4-0.7,0.5
	C231.7,32.8,231,32.8,230.4,32.5L230.4,32.5z"/>
<path class="st0" d="M206.1,32.5c-0.3-0.2-0.6-0.4-0.7-0.7c-0.2-0.3-0.3-0.6-0.3-1s0.1-0.7,0.3-1s0.4-0.5,0.7-0.7
	c0.7-0.3,1.4-0.3,2.1,0c0.3,0.2,0.6,0.4,0.7,0.7c0.2,0.3,0.3,0.6,0.3,1s-0.1,0.7-0.3,1s-0.4,0.5-0.7,0.7
	C207.6,32.8,206.8,32.8,206.1,32.5L206.1,32.5z M207.9,32c0.2-0.1,0.4-0.3,0.5-0.5s0.2-0.4,0.2-0.7c0-0.2-0.1-0.5-0.2-0.7
	c-0.1-0.2-0.3-0.4-0.5-0.5c-0.4-0.2-0.9-0.2-1.4,0c-0.2,0.1-0.4,0.3-0.5,0.5s-0.2,0.4-0.2,0.7c0,0.2,0.1,0.5,0.2,0.7
	c0.1,0.2,0.3,0.4,0.5,0.5C206.9,32.2,207.4,32.2,207.9,32z"/>
<path class="st0" d="M210.8,32.6c-0.2-0.1-0.4-0.2-0.6-0.3l0.2-0.5c0.2,0.1,0.4,0.2,0.6,0.3c0.2,0.1,0.4,0.1,0.7,0.1
	c0.2,0,0.4,0,0.6-0.1c0.1-0.1,0.2-0.2,0.2-0.4c0-0.1,0-0.2-0.1-0.3c-0.1-0.1-0.2-0.1-0.3-0.2l-0.5-0.1c-0.2-0.1-0.5-0.1-0.7-0.2
	s-0.3-0.2-0.5-0.3c-0.1-0.2-0.2-0.4-0.2-0.6s0.1-0.4,0.2-0.6c0.1-0.2,0.3-0.3,0.5-0.4c0.3-0.1,0.6-0.2,0.8-0.1c0.2,0,0.5,0,0.7,0.1
	c0.2,0,0.4,0.1,0.6,0.2l-0.2,0.5c-0.2-0.1-0.3-0.2-0.5-0.2c-0.2-0.1-0.3-0.1-0.5-0.1s-0.4,0-0.6,0.1c-0.1,0.1-0.2,0.2-0.2,0.4
	c0,0.1,0,0.2,0.1,0.3c0.1,0.1,0.2,0.1,0.3,0.2l0.5,0.1c0.2,0,0.5,0.1,0.7,0.2s0.3,0.2,0.5,0.3c0.1,0.2,0.2,0.4,0.2,0.6
	s-0.1,0.4-0.2,0.6c-0.1,0.2-0.3,0.3-0.5,0.4c-0.3,0.1-0.6,0.2-0.8,0.1C211.4,32.8,211.1,32.7,210.8,32.6z"/>
<path class="st0" d="M216.8,32.6c-0.2-0.1-0.5-0.2-0.6-0.3l0.2-0.5c0.2,0.1,0.4,0.2,0.6,0.3c0.2,0.1,0.4,0.1,0.7,0.1
	c0.2,0,0.4,0,0.6-0.1c0.1-0.1,0.2-0.2,0.2-0.4c0-0.1,0-0.2-0.1-0.3c-0.1-0.1-0.2-0.1-0.3-0.2l-0.5-0.1c-0.2-0.1-0.5-0.1-0.7-0.2
	s-0.3-0.2-0.5-0.3c-0.1-0.2-0.2-0.4-0.2-0.6s0.1-0.4,0.2-0.6c0.1-0.2,0.3-0.3,0.5-0.4c0.3-0.1,0.6-0.2,0.8-0.1c0.2,0,0.5,0,0.7,0.1
	s0.4,0.1,0.6,0.2l-0.2,0.5c-0.2-0.1-0.3-0.2-0.5-0.2c-0.2-0.1-0.4-0.1-0.5-0.1c-0.2,0-0.4,0-0.6,0.1c-0.1,0.1-0.2,0.2-0.2,0.4
	c0,0.1,0,0.2,0.1,0.3c0.1,0.1,0.2,0.1,0.3,0.2c0.1,0,0.3,0.1,0.5,0.1s0.5,0.1,0.7,0.2s0.3,0.2,0.5,0.3c0.1,0.2,0.2,0.4,0.2,0.6
	s-0.1,0.4-0.2,0.6c-0.1,0.2-0.3,0.3-0.5,0.4c-0.3,0.1-0.6,0.2-0.9,0.1C217.4,32.8,217.1,32.7,216.8,32.6z"/>
<path class="st0" d="M222.9,31.8H221l-0.4,0.9h-0.7l1.7-3.8h0.7l1.7,3.8h-0.7L222.9,31.8z M222.6,31.3l-0.7-1.7l-0.7,1.7H222.6z"/>
<path class="st0" d="M228.4,28.9v3.8h-0.6l-2.1-2.6v2.6H225v-3.8h0.6l2.1,2.6v-2.6C227.7,28.9,228.4,28.9,228.4,28.9z"/>
<path class="st0" d="M233.9,28.9h0.7v3.8h-0.7V28.9z"/>
<path class="st0" d="M236.9,32.5c-0.6-0.3-1-1-1-1.7c0-0.4,0.1-0.7,0.3-1s0.4-0.5,0.7-0.7c0.7-0.3,1.4-0.3,2.1,0
	c0.3,0.2,0.6,0.4,0.7,0.7c0.2,0.3,0.3,0.6,0.3,1s-0.1,0.7-0.3,1s-0.4,0.5-0.7,0.7C238.3,32.8,237.5,32.8,236.9,32.5L236.9,32.5z
	 M238.6,32c0.2-0.1,0.4-0.3,0.5-0.5s0.2-0.4,0.2-0.7c0-0.2-0.1-0.5-0.2-0.7c-0.1-0.2-0.3-0.4-0.5-0.5s-0.4-0.2-0.7-0.2
	c-0.2,0-0.5,0.1-0.7,0.2s-0.4,0.3-0.5,0.5s-0.2,0.4-0.2,0.7c0,0.2,0.1,0.5,0.2,0.7c0.1,0.2,0.3,0.4,0.5,0.5c0.2,0.1,0.4,0.2,0.7,0.2
	C238.1,32.2,238.4,32.1,238.6,32L238.6,32z"/>
<path class="st0" d="M244.6,28.9v3.8H244l-2.1-2.6v2.6h-0.7v-3.8h0.6l2.1,2.6v-2.6C243.9,28.9,244.6,28.9,244.6,28.9z"/>
<path class="st0" d="M248.6,31.8h-1.9l-0.4,0.9h-0.7l1.7-3.8h0.7l1.7,3.8H249L248.6,31.8z M248.4,31.3l-0.7-1.7l-0.7,1.7H248.4z"/>
<path class="st0" d="M250.7,28.9h1.6c0.4,0,0.7,0.1,1.1,0.2c0.3,0.1,0.6,0.4,0.7,0.7c0.4,0.6,0.4,1.4,0,2c-0.2,0.3-0.4,0.5-0.7,0.7
	c-0.3,0.2-0.7,0.2-1.1,0.2h-1.7L250.7,28.9z M252.4,32.1c0.3,0,0.5,0,0.7-0.2c0.2-0.1,0.4-0.3,0.5-0.5s0.2-0.4,0.2-0.7
	c0-0.2-0.1-0.5-0.2-0.7c-0.1-0.2-0.3-0.4-0.5-0.5s-0.5-0.2-0.7-0.2h-0.9v2.6L252.4,32.1z"/>
<path class="st0" d="M256.5,32.5c-0.3-0.2-0.6-0.4-0.7-0.7c-0.2-0.3-0.3-0.6-0.3-1s0.1-0.7,0.3-1s0.4-0.5,0.7-0.7
	c0.7-0.3,1.4-0.3,2.1,0c0.3,0.2,0.6,0.4,0.7,0.7c0.2,0.3,0.3,0.6,0.3,1s-0.1,0.7-0.3,1c-0.2,0.3-0.4,0.5-0.7,0.7
	C257.9,32.8,257.1,32.8,256.5,32.5L256.5,32.5z M258.2,32c0.2-0.1,0.4-0.3,0.5-0.5s0.2-0.4,0.2-0.7c0-0.2-0.1-0.5-0.2-0.7
	s-0.3-0.4-0.5-0.5s-0.4-0.2-0.7-0.2c-0.2,0-0.5,0.1-0.7,0.2c-0.4,0.2-0.7,0.7-0.6,1.2c0,0.2,0.1,0.5,0.2,0.7s0.3,0.4,0.5,0.5
	c0.2,0.1,0.4,0.2,0.7,0.2C257.8,32.2,258,32.1,258.2,32L258.2,32z"/>
<path class="st0" d="M261.2,32.6c-0.2-0.1-0.5-0.2-0.6-0.3l0.2-0.5c0.2,0.1,0.4,0.2,0.6,0.3s0.4,0.1,0.7,0.1c0.2,0,0.4,0,0.6-0.1
	c0.1-0.1,0.2-0.2,0.2-0.4c0-0.1,0-0.2-0.1-0.3c-0.1-0.1-0.2-0.1-0.3-0.2c-0.1,0-0.3-0.1-0.5-0.1c-0.2-0.1-0.5-0.1-0.7-0.2
	s-0.3-0.2-0.5-0.3c-0.1-0.2-0.2-0.4-0.2-0.6s0.1-0.4,0.2-0.6s0.3-0.3,0.5-0.4c0.3-0.1,0.6-0.2,0.8-0.1c0.2,0,0.5,0,0.7,0.1
	s0.4,0.1,0.6,0.2l-0.2,0.5c-0.2-0.1-0.3-0.2-0.5-0.2c-0.2-0.1-0.4-0.1-0.5-0.1c-0.2,0-0.4,0-0.6,0.1c-0.1,0.1-0.2,0.2-0.2,0.4
	c0,0.1,0,0.2,0.1,0.3c0.1,0.1,0.2,0.1,0.3,0.2c0.1,0,0.3,0.1,0.5,0.1s0.5,0.1,0.7,0.2s0.3,0.2,0.5,0.3c0.1,0.2,0.2,0.4,0.2,0.6
	s-0.1,0.4-0.2,0.6c-0.1,0.2-0.3,0.3-0.5,0.4c-0.3,0.1-0.6,0.2-0.8,0.1C261.7,32.8,261.4,32.7,261.2,32.6z"/>
<path class="st0" d="M46.9,34h0.6v1.2c-0.2,0.1-0.4,0.2-0.6,0.3c-0.2,0.1-0.4,0.1-0.6,0.1c-0.3,0-0.6-0.1-0.8-0.2
	c-0.2-0.1-0.4-0.3-0.6-0.5c-0.3-0.5-0.3-1.1,0-1.6c0.1-0.2,0.3-0.4,0.6-0.5c0.5-0.2,1-0.3,1.5-0.1c0.2,0.1,0.4,0.2,0.5,0.4l-0.4,0.4
	c-0.2-0.2-0.5-0.3-0.8-0.3c-0.2,0-0.3,0-0.5,0.1c-0.1,0.1-0.3,0.2-0.4,0.3c-0.1,0.2-0.1,0.3-0.1,0.5s0,0.3,0.1,0.5
	c0.1,0.1,0.2,0.3,0.3,0.3C46,35,46.2,35,46.4,35s0.4,0,0.5-0.1V34z"/>
<path class="st0" d="M50,35.3c-0.2-0.1-0.4-0.3-0.6-0.5c-0.1-0.2-0.2-0.5-0.2-0.8s0.1-0.5,0.2-0.8c0.1-0.2,0.3-0.4,0.6-0.5
	c0.5-0.3,1.1-0.3,1.6,0c0.2,0.1,0.4,0.3,0.6,0.5c0.1,0.2,0.2,0.5,0.2,0.8s-0.1,0.5-0.2,0.8c-0.1,0.2-0.3,0.4-0.6,0.5
	C51.2,35.6,50.5,35.6,50,35.3z M51.3,34.8c0.1-0.1,0.3-0.2,0.3-0.3c0.1-0.1,0.1-0.3,0.1-0.5s0-0.3-0.1-0.5c-0.1-0.1-0.2-0.3-0.3-0.3
	c-0.1-0.1-0.3-0.1-0.5-0.1s-0.3,0-0.5,0.1c-0.1,0.1-0.3,0.2-0.3,0.3c-0.1,0.2-0.1,0.3-0.1,0.5s0,0.3,0.1,0.5
	c0.1,0.1,0.2,0.3,0.3,0.3c0.1,0.1,0.3,0.1,0.5,0.1C51,35,51.2,34.9,51.3,34.8L51.3,34.8z"/>
<path class="st0" d="M56.8,34.2c0.1,0.1,0.2,0.3,0.1,0.5c0,0.2-0.1,0.5-0.3,0.6c-0.3,0.2-0.6,0.2-0.9,0.2h-1.5v-3h1.4
	c0.3,0,0.6,0.1,0.8,0.2c0.2,0.1,0.3,0.3,0.3,0.6c0,0.1,0,0.3-0.1,0.4c-0.1,0.1-0.2,0.2-0.3,0.3C56.6,34,56.7,34.1,56.8,34.2z
	 M54.9,33.1v0.7h0.7c0.1,0,0.3,0,0.4-0.1c0.1-0.1,0.1-0.2,0.1-0.3s0-0.2-0.1-0.3S55.8,33,55.6,33L54.9,33.1L54.9,33.1z M56.1,34.9
	c0.1-0.1,0.1-0.2,0.1-0.3c0-0.2-0.2-0.4-0.5-0.4h-0.8V35h0.8C55.9,35,56,35,56.1,34.9L56.1,34.9z"/>
<path class="st0" d="M58.7,32.5h0.7v3h-0.7V32.5z"/>
<path class="st0" d="M63.6,34.9v0.5h-2.2v-3h2.2V33h-1.5v0.6h1.3v0.5H62v0.7L63.6,34.9z"/>
<path class="st0" d="M67.3,35.5l-0.6-0.8h-0.6v0.8h-0.7v-3h1.3c0.2,0,0.5,0,0.7,0.1s0.3,0.2,0.4,0.4s0.2,0.4,0.2,0.6
	c0,0.2-0.1,0.4-0.2,0.6c-0.1,0.2-0.3,0.3-0.5,0.4l0.7,1L67.3,35.5L67.3,35.5z M67.1,33.2c-0.1-0.1-0.3-0.1-0.5-0.1h-0.5v1h0.5
	c0.2,0,0.3,0,0.5-0.1c0.1-0.1,0.2-0.2,0.2-0.4C67.3,33.4,67.2,33.3,67.1,33.2L67.1,33.2z"/>
<path class="st0" d="M72.5,32.5v3H72l-1.5-1.8v1.8h-0.7v-3h0.6l1.5,1.8v-1.8H72.5z"/>
<path class="st0" d="M75,35.3c-0.2-0.1-0.4-0.3-0.6-0.5c-0.1-0.2-0.2-0.5-0.2-0.8s0.1-0.5,0.2-0.8c0.1-0.2,0.3-0.4,0.6-0.5
	c0.3-0.1,0.5-0.2,0.8-0.2s0.6,0.1,0.8,0.2c0.2,0.1,0.4,0.3,0.6,0.5c0.1,0.2,0.2,0.5,0.2,0.8s-0.1,0.5-0.2,0.8
	c-0.1,0.2-0.3,0.4-0.6,0.5c-0.3,0.1-0.5,0.2-0.8,0.2C75.6,35.5,75.3,35.5,75,35.3z M76.3,34.8c0.1-0.1,0.3-0.2,0.3-0.3
	c0.1-0.1,0.1-0.3,0.1-0.5s0-0.3-0.1-0.5c-0.1-0.1-0.2-0.3-0.3-0.3c-0.1-0.1-0.3-0.1-0.5-0.1s-0.3,0-0.5,0.1
	c-0.1,0.1-0.3,0.2-0.3,0.3c0,0.2-0.1,0.3,0,0.5c0,0.2,0,0.3,0.1,0.5c0.1,0.1,0.2,0.3,0.3,0.3c0.1,0.1,0.3,0.1,0.5,0.1
	C76,35,76.2,34.9,76.3,34.8L76.3,34.8z"/>
<path class="st0" d="M81.7,32.5H83c0.3,0,0.6,0.1,0.9,0.2c0.2,0.1,0.4,0.3,0.6,0.5c0.3,0.5,0.3,1.1,0,1.5c-0.1,0.2-0.3,0.4-0.6,0.5
	c-0.3,0.1-0.6,0.2-0.9,0.2h-1.3V32.5z M83,34.9c0.3,0,0.5-0.1,0.7-0.2c0.2-0.2,0.3-0.4,0.3-0.7c0-0.2-0.1-0.5-0.3-0.7
	c-0.2-0.2-0.4-0.3-0.7-0.2h-0.6v1.8L83,34.9z"/>
<path class="st0" d="M88.7,34.9v0.5h-2.3v-3h2.2V33h-1.5v0.6h1.4v0.5h-1.4v0.7L88.7,34.9z"/>
<path class="st0" d="M90.5,32.5h0.7v2.4h1.5v0.6h-2.1L90.5,32.5L90.5,32.5z"/>
<path class="st0" d="M99,34.9v0.5h-2.3v-3H99V33h-1.5v0.6h1.4v0.5h-1.4v0.7L99,34.9z"/>
<path class="st0" d="M101.1,35.4c-0.2,0-0.4-0.1-0.5-0.2l0.2-0.5c0.1,0.1,0.3,0.2,0.5,0.2c0.2,0.1,0.3,0.1,0.5,0.1
	c0.1,0,0.3,0,0.4-0.1c0.1,0,0.1-0.1,0.1-0.2c0-0.1,0-0.1-0.1-0.2c-0.1,0-0.1-0.1-0.2-0.1l-0.3-0.1l-0.5-0.2c-0.1,0-0.3-0.1-0.4-0.3
	c-0.1-0.1-0.2-0.3-0.1-0.5c0-0.2,0-0.3,0.1-0.5c0.1-0.1,0.3-0.3,0.4-0.3c0.2-0.1,0.4-0.1,0.7-0.1c0.2,0,0.4,0,0.6,0.1
	c0.2,0,0.3,0.1,0.5,0.2l-0.2,0.5c-0.2-0.1-0.5-0.2-0.8-0.2c-0.1,0-0.3,0-0.4,0.1s-0.1,0.1-0.1,0.2c0,0.1,0.1,0.2,0.2,0.2
	c0.2,0.1,0.3,0.1,0.5,0.1s0.4,0.1,0.5,0.2c0.1,0,0.3,0.1,0.4,0.2c0.1,0.1,0.2,0.3,0.1,0.5c0,0.2,0,0.3-0.1,0.5
	c-0.1,0.1-0.3,0.3-0.4,0.3c-0.2,0.1-0.5,0.1-0.7,0.1C101.6,35.5,101.4,35.5,101.1,35.4z"/>
<path class="st0" d="M105.4,33.1h-1v-0.6h2.6v0.6h-1v2.4h-0.6V33.1z"/>
<path class="st0" d="M110.4,34.9H109l-0.3,0.6H108l1.3-3h0.7l1.3,3h-0.7L110.4,34.9z M110.2,34.3l-0.5-1.1l-0.5,1.1H110.2z"/>
<path class="st0" d="M112.9,32.5h1.3c0.3,0,0.6,0.1,0.8,0.2c0.2,0.1,0.4,0.3,0.6,0.5c0.3,0.5,0.3,1.1,0,1.5
	c-0.1,0.2-0.3,0.4-0.6,0.5c-0.3,0.1-0.5,0.2-0.8,0.2h-1.3V32.5z M114.2,34.9c0.3,0,0.5-0.1,0.7-0.2c0.2-0.2,0.3-0.4,0.3-0.7
	c0-0.2-0.1-0.5-0.3-0.7c-0.2-0.2-0.4-0.3-0.7-0.2h-0.6v1.8L114.2,34.9z"/>
<path class="st0" d="M118.3,35.3c-0.2-0.1-0.4-0.3-0.6-0.5c-0.1-0.2-0.2-0.5-0.2-0.8s0.1-0.5,0.2-0.8c0.1-0.2,0.3-0.4,0.6-0.5
	c0.3-0.1,0.5-0.2,0.8-0.2s0.6,0.1,0.8,0.2c0.5,0.3,0.8,0.8,0.8,1.3c0,0.6-0.3,1.1-0.8,1.3c-0.3,0.1-0.5,0.2-0.8,0.2
	S118.5,35.5,118.3,35.3z M119.6,34.8c0.1-0.1,0.3-0.2,0.3-0.3c0.1-0.1,0.1-0.3,0.1-0.5s0-0.3-0.1-0.5c-0.1-0.1-0.2-0.3-0.3-0.3
	c-0.1-0.1-0.3-0.1-0.5-0.1s-0.3,0-0.5,0.1c-0.1,0.1-0.3,0.2-0.3,0.3c-0.1,0.2-0.1,0.3-0.1,0.5s0,0.3,0.1,0.5
	c0.1,0.1,0.2,0.3,0.3,0.3c0.1,0.1,0.3,0.1,0.5,0.1C119.3,35,119.4,34.9,119.6,34.8z"/>
<path class="st1" d="M46.5,24.4c-0.1,0.6-0.4,1.1-0.7,1.6c-0.7,0.5-1.5,0.7-2.3,0.7c-1,0.1-2-0.4-2.5-1.2c-0.6-1-0.9-2.2-0.9-3.4
	c-0.1-1.5,0.3-2.9,1-4.2c0.7-0.5,1.5-0.7,2.3-0.7c1-0.1,2,0.4,2.6,1.2c0.6,1.1,0.9,2.4,0.8,3.7C46.8,22.8,46.7,23.6,46.5,24.4
	 M43.8,15c-1.9-0.1-3.8,0.7-5.2,2c-1.4,1.4-2.1,3.3-2,5.2c-0.1,1.8,0.6,3.5,1.8,4.7c2.9,2.4,7.1,2.3,9.8-0.2c1.3-1.4,2.1-3.2,2-5.1
	c0.1-1.8-0.6-3.5-1.8-4.8C47.2,15.6,45.5,14.9,43.8,15"/>
<path class="st1" d="M55.7,22.6c0.6-2.1,1.2-3.9,1.7-5.3c0.6,1.7,1.2,3.5,1.9,5.4L55.7,22.6z M64.2,26.6c-1.1-2.7-2.2-5.9-3.5-9.5
	c-0.4-1-0.6-1.7-0.7-2.1c-1.2,0-2.6,0.1-4.2,0.2l-0.5,1.9c-1.4,3.9-2.6,7.1-3.6,9.5l-1.5,0.6l0.2,1.1H56l0.3-1.1l-1.8-0.6
	c0.4-1.4,0.6-2.1,0.6-2.2l4.7-0.1c0.3,0.9,0.5,1.6,0.8,2.3l-1.8,0.6l0.2,1.1h6.3l0.2-1.1L64.2,26.6z"/>
<path class="st1" d="M81,27.2c-0.6-0.2-1.1-0.5-1.6-0.7c-0.8-0.9-2-2.5-3.6-4.7c1.6-2.2,2.8-3.8,3.7-4.8l0.7-0.3l0.7-0.3l-0.2-1.1
	H75l-0.2,1.1l1.7,0.7c-0.6,1.1-1.2,2.1-1.7,3.1c-1.2-1.6-2.2-3.3-3.2-5c-1.6,0.1-3.1,0.1-4.5,0.1l-0.2,1.1c0.5,0.2,1.1,0.4,1.6,0.7
	c0.7,0.7,1.8,2.3,3.5,4.6c-1.6,2.2-2.9,3.8-3.8,4.9l-0.7,0.3l-0.7,0.3l0.2,1.1h5.7l0.2-1.1c-0.4-0.1-0.9-0.4-1.7-0.7
	c0.5-1,1.1-2.1,1.8-3.2c1.2,1.7,2.3,3.4,3.4,5.2c1.6,0,3.1-0.1,4.5-0.1L81,27.2z"/>
<path class="st1" d="M88.9,17.3c0.6,1.7,1.2,3.5,1.9,5.4l-3.6-0.1C87.9,20.5,88.5,18.8,88.9,17.3 M86.7,24.5l4.7-0.1
	c0.3,0.9,0.5,1.6,0.8,2.3l-1.8,0.6l0.2,1.1H97l0.2-1.1l-1.5-0.6c-1.1-2.7-2.2-5.9-3.5-9.5c-0.4-1-0.6-1.7-0.7-2.1
	c-1.2,0-2.6,0.1-4.2,0.2l-0.5,1.9c-1.4,3.9-2.6,7.1-3.6,9.5l-1.4,0.6l0.2,1.1h5.5l0.3-1.1L86,26.7C86.5,25.3,86.7,24.6,86.7,24.5"/>
<path class="st1" d="M109.5,26.7c0-1.2,0-2.1-0.1-2.8c-0.7-0.1-1.5-0.1-2.2-0.1c-0.3,1-0.5,1.8-0.7,2.4c-0.6,0.2-1.2,0.4-1.9,0.3
	c-1.1,0.1-2.1-0.4-2.8-1.3c-0.7-1-1.1-2.2-1-3.5c-0.1-1.6,0.4-3.1,1.4-4.4c0.7-0.3,1.4-0.5,2.1-0.4c0.7,0,1.3,0.1,1.9,0.4
	c0.3,0.9,0.5,1.7,0.6,2.6c0.7,0.1,1.4,0.1,2.1,0.1c0.3-1.2,0.5-2.4,0.7-3.4l-0.3-0.6c-1.5-0.8-3.2-1.2-4.8-1.2c-1.9,0-3.7,0.7-5.1,2
	s-2.1,3.1-2.1,5c-0.1,1.8,0.6,3.6,1.8,4.8c1.4,1.2,3.2,1.9,5,1.8c1.8,0.1,3.5-0.4,5-1.3L109.5,26.7z"/>
<path class="st1" d="M116.2,22.6c0.6-2.1,1.2-3.9,1.7-5.3c0.6,1.7,1.2,3.5,1.9,5.4L116.2,22.6z M124.7,26.6
	c-1.1-2.7-2.2-5.9-3.5-9.5c-0.4-1-0.6-1.7-0.7-2.1c-1.2,0-2.6,0.1-4.2,0.2l-0.5,1.9c-1.4,3.9-2.6,7.1-3.6,9.5l-1.4,0.6l0.2,1.1h5.5
	l0.3-1.1l-1.8-0.6c0.4-1.4,0.6-2.1,0.6-2.2l4.7-0.1c0.3,0.9,0.5,1.6,0.8,2.3l-1.8,0.6l0.2,1.1h6.4l0.2-1.1L124.7,26.6z"/>
<path class="st2" d="M2.4,18.4c0,0.1-0.1,0.1-0.1,0.1c-0.1,0-0.1-0.1-0.1-0.1l0.1-0.1C2.3,18.3,2.4,18.3,2.4,18.4z"/>
<path class="st3" d="M8.5,8.9c-1.5,0-3,0.4-4.3,1c-2.6,1.4-4.2,4.2-4.1,7.2v1.4h2.3c0.1,0,0.1,0,0.1-0.1l0,0v-1
	c0-1.2,0.4-2.5,1.1-3.5c0.9-1.3,2.3-2.2,3.8-2.5c0.4-0.1,0.8-0.1,1.2-0.1L8.5,8.9z"/>
<path class="st4" d="M27.7,17.3c0-1.5-0.4-3-1-4.3c-1.4-2.6-4.2-4.2-7.2-4.1h-1.4v2.3c0,0.1,0.1,0.1,0.1,0.1h1c2.9,0,5.4,2,6,4.9
	c0.1,0.4,0.1,0.8,0.1,1.2L27.7,17.3z"/>
<path class="st5" d="M19.3,36.6c1.5,0,3-0.4,4.3-1c2.6-1.4,4.2-4.2,4.1-7.2V27h-2.4c-0.1,0-0.1,0.1-0.1,0.1v1c0,1.2-0.4,2.5-1.1,3.5
	c-0.9,1.3-2.2,2.2-3.8,2.5c-0.4,0.1-0.8,0.1-1.2,0.1L19.3,36.6z"/>
<path class="st6" d="M0,28.2c0,1.5,0.4,3,1,4.3c1.4,2.6,4.2,4.2,7.2,4.1h1.4v-2.3c0-0.1,0-0.1-0.1-0.1l0,0h-1
	c-1.2,0-2.5-0.4-3.5-1.1c-1.3-0.9-2.2-2.2-2.5-3.8c-0.1-0.4-0.1-0.8-0.1-1.2L0,28.2z"/>
<path class="st7" d="M9.7,8.9v4.5c0,0.4-0.2,0.9-0.5,1.1c-0.2,0.2-0.4,0.3-0.7,0.3l-0.4,0.1L7.8,15c-0.4,0.1-0.7,0.3-1,0.5
	c-0.5,0.4-0.8,1-0.8,1.6c0,0.8-0.7,1.5-1.6,1.4H3.6C3.5,16,4,14.6,5.7,13.3c0.7-0.5,1.5-0.8,2.4-0.8c0.2,0,0.3-0.1,0.3-0.3V8.9H9.7z
	"/>
<path class="st8" d="M27.7,18.5h-4.5c-0.4,0-0.9-0.2-1.1-0.5c-0.2-0.2-0.3-0.4-0.3-0.7c0-0.1,0-0.3-0.1-0.4c0-0.1,0-0.2-0.1-0.3
	c-0.1-0.4-0.3-0.7-0.5-1c-0.4-0.5-1-0.8-1.6-0.8c-0.8,0-1.5-0.7-1.4-1.5l0,0v-0.8c2.5-0.1,3.9,0.5,5.2,2.2c0.5,0.7,0.8,1.5,0.8,2.4
	c0,0.2,0.1,0.3,0.3,0.3l0,0h3.3C27.7,17.4,27.7,18.5,27.7,18.5z"/>
<path class="st9" d="M18.1,36.6v-4.5c0-0.4,0.2-0.9,0.5-1.1c0.2-0.2,0.4-0.3,0.7-0.3c0.1,0,0.3-0.1,0.4-0.1s0.2,0,0.3-0.1
	c0.4-0.1,0.7-0.3,1-0.5c0.5-0.4,0.8-1,0.8-1.6c0-0.8,0.7-1.5,1.5-1.4l0,0h0.8c0.1,2.5-0.5,3.9-2.2,5.2c-0.7,0.5-1.5,0.8-2.4,0.8
	c-0.2,0-0.3,0.1-0.3,0.3v3.3L18.1,36.6z"/>
<path class="st10" d="M0,26.9h4.5c0.4,0,0.9,0.2,1.1,0.5c0.2,0.2,0.3,0.4,0.3,0.7C6,28.3,6,28.4,6,28.5s0,0.2,0.1,0.3
	c0.3,1,1.1,1.7,2.1,1.8c0.8,0,1.5,0.7,1.4,1.5l0,0V33c-2.5,0.1-3.9-0.5-5.2-2.2c-0.5-0.7-0.8-1.5-0.8-2.4c0-0.2-0.1-0.3-0.3-0.3H0
	V26.9z"/>
<path class="st11" d="M9.7,13.4"/>
<rect x="7.2" y="18.5" class="st12" width="6" height="1.2"/>
<path class="st12" d="M7.2,17.3h6v-1.2h-5c-0.6,0-1,0.4-1,1V17.3z"/>
<rect x="7.2" y="20.9" class="st12" width="6" height="1.2"/>
<rect x="24.1" y="19.7" class="st12" width="1.2" height="2.4"/>
<polygon class="st12" points="21.7,19.7 21.7,25.7 27.7,25.7 27.7,19.7 26.5,19.7 26.5,23.3 22.9,23.3 22.9,19.7 "/>
<path class="st12" d="M16,18.5l0.7-1.2l0.1-0.2l0.5-0.9l0,0h-3v6h3l0,0l-0.5-0.9L16.7,21L16,19.8l-0.3-0.6c0,0,0,0,0-0.1L16,18.5z"
	/>
<path class="st12" d="M18.9,19.7l-0.7,1.2l-0.1,0.2L17.6,22l0,0h3v-5c0-0.6-0.4-1-1-1h-2l0,0l0.5,0.9l0.1,0.2l0.7,1.2l0.3,0.6
	c0,0,0,0,0,0.1L18.9,19.7z"/>
<path class="st12" d="M14.6,9.1l0.3,0.3h0.4c0.1,0,0.2,0,0.4,0.1s0.4,0.3,0.6,0.5c0,0.1,0.1,0.2,0.1,0.4v0.4l0.3,0.3l0.1,0.1
	c0.1,0.2,0.2,0.3,0.2,0.5v-3h-2.9C14.1,8.9,14.3,8.9,14.6,9.1L14.6,9.1"/>
<path class="st12" d="M11.1,11.2l0.3-0.3v-0.4c0-0.1,0-0.2,0.1-0.4s0.3-0.4,0.5-0.5c0.1-0.1,0.2-0.1,0.4-0.1h0.4l0.3-0.3l0.1-0.1
	c0.2-0.1,0.3-0.2,0.5-0.2h-2.9v3c0-0.2,0.1-0.4,0.2-0.5L11.1,11.2"/>
<path class="st12" d="M16.9,12c0,0.2-0.1,0.4-0.2,0.5l-0.1,0.1L16.3,13v0.4c0,0.1,0,0.2-0.1,0.4s-0.3,0.4-0.6,0.5
	c-0.1,0-0.2,0.1-0.4,0.1h-0.4l-0.3,0.3l-0.1,0.1c-0.2,0.1-0.3,0.2-0.5,0.2h3L16.9,12z"/>
<path class="st12" d="M13.3,14.7L13.3,14.7l-0.4-0.4h-0.4c-0.4,0-0.7-0.3-0.9-0.6c-0.1-0.1-0.1-0.2-0.1-0.4v-0.4l-0.3-0.3l-0.1-0.1
	c-0.1-0.2-0.2-0.3-0.2-0.5v3h2.9C13.6,14.9,13.4,14.9,13.3,14.7"/>
<path class="st12" d="M13.3,11.9c0,0.3,0.3,0.6,0.6,0.6s0.6-0.3,0.6-0.6s-0.3-0.6-0.6-0.6l0,0C13.5,11.3,13.3,11.6,13.3,11.9
	L13.3,11.9"/>
<polygon class="st12" points="3.1,24.3 1.8,22.7 3.1,21.2 1.9,19.7 0,19.7 0,25.8 1.8,25.8 "/>
<polygon class="st12" points="6,25.8 6,19.7 3.1,19.7 4.3,21.2 3.1,22.7 4.3,24.3 3.1,25.8 "/>
<polygon class="st12" points="15.7,24.6 14.5,24.6 14.5,25.8 16.9,25.8 16.9,23.3 15.7,23.3 "/>
<polygon class="st12" points="18.1,23.3 18.1,25.8 20.5,25.8 20.5,24.6 19.3,24.6 19.3,23.3 "/>
<rect x="16.9" y="25.8" class="st12" width="1.2" height="1.2"/>
<polygon class="st12" points="16.9,29.4 16.9,27 14.5,27 14.5,28.2 15.7,28.2 15.7,29.4 "/>
<polygon class="st12" points="19.3,28.2 20.5,28.2 20.5,27 18.1,27 18.1,29.4 19.3,29.4 "/>
<polygon class="st12" points="13.3,26.7 13.3,23.3 7.2,23.3 7.2,25.4 7.9,25.4 7.9,26 8.6,26 8.6,26.7 10.6,26.7 10.6,25.4 
	9.9,25.4 9.9,26 9.2,26 9.2,24.7 11.2,24.7 11.2,25.4 11.9,25.4 11.9,26 12.6,26 12.6,26.7 "/>
<path class="st12" d="M8.3,29.4h5v-2h-6v1C7.3,29,7.8,29.4,8.3,29.4"/>
<path class="st12" d="M14.9,34c-0.3,0-0.6,0-0.8,0.1c-0.8,0.3-1.6,0.3-2.4,0C11.4,34,11.2,34,10.9,34v0.6c0.4,0,0.8,0.1,1.2,0.2
	c0.5,0.2,1.1,0.2,1.7,0c0.8-0.3,1.6-0.3,2.4,0c0.3,0.1,0.5,0.1,0.8,0.1v-0.6c-0.4,0-0.8-0.1-1.2-0.2C15.4,34,15.2,34,14.9,34"/>
<path class="st12" d="M14.9,32.2c-0.3,0-0.6,0-0.8,0.1c-0.8,0.3-1.6,0.3-2.4,0c-0.3-0.1-0.5-0.1-0.8-0.1v0.6c0.4,0,0.8,0.1,1.2,0.2
	c0.3,0.1,0.5,0.1,0.8,0.1s0.6,0,0.8-0.1c0.8-0.3,1.6-0.3,2.4,0c0.3,0.1,0.5,0.1,0.8,0.1v-0.6c-0.4,0-0.8-0.1-1.2-0.2
	C15.4,32.2,15.2,32.2,14.9,32.2"/>
<path class="st12" d="M12.8,31.3c0.3,0,0.6,0,0.8-0.1c0.8-0.3,1.6-0.3,2.4,0c0.3,0.1,0.5,0.1,0.8,0.1v-0.8h-6V31
	c0.4,0,0.8,0.1,1.2,0.2C12.3,31.3,12.6,31.4,12.8,31.3"/>
<path class="st12" d="M14.9,35.9c-0.3,0-0.6,0-0.8,0.1c-0.8,0.3-1.6,0.3-2.4,0c-0.3-0.1-0.5-0.1-0.8-0.1v0.8h6v-0.4
	c-0.4,0-0.8-0.1-1.2-0.2C15.4,35.9,15.1,35.8,14.9,35.9"/>
<rect x="137.2" y="8" class="st13" width="1" height="28"/>
<rect x="304.2" y="8" class="st13" width="1" height="28"/>
<rect x="437.2" y="8" class="st13" width="1" height="28"/>
<path class="st13" d="M331,35.2c0.9-0.4,1.8-0.8,2.7-1.2c3.9-1.8,7-5,8.6-9c0.7-1.6,1.3-3.3,2-4.9c1.4-3.7,4.3-6.6,7.9-7.9
	c2.4-1,5-1.1,7.4-0.3c5.5,1.6,8.7,7.4,7.2,12.9c-0.7,2.8-2.5,5.1-5.1,6.5c-2,1-4.4,1.2-6.6,0.7c-2.3-0.4-4.1-2.1-4.6-4.4
	c-0.2-0.8-0.3-1.7-0.3-2.5c0-2.3,1.7-4.3,4-4.7c1-0.3,2.2-0.2,3.2,0.1c0.9,0.3,1.5,1,1.8,1.8c0.1,0.4,0.2,0.8,0.8,0.6s0.4-0.6,0.2-1
	c-0.5-1.4-1.7-2.4-3.2-2.7c-3.4-0.8-6.8,1.2-7.8,4.6c-0.6,2-1.5,3.9-2.6,5.7c-1.7,2.7-3.8,5-6.8,6c-2.5,0.9-5.3,0.9-7.9,0.1
	c-0.2-0.1-0.4-0.2-0.6-0.3C331.2,35.4,331.1,35.3,331,35.2z"/>
<path class="st13" d="M353.7,10.4c-1.4,0.6-2.7,1.1-3.9,1.7c-3.2,1.7-5.6,4.5-6.7,7.9c-0.9,2.8-2.1,5.4-3.7,7.9
	c-1.8,2.4-4.1,4.3-6.8,5.5c-4.1,2-7.8,1.2-11.2-1.7c-5.5-4.8-4.4-13.9,2.1-17.1c2.7-1.4,5.9-1.3,8.5,0.3c1.8,1.1,2.5,2.9,2.7,4.9
	c0.2,1.4-0.1,2.9-1,4c-1.4,1.7-4.9,2.4-6.7,1.2c-0.5-0.4-0.9-0.9-1.2-1.5c-0.2-0.3-0.2-0.8-0.8-0.6s-0.4,0.6-0.3,1
	c0.5,1.2,1.5,2.2,2.8,2.5c3.5,1.1,7.2-0.9,8.3-4.5c0-0.1,0.1-0.2,0.1-0.3c0.7-2.7,2-5.3,3.8-7.4c1.4-1.9,3.4-3.4,5.6-4.1
	c2.5-0.8,5.2-0.8,7.7-0.1C353.3,10.1,353.5,10.3,353.7,10.4z"/>
<path class="st0" d="M341.3,10.9c-2.4,2-4.2,4.6-5.5,7.4c-0.2-0.7-0.5-1.4-0.9-2c-0.6-0.6-0.7-1.6-0.1-2.2c0.1-0.1,0.2-0.2,0.3-0.3
	c0.9-0.8,1.6-1.8,2.5-2.6c0.8-0.7,1.8-0.9,2.8-0.7C340.7,10.6,341,10.8,341.3,10.9z"/>
<path class="st0" d="M343.6,34.9c2.3-2,4.2-4.5,5.4-7.2c0.5,1,1.1,2,1.6,3c0,0.1,0,0.3-0.1,0.4c-1,1.1-1.9,2.3-3,3.3
	c-0.8,0.9-2,1.2-3.2,0.9C344.1,35.1,343.8,35,343.6,34.9z"/>
<path class="st0" d="M331,12.9c1.2-1.7,3-2.4,4.6-1.6l-1.3,1.6c-0.2,0.3-0.5,0.5-0.7,0.8s-0.5,0.4-0.8,0.2c-0.1,0-0.1-0.1-0.1-0.1
	C332.1,13.4,331.6,13.2,331,12.9z"/>
<path class="st0" d="M349.4,34.5c0.8-0.9,1.5-1.7,2.2-2.5c0.1-0.1,0.3-0.1,0.5,0c0.6,0.3,1.2,0.6,1.8,1
	C353.2,34.3,350.8,35.5,349.4,34.5z"/>
<path class="st0" d="M330.1,11.6c-0.3,0.6-0.7,1-1.4,0.9c-0.7-0.1-1.5-0.1-2.2,0C327.3,11.3,328.9,11,330.1,11.6z"/>
<path class="st0" d="M354.8,34.2c0.4-0.8,0.6-1,1.5-0.9s1.4,0,2.2,0C358,34.3,355.9,34.8,354.8,34.2z"/>
<path class="st13" d="M385.3,9v3.8h-0.9l-1.7-2v2h-1.1V9h0.9l1.7,2V9H385.3z"/>
<path class="st13" d="M386.5,12.4c-0.3-0.4-0.5-0.8-0.5-1.3V9h1.1v2.1c0,0.6,0.2,0.9,0.7,0.9s0.7-0.3,0.7-0.9V9h1.1v2.1
	c0,0.5-0.1,1-0.5,1.3C388.3,13,387.2,13,386.5,12.4L386.5,12.4z"/>
<path class="st13" d="M393.4,12v0.8h-3.1V9h3v0.8h-1.9v0.6h1.7v0.8h-1.7V12H393.4z"/>
<path class="st13" d="M397.8,9l-1.6,3.8h-1.1L393.5,9h1.2l1,2.5l1.1-2.5H397.8z"/>
<path class="st13" d="M398.8,12.6c-0.9-0.5-1.3-1.7-0.8-2.6c0.2-0.4,0.5-0.6,0.8-0.8s0.7-0.3,1.1-0.3s0.7,0.1,1.1,0.3
	c0.3,0.2,0.6,0.4,0.8,0.7c0.3,0.6,0.3,1.4,0,2c-0.2,0.3-0.4,0.5-0.8,0.7c-0.3,0.2-0.7,0.3-1.1,0.3S399.1,12.8,398.8,12.6z
	 M400.4,11.9c0.2-0.1,0.3-0.2,0.4-0.4c0.2-0.4,0.2-0.8,0-1.1c-0.1-0.2-0.2-0.3-0.4-0.4c-0.3-0.2-0.7-0.2-1,0
	c-0.2,0.1-0.3,0.2-0.4,0.4c-0.2,0.4-0.2,0.8,0,1.1c0.1,0.2,0.2,0.3,0.4,0.4C399.7,12,400.1,12,400.4,11.9z"/>
<path class="st0" d="M382.3,33.7c0.2,0.1,0.3,0.2,0.4,0.3c0.2,0.3,0.2,0.7,0,1c-0.1,0.2-0.2,0.3-0.4,0.3c-0.2,0.1-0.4,0.1-0.6,0.1
	h-0.6v0.8h-0.5v-2.7h1.1C381.9,33.5,382.1,33.6,382.3,33.7z M382.2,34.9c0.1-0.1,0.2-0.2,0.2-0.4c0-0.1,0-0.3-0.2-0.4
	c-0.1-0.1-0.3-0.2-0.5-0.1h-0.6v1h0.6C381.8,35,382,35,382.2,34.9L382.2,34.9z"/>
<path class="st0" d="M384.9,35.6h-1.3l-0.3,0.6h-0.5l1.2-2.7h0.5l1.2,2.7h-0.5L384.9,35.6z M384.7,35.2l-0.5-1.2l-0.5,1.2H384.7z"/>
<path class="st0" d="M387.7,36.2l-0.5-0.8h-0.7v0.8H386v-2.7h1.1c0.2,0,0.4,0,0.6,0.1s0.3,0.2,0.4,0.3c0.1,0.2,0.1,0.3,0.1,0.5
	s0,0.4-0.2,0.5c-0.1,0.1-0.2,0.3-0.4,0.3l0.6,0.9h-0.5V36.2z M387.5,34.1c-0.1-0.1-0.3-0.2-0.5-0.1h-0.6v1h0.6c0.2,0,0.3,0,0.5-0.1
	c0.1-0.1,0.2-0.2,0.2-0.4S387.6,34.2,387.5,34.1z"/>
<path class="st0" d="M390.4,35.6h-1.3l-0.3,0.6h-0.4l1.2-2.7h0.5l1.2,2.7h-0.5L390.4,35.6z M390.2,35.2l-0.5-1.2l-0.5,1.2H390.2z"/>
<path class="st0" d="M395,33.5l-1.2,2.7h-0.4l-1.1-2.7h0.5l0.9,2.1l0.9-2.1H395z"/>
<path class="st0" d="M395.2,33.5h0.5v2.7h-0.5V33.5z"/>
<path class="st0" d="M398.8,33.5l-1.1,2.7h-0.5l-1.2-2.7h0.5l0.9,2.1l0.9-2.1H398.8z"/>
<path class="st0" d="M399.1,33.5h0.5v2.7h-0.5V33.5z"/>
<path class="st0" d="M402,36.2l-0.5-0.8h-0.7v0.8h-0.5v-2.7h1.1c0.2,0,0.4,0,0.6,0.1s0.3,0.2,0.4,0.3c0.1,0.2,0.1,0.3,0.1,0.5
	s0,0.4-0.1,0.5s-0.2,0.3-0.4,0.3l0.6,0.9H402V36.2z M401.8,34.1c-0.1-0.1-0.3-0.1-0.5-0.1h-0.6v1h0.6c0.2,0,0.3,0,0.5-0.1
	c0.1-0.1,0.2-0.2,0.2-0.4S402,34.2,401.8,34.1z"/>
<path class="st0" d="M406,35.8v0.4h-2v-2.7h1.9V34h-1.4v0.7h1.3v0.4h-1.3v0.7L406,35.8z"/>
<path class="st0" d="M408.9,33.5v2.7h-0.4l-1.5-1.8v1.8h-0.5v-2.7h0.4l1.5,1.8v-1.8H408.9z"/>
<path class="st0" d="M412.4,33.7c0.2,0.1,0.3,0.2,0.4,0.3c0.2,0.3,0.2,0.7,0,1c-0.1,0.1-0.2,0.3-0.4,0.3c-0.2,0.1-0.4,0.1-0.6,0.1
	h-0.6v0.8h-0.5v-2.7h1.1C412,33.5,412.2,33.6,412.4,33.7z M412.2,34.9c0.1-0.1,0.2-0.2,0.2-0.4c0-0.1-0.1-0.3-0.2-0.4
	c-0.1-0.1-0.3-0.2-0.5-0.1h-0.6v1h0.6C411.9,35,412.1,35,412.2,34.9L412.2,34.9z"/>
<path class="st0" d="M414.9,35.6h-1.3l-0.3,0.6h-0.5l1.2-2.7h0.5l1.2,2.7h-0.5L414.9,35.6z M414.8,35.2l-0.5-1.2l-0.5,1.2H414.8z"/>
<path class="st0" d="M418.1,35.8v0.4h-2.2v-0.3l1.5-1.9h-1.5v-0.4h2.2v0.3l-1.5,1.9H418.1z"/>
<path class="st13" d="M385.8,15.8c0.4,0.2,0.8,0.5,1,0.9c0.5,0.8,0.5,1.8,0,2.7c-0.2,0.4-0.6,0.7-1,0.9c-0.5,0.2-1.1,0.3-1.6,0.3
	H383v1.8h-1.9v-6.8h3.1C384.8,15.4,385.3,15.5,385.8,15.8z M385,18.7c0.2-0.2,0.3-0.5,0.3-0.7c0-0.3-0.1-0.5-0.3-0.7
	c-0.3-0.2-0.6-0.3-0.9-0.3H383v2h1.1C384.5,19,384.8,18.9,385,18.7L385,18.7z"/>
<path class="st13" d="M392.4,20.9h-2.9l-0.5,1.3h-2l3-6.8h1.9l3,6.8h-2L392.4,20.9z M391.8,19.5l-0.9-2.2l-0.9,2.2H391.8z"/>
<path class="st13" d="M396.8,21.9c-0.6-0.3-1-0.7-1.3-1.2c-0.6-1.1-0.6-2.5,0-3.6c0.3-0.5,0.8-1,1.3-1.2c0.6-0.3,1.2-0.5,1.9-0.5
	c0.6,0,1.1,0.1,1.7,0.3c0.5,0.2,0.9,0.5,1.2,1l-1.2,1.1c-0.4-0.5-1-0.8-1.6-0.8c-0.3,0-0.7,0.1-1,0.2c-0.3,0.2-0.5,0.4-0.7,0.7
	c-0.3,0.6-0.3,1.4,0,2c0.2,0.3,0.4,0.5,0.7,0.7c0.3,0.2,0.7,0.2,1,0.2c0.6,0,1.2-0.3,1.6-0.8l1.2,1.1c-0.3,0.4-0.8,0.7-1.2,1
	c-0.5,0.2-1.1,0.3-1.7,0.3C398.1,22.4,397.4,22.2,396.8,21.9z"/>
<path class="st13" d="M403.9,17h-2.1v-1.5h6.1V17h-2.1v5.3h-1.9V17z"/>
<path class="st13" d="M410,21.9c-0.6-0.3-1-0.7-1.3-1.3c-0.7-1.1-0.7-2.5,0-3.6c0.3-0.5,0.8-1,1.3-1.3c1.2-0.6,2.6-0.6,3.9,0
	c0.6,0.3,1,0.7,1.3,1.3c0.7,1.1,0.7,2.5,0,3.6c-0.3,0.5-0.8,1-1.3,1.3C412.7,22.5,411.2,22.5,410,21.9z M412.9,20.5
	c0.3-0.2,0.5-0.4,0.7-0.7c0.3-0.6,0.3-1.4,0-2c-0.2-0.3-0.4-0.5-0.7-0.7c-0.3-0.2-0.6-0.2-0.9-0.2s-0.6,0.1-0.9,0.2
	c-0.3,0.2-0.5,0.4-0.7,0.7c-0.3,0.6-0.3,1.4,0,2c0.2,0.3,0.4,0.5,0.7,0.7c0.3,0.2,0.6,0.2,0.9,0.2C412.3,20.8,412.6,20.7,412.9,20.5
	z"/>
<path class="st13" d="M381.9,30.3c-0.4-0.1-0.9-0.3-1.3-0.5l0.6-1.4c0.3,0.2,0.7,0.4,1,0.5c0.4,0.1,0.8,0.2,1.2,0.2
	c0.7,0,1.1-0.2,1.1-0.5c0-0.2-0.1-0.4-0.3-0.4c-0.3-0.1-0.7-0.2-1-0.3c-0.4-0.1-0.9-0.2-1.3-0.4c-0.3-0.1-0.6-0.3-0.9-0.6
	c-0.3-0.3-0.4-0.7-0.4-1.1s0.1-0.8,0.3-1.1c0.2-0.4,0.6-0.6,1-0.8c0.5-0.2,1.1-0.3,1.7-0.3c0.4,0,0.9,0.1,1.3,0.1
	c0.4,0.1,0.8,0.2,1.1,0.4l-0.6,1.4c-0.6-0.3-1.2-0.5-1.9-0.5c-0.3,0-0.6,0-0.8,0.2c-0.2,0.1-0.3,0.3-0.3,0.4c0,0.2,0.1,0.4,0.3,0.4
	c0.3,0.1,0.7,0.2,1,0.3c0.4,0.1,0.9,0.2,1.3,0.4c0.3,0.1,0.6,0.3,0.9,0.6c0.3,0.3,0.4,0.7,0.4,1.1s-0.1,0.8-0.3,1.1
	c-0.3,0.3-0.6,0.6-1,0.8c-0.5,0.2-1.1,0.3-1.6,0.3C383,30.5,382.5,30.5,381.9,30.3z"/>
<path class="st13" d="M388.9,30.1c-0.6-0.3-1-0.7-1.3-1.3c-0.7-1.1-0.7-2.5,0-3.6c0.3-0.5,0.8-1,1.3-1.3c1.2-0.6,2.6-0.6,3.9,0
	c0.6,0.3,1,0.7,1.3,1.3c0.7,1.1,0.7,2.5,0,3.6c-0.3,0.5-0.8,1-1.3,1.3C391.6,30.7,390.1,30.7,388.9,30.1z M391.8,28.7
	c0.3-0.2,0.5-0.4,0.7-0.7c0.2-0.3,0.2-0.7,0.2-1s-0.1-0.7-0.2-1c-0.2-0.3-0.4-0.5-0.7-0.7c-0.3-0.2-0.6-0.2-0.9-0.2
	s-0.6,0.1-0.9,0.2c-0.3,0.2-0.5,0.4-0.7,0.7c-0.2,0.3-0.2,0.7-0.2,1s0.1,0.7,0.2,1c0.2,0.3,0.4,0.5,0.7,0.7c0.3,0.2,0.6,0.2,0.9,0.2
	C391.2,29,391.5,28.9,391.8,28.7L391.8,28.7z"/>
<path class="st13" d="M397.1,30.1c-0.6-0.3-1-0.7-1.3-1.2c-0.6-1.1-0.6-2.5,0-3.6c0.3-0.5,0.8-1,1.3-1.2c0.6-0.3,1.2-0.5,1.9-0.5
	c0.6,0,1.1,0.1,1.7,0.3c0.5,0.2,0.9,0.5,1.2,1l-1.2,1.1c-0.4-0.5-1-0.8-1.6-0.8c-0.3,0-0.7,0.1-1,0.2c-0.3,0.2-0.5,0.4-0.7,0.7
	c-0.2,0.3-0.2,0.7-0.2,1s0.1,0.7,0.2,1c0.2,0.3,0.4,0.5,0.7,0.7c0.3,0.2,0.7,0.2,1,0.2c0.6,0,1.2-0.3,1.6-0.8l1.2,1.1
	c-0.3,0.4-0.8,0.7-1.2,1c-0.5,0.2-1.1,0.3-1.7,0.3C398.3,30.5,397.7,30.4,397.1,30.1z"/>
<path class="st13" d="M402.8,23.6h1.9v6.8h-1.9V23.6z"/>
<path class="st13" d="M410.6,29.1h-2.9l-0.5,1.3h-2l3-6.8h1.9l3,6.8h-2L410.6,29.1z M410,27.7l-0.9-2.2l-0.9,2.2H410z"/>
<path class="st13" d="M413.7,23.6h1.9v5.3h3.2v1.5h-5.2v-6.8C413.6,23.6,413.7,23.6,413.7,23.6z"/>
<g>
	<path class="st13" d="M451.3,30.4c-0.2,0-0.3-0.1-0.5-0.2l0.2-0.4c0.1,0.1,0.3,0.2,0.4,0.2c0.2,0.1,0.3,0.1,0.5,0.1s0.3,0,0.5-0.1
		c0.1-0.1,0.1-0.1,0.2-0.2c0-0.1,0-0.2-0.1-0.2c-0.1-0.1-0.1-0.1-0.2-0.1l-0.3-0.1c-0.2,0-0.3-0.1-0.5-0.1c-0.1,0-0.2-0.1-0.3-0.2
		c-0.1-0.1-0.2-0.3-0.1-0.4c0-0.1,0-0.3,0.1-0.4s0.2-0.2,0.4-0.3c0.2-0.1,0.4-0.1,0.6-0.1s0.3,0,0.5,0.1c0.1,0,0.3,0.1,0.4,0.2
		l-0.2,0.4c-0.1-0.1-0.2-0.1-0.4-0.2c-0.1,0-0.3,0-0.4,0c-0.2,0-0.3,0-0.4,0.1s-0.1,0.2-0.1,0.3c0,0.1,0,0.1,0.1,0.2
		s0.1,0.1,0.2,0.1l0.3,0.1c0.2,0,0.3,0.1,0.5,0.1c0.1,0,0.2,0.1,0.3,0.2c0.1,0.1,0.1,0.3,0.1,0.4s0,0.3-0.1,0.4s-0.2,0.2-0.4,0.3
		c-0.2,0.1-0.4,0.1-0.6,0.1C451.7,30.5,451.5,30.5,451.3,30.4z"/>
	<path class="st13" d="M453.6,27.8h0.5v2.7h-0.5V27.8z"/>
	<path class="st13" d="M455.1,30.4c-0.2,0-0.3-0.1-0.5-0.2l0.2-0.4c0.1,0.1,0.3,0.2,0.4,0.2c0.2,0.1,0.3,0.1,0.5,0.1s0.3,0,0.5-0.1
		c0.1-0.1,0.1-0.1,0.2-0.2c0-0.1,0-0.2-0.1-0.2c-0.1-0.1-0.1-0.1-0.2-0.1l-0.3-0.1c-0.2,0-0.3-0.1-0.5-0.1c-0.1-0.1-0.2-0.1-0.3-0.2
		c-0.1-0.1-0.1-0.3-0.1-0.4s0-0.3,0.1-0.4s0.2-0.2,0.4-0.3c0.2-0.1,0.4-0.1,0.6-0.1s0.3,0,0.5,0.1c0.1,0,0.3,0.1,0.4,0.2l-0.2,0.4
		c-0.2-0.1-0.5-0.2-0.8-0.2c-0.2,0-0.3,0-0.4,0.1s-0.1,0.2-0.1,0.3c0,0.1,0,0.1,0.1,0.2s0.1,0.1,0.2,0.1l0.3,0.1
		c0.2,0,0.3,0.1,0.5,0.1c0.1,0,0.2,0.1,0.3,0.2c0.1,0.1,0.1,0.3,0.1,0.4s0,0.3-0.1,0.4s-0.2,0.2-0.4,0.3c-0.2,0.1-0.4,0.1-0.6,0.1
		C455.5,30.5,455.3,30.5,455.1,30.4z"/>
	<path class="st13" d="M458,28.2h-0.9v-0.4h2.3v0.4h-0.9v2.3H458V28.2z"/>
	<path class="st13" d="M461.9,30v0.4h-2v-2.7h2v0.4h-1.5v0.7h1.3v0.4h-1.3V30H461.9z"/>
	<path class="st13" d="M465,30.5v-1.8l-0.9,1.5h-0.2l-0.9-1.5v1.8h-0.5v-2.7h0.4l1.1,1.8l1-1.8h0.4v2.7H465z"/>
	<path class="st13" d="M468.1,29.8h-1.3l-0.3,0.6H466l1.2-2.7h0.5l1.2,2.7h-0.5L468.1,29.8z M467.9,29.5l-0.5-1.2l-0.5,1.2H467.9z"
		/>
	<path class="st13" d="M470.5,27.8h1.2c0.3,0,0.5,0.1,0.8,0.2c0.2,0.1,0.4,0.3,0.5,0.5s0.2,0.5,0.2,0.7s-0.1,0.5-0.2,0.7
		s-0.3,0.4-0.5,0.5s-0.5,0.2-0.8,0.2h-1.2V27.8z M471.6,30c0.2,0,0.4,0,0.5-0.1s0.3-0.2,0.3-0.3c0.1-0.2,0.1-0.3,0.1-0.5
		s0-0.3-0.1-0.5c-0.1-0.1-0.2-0.2-0.3-0.3c-0.2-0.1-0.3-0.1-0.5-0.1H471V30H471.6z"/>
	<path class="st13" d="M475.8,30v0.4h-2v-2.7h2v0.4h-1.5v0.7h1.3v0.4h-1.3V30H475.8z"/>
	<path class="st13" d="M477.9,30.4c-0.2,0-0.3-0.1-0.5-0.2l0.2-0.4c0.1,0.1,0.3,0.2,0.4,0.2c0.2,0.1,0.3,0.1,0.5,0.1s0.3,0,0.5-0.1
		c0.1-0.1,0.1-0.1,0.1-0.2s0-0.1-0.1-0.2s-0.1-0.1-0.2-0.1l-0.3-0.1c-0.2,0-0.3-0.1-0.5-0.1c-0.1,0-0.2-0.1-0.3-0.2
		c-0.1-0.1-0.1-0.3-0.1-0.4s0-0.3,0.1-0.4s0.2-0.2,0.4-0.3c0.2-0.1,0.4-0.1,0.6-0.1s0.3,0,0.5,0.1c0.1,0,0.3,0.1,0.4,0.2l-0.2,0.4
		c-0.2-0.1-0.5-0.2-0.8-0.2c-0.2,0-0.3,0-0.4,0.1s-0.1,0.2-0.1,0.3c0,0.1,0,0.1,0.1,0.2s0.1,0.1,0.2,0.1l0.3,0.1
		c0.2,0,0.3,0.1,0.5,0.1c0.1,0,0.2,0.1,0.3,0.2c0.1,0.1,0.1,0.3,0.1,0.4s0,0.3-0.1,0.4s-0.2,0.2-0.4,0.3c-0.2,0.1-0.4,0.1-0.6,0.1
		C478.3,30.5,478.1,30.5,477.9,30.4z"/>
	<path class="st13" d="M482.2,30v0.4h-2v-2.7h2v0.4h-1.5v0.7h1.3v0.4h-1.3V30H482.2z"/>
	<path class="st13" d="M484.6,30.5l-0.5-0.8h-0.7v0.8h-0.5v-2.7h1.1c0.2,0,0.4,0,0.6,0.1s0.3,0.2,0.4,0.3c0.2,0.3,0.2,0.7,0,1
		c-0.1,0.1-0.3,0.3-0.4,0.3l0.6,0.9L484.6,30.5z M484.4,28.3c-0.1-0.1-0.3-0.2-0.5-0.1h-0.6v1.1h0.6c0.2,0,0.4,0,0.5-0.1
		s0.2-0.2,0.2-0.4S484.6,28.4,484.4,28.3z"/>
	<path class="st13" d="M488.2,27.8l-1.2,2.7h-0.5l-1.2-2.7h0.5l0.9,2.1l0.9-2.1H488.2z"/>
	<path class="st13" d="M488.7,27.8h0.5v2.7h-0.5V27.8z"/>
	<path class="st13" d="M490,27.8h1.2c0.3,0,0.5,0.1,0.8,0.2c0.2,0.1,0.4,0.3,0.5,0.5s0.2,0.5,0.2,0.7s-0.1,0.5-0.2,0.7
		s-0.3,0.4-0.5,0.5s-0.5,0.2-0.8,0.2H490V27.8z M491.2,30c0.2,0,0.4,0,0.5-0.1s0.3-0.2,0.3-0.3c0.1-0.1,0.1-0.3,0.1-0.5
		s0-0.3-0.1-0.5c-0.1-0.1-0.2-0.2-0.3-0.3c-0.2-0.1-0.3-0.1-0.5-0.1h-0.7V30H491.2z"/>
	<path class="st13" d="M493.8,30.3c-0.2-0.1-0.4-0.3-0.5-0.5s-0.2-0.5-0.2-0.7c0-0.5,0.3-1,0.7-1.2c0.5-0.2,1-0.2,1.5,0
		c0.7,0.4,0.9,1.2,0.5,1.9c-0.1,0.2-0.3,0.4-0.5,0.5C494.9,30.6,494.3,30.6,493.8,30.3z M495.1,29.9c0.1-0.1,0.3-0.2,0.3-0.3
		c0.1-0.1,0.1-0.3,0.1-0.5s0-0.3-0.1-0.5c-0.1-0.1-0.2-0.3-0.3-0.3c-0.1-0.1-0.3-0.1-0.5-0.1s-0.3,0-0.5,0.1
		c-0.1,0.1-0.3,0.2-0.3,0.3c-0.1,0.2-0.1,0.3-0.1,0.5s0,0.3,0.1,0.5c0.1,0.1,0.2,0.3,0.3,0.3c0.2,0.1,0.3,0.1,0.5,0.1
		C494.7,30.1,494.9,30,495.1,29.9z"/>
	<path class="st13" d="M498.4,30.5l-0.6-0.8h-0.7v0.8h-0.5v-2.7h1.1c0.2,0,0.4,0,0.6,0.1s0.3,0.2,0.4,0.3c0.2,0.3,0.2,0.7,0,1
		c-0.1,0.1-0.3,0.3-0.4,0.3l0.6,0.9L498.4,30.5z M498.2,28.3c-0.1-0.1-0.3-0.2-0.5-0.1h-0.6v1.1h0.6c0.2,0,0.3,0,0.5-0.1
		c0.1-0.1,0.2-0.2,0.2-0.4C498.4,28.6,498.4,28.4,498.2,28.3z"/>
	<path class="st13" d="M501.6,30v0.4h-2v-2.7h2v0.4h-1.5v0.7h1.2v0.4H500V30H501.6z"/>
	<path class="st13" d="M502.5,30.4c-0.2,0-0.3-0.1-0.5-0.2l0.2-0.4c0.1,0.1,0.3,0.2,0.4,0.2c0.2,0.1,0.3,0.1,0.5,0.1s0.3,0,0.5-0.1
		c0.1-0.1,0.1-0.1,0.1-0.2s0-0.1-0.1-0.2s-0.1-0.1-0.2-0.1l-0.3-0.1c-0.2,0-0.3-0.1-0.5-0.1c-0.1,0-0.2-0.1-0.3-0.2
		c-0.1-0.1-0.1-0.3-0.1-0.4s0-0.3,0.1-0.4s0.2-0.2,0.4-0.3c0.2-0.1,0.4-0.1,0.6-0.1s0.3,0,0.5,0.1c0.1,0,0.3,0.1,0.4,0.2l-0.2,0.4
		c-0.2-0.1-0.5-0.2-0.8-0.2c-0.2,0-0.3,0-0.4,0.1s-0.2,0.2-0.2,0.3c0,0.1,0,0.1,0.1,0.2s0.1,0.1,0.2,0.1l0.3,0.1
		c0.2,0,0.3,0.1,0.5,0.1c0.1,0,0.2,0.1,0.3,0.2c0.1,0.1,0.1,0.3,0.1,0.4s0,0.3-0.1,0.4s-0.2,0.2-0.4,0.3c-0.2,0.1-0.4,0.1-0.6,0.1
		C502.9,30.5,502.7,30.5,502.5,30.4z"/>
	<path class="st13" d="M452.8,32.5c0.2,0.1,0.3,0.2,0.4,0.3c0.1,0.2,0.1,0.3,0.1,0.5s0,0.4-0.1,0.5s-0.2,0.3-0.4,0.3
		c-0.2,0.1-0.4,0.1-0.6,0.1h-0.6V35h-0.5v-2.7h1.1C452.4,32.4,452.6,32.4,452.8,32.5z M452.6,33.8c0.1-0.1,0.2-0.2,0.2-0.4
		s-0.1-0.3-0.2-0.4c-0.1-0.1-0.3-0.1-0.5-0.1h-0.6V34h0.6C452.3,33.9,452.5,33.9,452.6,33.8z"/>
	<path class="st13" d="M454.2,34.8c-0.2-0.2-0.3-0.6-0.3-0.9v-1.5h0.5v1.5c0,0.5,0.2,0.8,0.7,0.8s0.7-0.3,0.7-0.8v-1.5h0.5v1.5
		c0,0.3-0.1,0.7-0.3,0.9C455.5,35.3,454.7,35.3,454.2,34.8z M455.3,31.7h0.6l-0.7,0.5h-0.4L455.3,31.7z"/>
	<path class="st13" d="M459.4,33.9c0.1,0.1,0.1,0.3,0.1,0.4c0,0.2-0.1,0.4-0.3,0.5c-0.2,0.1-0.5,0.2-0.8,0.2h-1.3v-2.7h1.3
		c0.3,0,0.5,0,0.7,0.2c0.2,0.1,0.3,0.3,0.3,0.5c0,0.1,0,0.3-0.1,0.4c-0.1,0.1-0.1,0.2-0.2,0.2C459.2,33.7,459.3,33.8,459.4,33.9z
		 M457.6,32.8v0.8h0.7c0.1,0,0.3,0,0.4-0.1s0.1-0.2,0.1-0.3s0-0.2-0.1-0.3s-0.3-0.1-0.4-0.1C458.3,32.8,457.6,32.8,457.6,32.8z
		 M459,34.3c0-0.3-0.2-0.4-0.6-0.4h-0.8v0.8h0.8C458.8,34.7,459,34.6,459,34.3L459,34.3z"/>
	<path class="st13" d="M460.1,32.4h0.5v2.3h1.4v0.4h-1.9V32.4z"/>
	<path class="st13" d="M462.5,32.4h0.5v2.7h-0.5V32.4z"/>
	<path class="st13" d="M464.4,35c-0.2-0.1-0.4-0.3-0.5-0.5c-0.3-0.4-0.3-1,0-1.4c0.1-0.2,0.3-0.4,0.5-0.5c0.4-0.2,0.9-0.2,1.3-0.1
		c0.2,0.1,0.3,0.2,0.5,0.3l-0.3,0.3c-0.2-0.2-0.5-0.3-0.7-0.3s-0.3,0-0.5,0.1c-0.1,0.1-0.3,0.2-0.3,0.3c-0.1,0.2-0.1,0.3-0.1,0.5
		s0,0.3,0.1,0.5c0.1,0.1,0.2,0.3,0.3,0.3c0.2,0.1,0.3,0.1,0.5,0.1c0.3,0,0.5-0.1,0.7-0.3l0.3,0.3c-0.1,0.1-0.3,0.3-0.5,0.3
		C465.3,35.3,464.8,35.2,464.4,35z"/>
	<path class="st13" d="M467.3,35c-0.2-0.1-0.4-0.3-0.5-0.5s-0.2-0.5-0.2-0.7c0-0.5,0.3-1,0.7-1.2c0.5-0.2,1-0.2,1.5,0
		c0.4,0.2,0.7,0.7,0.7,1.2c0,0.3-0.1,0.5-0.2,0.7s-0.3,0.4-0.5,0.5C468.3,35.3,467.8,35.3,467.3,35z M468.5,34.6
		c0.1-0.1,0.3-0.2,0.3-0.3c0.1-0.1,0.1-0.3,0.1-0.5s0-0.3-0.1-0.5c-0.1-0.1-0.2-0.3-0.3-0.3c-0.2-0.1-0.3-0.1-0.5-0.1
		s-0.3,0-0.5,0.1c-0.1,0.1-0.3,0.2-0.3,0.3c-0.1,0.1-0.1,0.3-0.1,0.5s0,0.3,0.1,0.5c0.1,0.1,0.2,0.3,0.3,0.3
		c0.1,0.1,0.3,0.1,0.5,0.1C468.2,34.7,468.4,34.7,468.5,34.6L468.5,34.6z"/>
	<path class="st13" d="M470.4,35.1c-0.2,0-0.3-0.1-0.5-0.2l0.2-0.4c0.1,0.1,0.3,0.2,0.4,0.2c0.2,0.1,0.3,0.1,0.5,0.1s0.3,0,0.5-0.1
		c0.1-0.1,0.1-0.1,0.2-0.2c0-0.1,0-0.1-0.1-0.2c-0.1-0.1-0.1-0.1-0.2-0.1l-0.3-0.1c-0.2,0-0.3-0.1-0.5-0.1c-0.1,0-0.2-0.1-0.3-0.2
		c-0.1-0.1-0.1-0.3-0.1-0.4c0-0.1,0-0.3,0.1-0.4c0.1-0.1,0.2-0.2,0.4-0.3c0.2-0.1,0.4-0.1,0.6-0.1s0.3,0,0.5,0.1
		c0.1,0,0.3,0.1,0.4,0.2l-0.2,0.4c-0.1-0.1-0.2-0.1-0.4-0.2c-0.1,0-0.2,0-0.4,0c-0.2,0-0.3,0-0.4,0.1s-0.1,0.2-0.2,0.3
		c0,0.1,0,0.1,0.1,0.2c0.1,0,0.1,0.1,0.2,0.1l0.3,0.1c0.2,0,0.3,0.1,0.5,0.1c0.1,0,0.2,0.1,0.3,0.2c0.1,0.1,0.1,0.3,0.1,0.4
		c0,0.1,0,0.3-0.1,0.4c-0.1,0.1-0.2,0.2-0.4,0.3c-0.2,0.1-0.4,0.1-0.6,0.1C470.8,35.2,470.6,35.1,470.4,35.1z"/>
	<path class="st13" d="M474.1,35.1c-0.2,0-0.3-0.1-0.5-0.2l0.2-0.4c0.1,0.1,0.3,0.2,0.4,0.2c0.2,0.1,0.3,0.1,0.5,0.1s0.3,0,0.5-0.1
		c0.1-0.1,0.1-0.1,0.1-0.2c0-0.1,0-0.1-0.1-0.2c-0.1-0.1-0.1-0.1-0.2-0.1l-0.3-0.1c-0.2,0-0.3-0.1-0.5-0.1c-0.1,0-0.2-0.1-0.3-0.2
		c-0.1-0.1-0.1-0.3-0.1-0.4c0-0.1,0-0.3,0.1-0.4c0.1-0.1,0.2-0.2,0.4-0.3c0.2-0.1,0.4-0.1,0.6-0.1s0.3,0,0.5,0.1
		c0.1,0,0.3,0.1,0.4,0.2l-0.2,0.4c-0.2-0.1-0.5-0.2-0.8-0.2c-0.2,0-0.3,0-0.4,0.1s-0.1,0.2-0.2,0.3c0,0.1,0,0.1,0.1,0.2
		c0.1,0,0.1,0.1,0.2,0.1l0.3,0.1c0.2,0,0.3,0.1,0.5,0.1c0.1,0,0.2,0.1,0.3,0.2c0.1,0.1,0.1,0.3,0.1,0.4c0,0.1,0,0.3-0.1,0.4
		c-0.1,0.1-0.2,0.2-0.4,0.3c-0.2,0.1-0.4,0.1-0.6,0.1C474.5,35.2,474.3,35.1,474.1,35.1z"/>
	<path class="st13" d="M478.1,34.5h-1.3l-0.3,0.6H476l1.2-2.7h0.5l1.2,2.7h-0.5L478.1,34.5z M478,34.1l-0.5-1.2l-0.5,1.2H478z"/>
	<path class="st13" d="M481.8,32.4v2.7h-0.4l-1.5-1.8v1.8h-0.5v-2.7h0.4l1.5,1.8v-1.8H481.8z"/>
	<path class="st13" d="M485.1,32.4h0.5v2.7h-0.5V32.4z"/>
	<path class="st13" d="M487,35c-0.2-0.1-0.4-0.3-0.5-0.5s-0.2-0.5-0.2-0.7s0.1-0.5,0.2-0.7s0.3-0.4,0.5-0.5s0.5-0.2,0.8-0.2
		s0.5,0.1,0.8,0.2c0.2,0.1,0.4,0.3,0.5,0.5c0.3,0.4,0.3,1,0,1.4c-0.1,0.2-0.3,0.4-0.5,0.5s-0.5,0.2-0.8,0.2
		C487.4,35.2,487.2,35.1,487,35z M488.2,34.6c0.1-0.1,0.3-0.2,0.3-0.3c0.1-0.2,0.1-0.3,0.1-0.5s0-0.3-0.1-0.5
		c-0.1-0.1-0.2-0.3-0.3-0.3c-0.3-0.2-0.7-0.2-1,0c-0.1,0.1-0.3,0.2-0.3,0.3c-0.1,0.2-0.1,0.3-0.1,0.5s0,0.3,0.1,0.5
		c0.1,0.1,0.2,0.3,0.3,0.3C487.5,34.8,487.9,34.8,488.2,34.6z"/>
	<path class="st13" d="M492.2,32.4v2.7h-0.4l-1.5-1.8v1.8h-0.5v-2.7h0.4l1.5,1.8v-1.8H492.2z"/>
	<path class="st13" d="M494.8,34.5h-1.3l-0.3,0.6h-0.5l1.2-2.7h0.5l1.2,2.7H495L494.8,34.5z M494.6,34.1l-0.5-1.2l-0.5,1.2H494.6z"
		/>
	<path class="st13" d="M496,32.4h1.2c0.3,0,0.5,0.1,0.8,0.2c0.2,0.1,0.4,0.3,0.5,0.5s0.2,0.5,0.2,0.7c0,0.3-0.1,0.5-0.2,0.7
		s-0.3,0.4-0.5,0.5s-0.5,0.2-0.8,0.2H496V32.4z M497.2,34.7c0.2,0,0.4,0,0.5-0.1s0.3-0.2,0.3-0.3c0.1-0.2,0.1-0.3,0.1-0.5
		s0-0.3-0.1-0.5c-0.1-0.1-0.2-0.2-0.3-0.3c-0.2-0.1-0.3-0.1-0.5-0.1h-0.7v1.9L497.2,34.7z"/>
	<path class="st13" d="M499.8,35c-0.2-0.1-0.4-0.3-0.5-0.5s-0.2-0.5-0.2-0.7c0-0.5,0.3-1,0.7-1.2c0.5-0.2,1-0.2,1.5,0
		c0.4,0.2,0.7,0.7,0.7,1.2c0,0.3-0.1,0.5-0.2,0.7s-0.3,0.4-0.5,0.5C500.9,35.3,500.3,35.3,499.8,35z M501.1,34.6
		c0.1-0.1,0.3-0.2,0.3-0.3c0.1-0.1,0.1-0.3,0.1-0.5s0-0.3-0.1-0.5c-0.1-0.1-0.2-0.3-0.3-0.3c-0.2-0.1-0.3-0.1-0.5-0.1
		s-0.3,0-0.5,0.1c-0.1,0.1-0.3,0.2-0.3,0.3c-0.1,0.1-0.1,0.3-0.1,0.5s0,0.3,0.1,0.5c0.1,0.1,0.2,0.3,0.3,0.3
		c0.1,0.1,0.3,0.1,0.5,0.1C500.7,34.7,500.9,34.7,501.1,34.6L501.1,34.6z"/>
	<path class="st13" d="M502.9,35.1c-0.2,0-0.3-0.1-0.5-0.2l0.2-0.4c0.1,0.1,0.3,0.2,0.4,0.2c0.2,0.1,0.3,0.1,0.5,0.1s0.3,0,0.5-0.1
		c0.1-0.1,0.1-0.1,0.2-0.2c0-0.1,0-0.1-0.1-0.2c-0.1-0.1-0.1-0.1-0.2-0.1l-0.3-0.1c-0.2,0-0.3-0.1-0.5-0.1c-0.1,0-0.2-0.1-0.3-0.2
		c-0.1-0.1-0.1-0.3-0.1-0.4c0-0.1,0-0.3,0.1-0.4c0.1-0.1,0.2-0.2,0.4-0.3c0.2-0.1,0.4-0.1,0.6-0.1s0.3,0,0.5,0.1
		c0.1,0,0.3,0.1,0.4,0.2l-0.1,0.4c-0.1-0.1-0.2-0.1-0.4-0.2c-0.1,0-0.2,0-0.4,0c-0.2,0-0.3,0-0.4,0.1s-0.1,0.2-0.2,0.3
		c0,0.1,0,0.1,0.1,0.2c0.1,0,0.1,0.1,0.2,0.1l0.3,0.1c0.2,0,0.3,0.1,0.5,0.1c0.1,0,0.2,0.1,0.3,0.2c0.1,0.1,0.1,0.3,0.1,0.4
		c0,0.1,0,0.3-0.1,0.4c-0.1,0.1-0.2,0.2-0.4,0.3c-0.2,0.1-0.4,0.1-0.6,0.1C503.3,35.2,503.1,35.1,502.9,35.1z"/>
	<polygon class="st13" points="502,40.4 479.3,40.4 477.3,38.5 475.4,40.4 452.7,40.4 452.7,40.8 475.4,40.8 477.3,42.7 479.3,40.8 
		502,40.8 	"/>
	
		<linearGradient id="SVGID_1_" gradientUnits="userSpaceOnUse" x1="703.8199" y1="-3016.8442" x2="727.8199" y2="-3016.8442" gradientTransform="matrix(1 0 0 -1 -239.62 -3005.344)">
		<stop  offset="0" style="stop-color:#26A9AB"/>
		<stop  offset="1" style="stop-color:#197EAC"/>
	</linearGradient>
	<path class="st14" d="M471.8,22.5L471.8,22.5V20c0-1.1,0-1.7,0.5-2c0.2-0.1,0.4-0.2,0.7-0.3h8.9c1.6-0.1,2.9-1.5,2.8-3.1
		c-0.1-1.5-1.3-2.7-2.8-2.8h-8.5c-1.1-0.2-1.8-1.3-1.6-2.4c0.2-0.8,0.8-1.4,1.6-1.6h8.5c2.7,0,5.2,1.7,6.3,4.2v-0.1
		c0-6.6-5.4-12-12-12s-12,5.4-12,12c0,4.9,3,9.4,7.6,11.2V22.5z M466.2,9.9c0-3.8,3.1-6.9,6.9-6.9h8.5c1.1-0.2,2.1,0.5,2.4,1.6
		s-0.5,2.1-1.6,2.4c-0.3,0.1-0.5,0.1-0.8,0h-8.5c-1.6,0-2.9,1.3-2.9,2.9s1.3,2.9,2.9,2.9h8.5c1.1,0.2,1.8,1.3,1.6,2.4
		c-0.2,0.8-0.8,1.4-1.6,1.6h-8.5C469.3,16.7,466.2,13.6,466.2,9.9z"/>
	
		<linearGradient id="SVGID_2_" gradientUnits="userSpaceOnUse" x1="715.34" y1="-3028.0442" x2="723.18" y2="-3028.0442" gradientTransform="matrix(1 0 0 -1 -239.62 -3005.344)">
		<stop  offset="0" style="stop-color:#26A9AB"/>
		<stop  offset="1" style="stop-color:#197EAC"/>
	</linearGradient>
	<path class="st15" d="M481.9,21.7h-6.1V24h0.4c2.7,0,5.3-0.9,7.4-2.6C483,21.6,482.4,21.7,481.9,21.7z"/>
	<path class="st13" d="M482.8,35c-0.2-0.1-0.4-0.3-0.5-0.5c-0.3-0.4-0.3-1,0-1.4c0.1-0.2,0.3-0.4,0.5-0.5c0.4-0.2,0.9-0.2,1.3-0.1
		c0.2,0.1,0.3,0.2,0.5,0.3l-0.3,0.3c-0.2-0.2-0.5-0.3-0.7-0.3s-0.3,0-0.5,0.1c-0.1,0.1-0.3,0.2-0.3,0.3c-0.1,0.2-0.1,0.3-0.1,0.5
		s0,0.3,0.1,0.5c0.1,0.1,0.2,0.3,0.3,0.3c0.2,0.1,0.3,0.1,0.5,0.1c0.3,0,0.5-0.1,0.7-0.3l0.3,0.3c-0.1,0.1-0.3,0.3-0.5,0.3
		C483.7,35.3,483.2,35.2,482.8,35z"/>
</g>
<g class="st16">
	<path class="st13" d="M176.6,12.8c0-1.4,1.5-2.4,3.2-2.4c0.9,0,1.8,0.2,2.4,0.6l0.2,0.3c-0.1,0.5-0.3,1.4-0.4,1.6
		c-0.3,0-0.9,0-1.2-0.1c-0.1-0.6-0.2-1-0.3-1.3c-0.3-0.2-0.6-0.3-1-0.3c-0.3,0-0.7,0.1-0.8,0.2c-0.1,0.2-0.2,0.4-0.2,0.7
		c0,1.8,4,1.2,4,3.9c0,1.3-1.3,2.2-3.1,2.2c-1.3,0-2.3-0.3-2.9-0.7c0-0.6,0-1.2,0-1.8c0.3-0.1,1-0.1,1.3-0.1c0.1,0.6,0.2,1,0.4,1.3
		c0.2,0.2,0.7,0.3,1.2,0.3c0.4,0,0.7-0.1,0.9-0.1c0.1-0.2,0.3-0.4,0.3-0.8C180.6,15.1,176.6,15.5,176.6,12.8z"/>
	<path class="st13" d="M187.2,18.3h-3.4l-0.1-0.7l0.9-0.4c0.6-1.3,1.5-3.4,2.2-5.4l0.4-1.1c0.3-0.1,1.4-0.2,2-0.2
		c0.1,0.3,0.2,0.8,0.4,1.3c0.8,2,1.7,4.4,2.2,5.4l1,0.4l-0.1,0.7h-3.8l-0.1-0.7l1-0.3c-0.1-0.4-0.3-0.8-0.5-1.3l-2.7,0.1
		c-0.1,0.4-0.2,0.8-0.4,1.2l1.2,0.4L187.2,18.3z M188.9,15c-0.3-0.9-0.7-1.9-1-2.8c-0.3,0.9-0.7,1.8-1,2.8L188.9,15z"/>
	<path class="st13" d="M194.3,11.8c-0.2-0.2-0.6-0.3-0.9-0.5l0.1-0.7c0.8,0,1.8,0,2.5,0c0.6,1.2,2.4,3.3,3.7,4.8
		c0-2.1-0.1-3.4-0.2-3.6c-0.1-0.2-0.7-0.3-1.1-0.5l0.1-0.7h3.4l0.1,0.7l-1,0.3c-0.1,0.6-0.2,3.1-0.2,6.5l-1.5,0.1l-1-1.4
		c-0.8-1.1-1.8-2.3-2.7-3.4c0,2,0.1,3.4,0.2,3.6c0.1,0.2,0.8,0.3,1.3,0.5l-0.1,0.7h-3.5l-0.1-0.7l1-0.3c0-0.3,0.1-1.3,0.1-2.9
		C194.5,12.9,194.4,12,194.3,11.8z"/>
	<path class="st13" d="M207.8,17c0.1-0.2,0.3-0.7,0.4-1.3c0.3,0,1,0,1.3,0.1c0,0.5,0,1.2,0,1.6l-0.2,0.3c-0.6,0.4-1.7,0.8-2.9,0.8
		c-2.5,0-4.1-1.5-4.1-3.9c0-2.5,2-4.1,4.3-4.1c1.1,0,2,0.3,2.8,0.7l0.2,0.3c-0.1,0.6-0.3,1.4-0.4,2c-0.3,0-0.9,0-1.2-0.1
		c-0.1-0.6-0.2-1.2-0.4-1.4c-0.2-0.2-0.7-0.3-1.3-0.3c-0.5,0-0.9,0.1-1.2,0.3c-0.5,0.6-0.8,1.5-0.8,2.6c0,1.7,0.8,2.8,2.3,2.8
		C207.2,17.2,207.5,17.1,207.8,17z"/>
	<path class="st13" d="M211.7,17.3c0-0.3,0.1-1,0.1-1.9v-1.9c0-0.6,0-1.5-0.2-1.7c-0.1-0.2-0.6-0.4-0.9-0.5l0.1-0.7h3.7l0.1,0.7
		l-1,0.3c0,0.3-0.1,1-0.1,1.9v1.9c0,0.6,0,1.5,0.2,1.7c0.1,0.2,0.6,0.4,0.9,0.5l-0.1,0.7h-3.7l-0.1-0.7L211.7,17.3z"/>
	<path class="st13" d="M215.7,14.7c0-2.5,2-4.2,4.3-4.2c2.3,0,3.9,1.4,3.9,3.8c0,2.5-1.9,4.2-4.2,4.2
		C217.3,18.5,215.7,17,215.7,14.7z M221.2,16.9c0.2-0.4,0.5-1.2,0.5-2.2c0-1.9-0.6-3-2-3c-0.5,0-0.9,0.1-1.2,0.3
		c-0.4,0.6-0.7,1.5-0.7,2.5c0,1.8,0.8,2.9,2.1,2.9C220.5,17.3,220.9,17.2,221.2,16.9z"/>
	<path class="st13" d="M225.4,11.8c-0.2-0.2-0.6-0.3-0.9-0.5l0.1-0.7c0.8,0,1.8,0,2.5,0c0.6,1.2,2.4,3.3,3.7,4.8
		c0-2.1-0.1-3.4-0.2-3.6c-0.1-0.2-0.7-0.3-1.1-0.5l0.1-0.7h3.4l0.1,0.7l-1,0.3c-0.1,0.6-0.2,3.1-0.2,6.5l-1.5,0.1l-1-1.4
		c-0.8-1.1-1.8-2.3-2.7-3.4c0,2,0.1,3.4,0.2,3.6c0.1,0.2,0.8,0.3,1.3,0.5l-0.1,0.7h-3.5l-0.1-0.7l1-0.3c0-0.3,0.1-1.3,0.1-2.9
		C225.6,12.9,225.5,12,225.4,11.8z"/>
	<path class="st13" d="M237.1,18.3h-3.4l-0.1-0.7l0.9-0.4c0.6-1.3,1.5-3.4,2.2-5.4l0.4-1.1c0.3-0.1,1.4-0.2,2-0.2
		c0.1,0.3,0.2,0.8,0.4,1.3c0.8,2,1.7,4.4,2.2,5.4l1,0.4l-0.1,0.7h-3.8l-0.1-0.7l1-0.3c-0.1-0.4-0.3-0.8-0.5-1.3l-2.7,0.1
		c-0.1,0.4-0.2,0.8-0.4,1.2l1.2,0.4L237.1,18.3z M238.7,15c-0.3-0.9-0.7-1.9-1-2.8c-0.3,0.9-0.7,1.8-1,2.8L238.7,15z"/>
	<path class="st13" d="M244.4,17.3c0-0.3,0.1-1,0.1-1.9v-1.9c0-0.6,0-1.5-0.2-1.7c-0.1-0.2-0.6-0.4-0.9-0.5l0.1-0.7h1.7
		c0.4,0,1.6-0.1,2.2-0.1c3.2,0,4.2,1.8,4.2,3.8c0,2.7-1.8,4-3.9,4c-0.7,0-1.7-0.1-2.4-0.1h-1.8l-0.1-0.7L244.4,17.3z M246.6,17.2
		c0.2,0.2,1.1,0.3,1.8,0.1c0.8-0.4,1.3-1.5,1.3-2.9c0-1.2-0.4-2.1-0.9-2.5c-0.4-0.2-0.9-0.3-1.5-0.3c-0.3,0-0.6,0-0.9,0.1
		c0,0.3-0.1,1-0.1,1.9v1.9C246.4,16,246.4,17,246.6,17.2C246.6,17.2,246.6,17.2,246.6,17.2z"/>
	<path class="st13" d="M252.3,14.7c0-2.5,2-4.2,4.3-4.2c2.3,0,3.9,1.4,3.9,3.8c0,2.5-1.9,4.2-4.2,4.2
		C253.9,18.5,252.3,17,252.3,14.7z M257.9,16.9c0.2-0.4,0.5-1.2,0.5-2.2c0-1.9-0.6-3-2-3c-0.5,0-0.9,0.1-1.2,0.3
		c-0.4,0.6-0.7,1.5-0.7,2.5c0,1.8,0.8,2.9,2.1,2.9C257.1,17.3,257.6,17.2,257.9,16.9z"/>
	<path class="st13" d="M261.5,12.8c0-1.4,1.5-2.4,3.2-2.4c0.9,0,1.8,0.2,2.4,0.6l0.2,0.3c-0.1,0.5-0.3,1.4-0.4,1.6
		c-0.3,0-0.9,0-1.2-0.1c-0.1-0.6-0.2-1-0.3-1.3c-0.3-0.2-0.6-0.3-1-0.3c-0.3,0-0.7,0.1-0.8,0.2c-0.1,0.2-0.2,0.4-0.2,0.7
		c0,1.8,4,1.2,4,3.9c0,1.3-1.3,2.2-3.1,2.2c-1.3,0-2.3-0.3-2.9-0.7c0-0.6,0-1.2,0-1.8c0.3-0.1,1-0.1,1.3-0.1c0.1,0.6,0.2,1,0.4,1.3
		c0.2,0.2,0.7,0.3,1.2,0.3c0.4,0,0.7-0.1,0.9-0.1c0.1-0.2,0.3-0.4,0.3-0.8C265.5,15.1,261.5,15.5,261.5,12.8z"/>
</g>
</svg>
