<svg id="Layer_1" data-name="Layer 1" xmlns="http://www.w3.org/2000/svg" xmlns:xlink="http://www.w3.org/1999/xlink" viewBox="0 0 504.6 42.73"><defs><style>.cls-1{fill:#9c254c;}.cls-2{fill:#ac8b51;}.cls-3{fill:#a50a42;}.cls-4{fill:none;stroke:#df352d;stroke-miterlimit:10;stroke-width:0.12px;}.cls-5{fill:#e34f63;}.cls-6{fill:#27aca4;}.cls-7{fill:#5c77b7;}.cls-8{fill:#63b00a;}.cls-9{fill:#1f95da;}.cls-10{fill:#8c4193;}.cls-11{fill:#f4c72b;}.cls-12{fill:#eb8800;}.cls-13{fill:#727171;}.cls-14{fill:#cd223a;}.cls-15{fill:url(#linear-gradient);}.cls-16{fill:url(#linear-gradient-2);}</style><linearGradient id="linear-gradient" x1="703.78" y1="271.57" x2="727.78" y2="271.57" gradientUnits="userSpaceOnUse"><stop offset="0" stop-color="#26a9ab"/><stop offset="1" stop-color="#197eac"/></linearGradient><linearGradient id="linear-gradient-2" x1="715.34" y1="282.71" x2="723.18" y2="282.71" xlink:href="#linear-gradient"/></defs><path class="cls-1" d="M416.3,273.11c0-1.43,1.52-2.41,3.25-2.41a4.89,4.89,0,0,1,2.45.63l.19.33a16,16,0,0,1-.38,1.65c-.26,0-.92,0-1.2-.05a6,6,0,0,0-.28-1.28,1.6,1.6,0,0,0-1-.29,2.14,2.14,0,0,0-.82.16,1.39,1.39,0,0,0-.19.75c0,1.86,4,1.25,4,4,0,1.31-1.28,2.2-3.1,2.2a5.34,5.34,0,0,1-2.9-.67,17.47,17.47,0,0,1,0-1.78,6.14,6.14,0,0,1,1.28-.06,7.18,7.18,0,0,0,.36,1.27,2.69,2.69,0,0,0,2,.11,1.2,1.2,0,0,0,.26-.81C420.28,275.37,416.3,275.79,416.3,273.11Z" transform="translate(-239.62 -259.99)"/><path class="cls-1" d="M427,278.57h-3.46l-.14-.67.91-.43c.65-1.33,1.48-3.41,2.25-5.41l.37-1.07a9.92,9.92,0,0,1,2-.19,9.82,9.82,0,0,0,.4,1.26c.8,2,1.7,4.44,2.17,5.46l1,.38-.14.67h-3.78l-.15-.67,1-.34c-.13-.38-.28-.84-.46-1.34l-2.72.07c-.13.41-.25.81-.36,1.18l1.25.43Zm1.64-3.31c-.32-.9-.68-1.89-1-2.83-.34.85-.68,1.83-1,2.78Z" transform="translate(-239.62 -259.99)"/><path class="cls-1" d="M434.06,272a3.08,3.08,0,0,0-.89-.47l.14-.68c.8,0,1.77,0,2.5,0a41.55,41.55,0,0,0,3.67,4.85,16.82,16.82,0,0,0-.24-3.66,3.24,3.24,0,0,0-1.13-.47l.14-.68h3.39l.15.68-1,.34a59.78,59.78,0,0,0-.2,6.57l-1.48.14-1-1.44c-.79-1.07-1.82-2.35-2.69-3.39a24.69,24.69,0,0,0,.21,3.64,3.79,3.79,0,0,0,1.28.47l-.15.67h-3.5l-.14-.67,1-.34c0-.28.09-1.26.09-2.88A9.64,9.64,0,0,0,434.06,272Z" transform="translate(-239.62 -259.99)"/><path class="cls-1" d="M442.66,273.11c0-1.43,1.52-2.41,3.25-2.41a4.89,4.89,0,0,1,2.45.63l.19.33a16,16,0,0,1-.38,1.65c-.26,0-.92,0-1.2-.05a6,6,0,0,0-.28-1.28,1.62,1.62,0,0,0-1-.29,2.14,2.14,0,0,0-.82.16,1.39,1.39,0,0,0-.19.75c0,1.86,4,1.25,4,4,0,1.31-1.28,2.2-3.1,2.2a5.34,5.34,0,0,1-2.9-.67,17.47,17.47,0,0,1,.05-1.78,6.07,6.07,0,0,1,1.27-.06,8,8,0,0,0,.37,1.27,2.19,2.19,0,0,0,1.19.26,2.23,2.23,0,0,0,.85-.15,1.2,1.2,0,0,0,.26-.81C446.64,275.37,442.66,275.79,442.66,273.11Z" transform="translate(-239.62 -259.99)"/><path class="cls-1" d="M451,277.56a13.93,13.93,0,0,0,.1-1.87v-1.92a5.87,5.87,0,0,0-.16-1.73,2,2,0,0,0-.9-.47l.15-.68h3.74l.14.68-1,.33a16.92,16.92,0,0,0-.09,1.87v1.92a5.91,5.91,0,0,0,.16,1.74,2.16,2.16,0,0,0,.89.47l-.14.67h-3.74l-.15-.67Z" transform="translate(-239.62 -259.99)"/><path class="cls-1" d="M454.94,275a4.2,4.2,0,0,1,4.27-4.26,3.61,3.61,0,0,1,3.88,3.8,4.12,4.12,0,0,1-4.18,4.26A3.65,3.65,0,0,1,454.94,275Zm5.56,2.22a4.89,4.89,0,0,0,.47-2.24c0-1.91-.57-3.06-2-3.06a2.15,2.15,0,0,0-1.23.35,4.45,4.45,0,0,0-.67,2.5c0,1.78.79,2.88,2.11,2.88A1.94,1.94,0,0,0,460.5,277.18Z" transform="translate(-239.62 -259.99)"/><path class="cls-1" d="M464.7,272a3.08,3.08,0,0,0-.89-.47l.14-.68c.8,0,1.77,0,2.5,0a41.55,41.55,0,0,0,3.67,4.85,16.82,16.82,0,0,0-.24-3.66,3.24,3.24,0,0,0-1.13-.47l.14-.68h3.39l.15.68-1,.34a59.78,59.78,0,0,0-.2,6.57l-1.48.14-1-1.44c-.79-1.07-1.82-2.35-2.69-3.39a24.69,24.69,0,0,0,.21,3.64,3.88,3.88,0,0,0,1.28.47l-.15.67H464l-.14-.67,1-.34c0-.28.09-1.26.09-2.88A9.64,9.64,0,0,0,464.7,272Z" transform="translate(-239.62 -259.99)"/><path class="cls-1" d="M476.41,278.57H473l-.14-.67.91-.43c.66-1.33,1.48-3.41,2.26-5.41l.36-1.07a10,10,0,0,1,2-.19,9.6,9.6,0,0,0,.39,1.26c.81,2,1.71,4.44,2.17,5.46l1,.38-.15.67H478l-.14-.67,1-.34c-.14-.38-.29-.84-.46-1.34l-2.73.07c-.12.41-.25.81-.35,1.18l1.24.43Zm1.64-3.31c-.32-.9-.67-1.89-1.05-2.83-.33.85-.68,1.83-1,2.78Z" transform="translate(-239.62 -259.99)"/><path class="cls-1" d="M483.78,277.56a13.93,13.93,0,0,0,.1-1.87v-1.92a5.49,5.49,0,0,0-.17-1.73,1.94,1.94,0,0,0-.89-.47l.15-.68h1.71c.41,0,1.64-.06,2.2-.06,3.18,0,4.25,1.76,4.25,3.84a3.74,3.74,0,0,1-3.91,4c-.7,0-1.75-.1-2.46-.1H483l-.15-.67Zm2.25-.05a2.44,2.44,0,0,0,1.78.05,3.05,3.05,0,0,0,1.3-2.89,3.36,3.36,0,0,0-.87-2.48,2.87,2.87,0,0,0-1.46-.34,5.84,5.84,0,0,0-.89.06,17,17,0,0,0-.09,1.86v1.92a5.91,5.91,0,0,0,.16,1.74Z" transform="translate(-239.62 -259.99)"/><path class="cls-1" d="M491.76,275A4.2,4.2,0,0,1,496,270.7a3.61,3.61,0,0,1,3.88,3.8,4.12,4.12,0,0,1-4.18,4.26A3.65,3.65,0,0,1,491.76,275Zm5.57,2.22a4.89,4.89,0,0,0,.47-2.24c0-1.91-.58-3.06-2-3.06a2.15,2.15,0,0,0-1.23.35,4.45,4.45,0,0,0-.67,2.5c0,1.78.79,2.88,2.11,2.88A2,2,0,0,0,497.33,277.18Z" transform="translate(-239.62 -259.99)"/><path class="cls-1" d="M501,273.11c0-1.43,1.52-2.41,3.26-2.41a4.85,4.85,0,0,1,2.44.63l.2.33c-.09.49-.3,1.38-.39,1.65-.26,0-.92,0-1.2-.05a5.42,5.42,0,0,0-.28-1.28,1.59,1.59,0,0,0-1-.29,2.15,2.15,0,0,0-.83.16,1.48,1.48,0,0,0-.19.75c0,1.86,4,1.25,4,4,0,1.31-1.28,2.2-3.1,2.2a5.39,5.39,0,0,1-2.9-.67,17.47,17.47,0,0,1,.05-1.78,6.14,6.14,0,0,1,1.28-.06,8.16,8.16,0,0,0,.36,1.27,2.19,2.19,0,0,0,1.19.26,2.29,2.29,0,0,0,.86-.15,1.26,1.26,0,0,0,.26-.81C505,275.37,501,275.79,501,273.11Z" transform="translate(-239.62 -259.99)"/><path class="cls-2" d="M418,286.14a2,2,0,0,1-.64-.33l.24-.55a2.19,2.19,0,0,0,.57.3,2,2,0,0,0,.68.12,1.18,1.18,0,0,0,.63-.14.41.41,0,0,0,.21-.36.34.34,0,0,0-.12-.26.74.74,0,0,0-.29-.17l-.49-.13a5.57,5.57,0,0,1-.7-.21,1.13,1.13,0,0,1-.46-.32.85.85,0,0,1-.19-.59,1,1,0,0,1,.17-.57,1.12,1.12,0,0,1,.51-.41,2.1,2.1,0,0,1,.84-.15,3.17,3.17,0,0,1,.69.08,2.36,2.36,0,0,1,.58.25l-.23.55a2,2,0,0,0-.52-.22A1.93,1.93,0,0,0,419,283a1.14,1.14,0,0,0-.62.14.46.46,0,0,0-.2.38.36.36,0,0,0,.11.26.86.86,0,0,0,.3.16c.12,0,.28.09.49.14a4.56,4.56,0,0,1,.69.2,1.23,1.23,0,0,1,.46.32.85.85,0,0,1,.19.59.91.91,0,0,1-.17.56,1.1,1.1,0,0,1-.52.41,2.1,2.1,0,0,1-.84.15A3.06,3.06,0,0,1,418,286.14Z" transform="translate(-239.62 -259.99)"/><path class="cls-2" d="M421.65,282.42h.7v3.79h-.7Z" transform="translate(-239.62 -259.99)"/><path class="cls-2" d="M424.24,286.14a2,2,0,0,1-.64-.33l.24-.55a2.16,2.16,0,0,0,1.25.42,1.18,1.18,0,0,0,.63-.14.41.41,0,0,0,.21-.36.34.34,0,0,0-.12-.26.82.82,0,0,0-.29-.17l-.49-.13a5.57,5.57,0,0,1-.7-.21,1.13,1.13,0,0,1-.46-.32.85.85,0,0,1-.19-.59,1,1,0,0,1,.17-.57,1.12,1.12,0,0,1,.51-.41,2.1,2.1,0,0,1,.84-.15,3.08,3.08,0,0,1,.68.08,2.07,2.07,0,0,1,.58.25l-.22.55a2,2,0,0,0-.52-.22,1.93,1.93,0,0,0-.52-.08,1.11,1.11,0,0,0-.62.14.43.43,0,0,0-.2.38.33.33,0,0,0,.11.26.86.86,0,0,0,.3.16l.48.14a5.11,5.11,0,0,1,.7.2,1.23,1.23,0,0,1,.46.32.85.85,0,0,1,.19.59,1,1,0,0,1-.17.56,1.15,1.15,0,0,1-.52.41,2.1,2.1,0,0,1-.84.15A3.06,3.06,0,0,1,424.24,286.14Z" transform="translate(-239.62 -259.99)"/><path class="cls-2" d="M428.57,283h-1.25v-.6h3.21v.6h-1.25v3.19h-.71Z" transform="translate(-239.62 -259.99)"/><path class="cls-2" d="M434.44,285.62v.59H431.6v-3.79h2.76V283H432.3v1h1.83v.57H432.3v1.05Z" transform="translate(-239.62 -259.99)"/><path class="cls-2" d="M439.24,286.21V283.7L438,285.77h-.31l-1.24-2v2.48h-.68v-3.79h.58l1.51,2.51,1.47-2.51h.58v3.79Z" transform="translate(-239.62 -259.99)"/><path class="cls-2" d="M443.92,285.33H442l-.37.88h-.73l1.71-3.79h.69l1.71,3.79h-.74Zm-.23-.55-.71-1.66-.71,1.66Z" transform="translate(-239.62 -259.99)"/><path class="cls-2" d="M448.09,282.42h1.66a2.38,2.38,0,0,1,1.08.24,1.79,1.79,0,0,1,.73.66,2,2,0,0,1,0,2,1.79,1.79,0,0,1-.73.66,2.38,2.38,0,0,1-1.08.24h-1.66Zm1.63,3.19a1.57,1.57,0,0,0,.73-.16,1.12,1.12,0,0,0,.49-.45,1.47,1.47,0,0,0,0-1.37,1.12,1.12,0,0,0-.49-.45,1.57,1.57,0,0,0-.73-.16h-.92v2.59Z" transform="translate(-239.62 -259.99)"/><path class="cls-2" d="M455.94,285.62v.59H453.1v-3.79h2.77V283h-2.06v1h1.82v.57h-1.82v1.05Z" transform="translate(-239.62 -259.99)"/><path class="cls-2" d="M459.63,286.14a2,2,0,0,1-.65-.33l.24-.55a2.19,2.19,0,0,0,.57.3,2.08,2.08,0,0,0,.68.12,1.18,1.18,0,0,0,.63-.14.41.41,0,0,0,.21-.36.36.36,0,0,0-.11-.26.87.87,0,0,0-.3-.17l-.49-.13a6.14,6.14,0,0,1-.7-.21,1.13,1.13,0,0,1-.46-.32.91.91,0,0,1-.19-.59,1,1,0,0,1,.17-.57,1.21,1.21,0,0,1,.52-.41,2.07,2.07,0,0,1,.84-.15,3.16,3.16,0,0,1,.68.08,2.36,2.36,0,0,1,.58.25l-.22.55a2.14,2.14,0,0,0-.52-.22,2,2,0,0,0-.53-.08,1.14,1.14,0,0,0-.62.14.46.46,0,0,0-.2.38.34.34,0,0,0,.12.26.73.73,0,0,0,.29.16c.12,0,.28.09.49.14a4.56,4.56,0,0,1,.69.2,1.23,1.23,0,0,1,.46.32.85.85,0,0,1,.19.59.91.91,0,0,1-.17.56,1.12,1.12,0,0,1-.51.41,2.15,2.15,0,0,1-.85.15A2.94,2.94,0,0,1,459.63,286.14Z" transform="translate(-239.62 -259.99)"/><path class="cls-2" d="M466.08,285.62v.59h-2.84v-3.79H466V283H464v1h1.82v.57H464v1.05Z" transform="translate(-239.62 -259.99)"/><path class="cls-2" d="M469.88,286.21l-.77-1.11h-1v1.11h-.7v-3.79H469a2.24,2.24,0,0,1,.86.16,1.22,1.22,0,0,1,.75,1.19,1.25,1.25,0,0,1-.2.73,1.22,1.22,0,0,1-.6.46l.87,1.25Zm-.25-3a1.08,1.08,0,0,0-.7-.19h-.82v1.51h.82a1.08,1.08,0,0,0,.7-.2.77.77,0,0,0,0-1.12Z" transform="translate(-239.62 -259.99)"/><path class="cls-2" d="M475.36,282.42l-1.65,3.79H473l-1.66-3.79h.77l1.26,2.92,1.27-2.92Z" transform="translate(-239.62 -259.99)"/><path class="cls-2" d="M476.3,282.42H477v3.79h-.71Z" transform="translate(-239.62 -259.99)"/><path class="cls-2" d="M478.57,282.42h1.65a2.32,2.32,0,0,1,1.08.24,1.73,1.73,0,0,1,.73.66,2,2,0,0,1,0,2,1.73,1.73,0,0,1-.73.66,2.32,2.32,0,0,1-1.08.24h-1.65Zm1.62,3.19a1.54,1.54,0,0,0,.73-.16,1.07,1.07,0,0,0,.49-.45,1.47,1.47,0,0,0,0-1.37,1.07,1.07,0,0,0-.49-.45,1.54,1.54,0,0,0-.73-.16h-.92v2.59Z" transform="translate(-239.62 -259.99)"/><path class="cls-2" d="M484.3,286a1.91,1.91,0,0,1-1-1.7,1.86,1.86,0,0,1,.27-1,1.89,1.89,0,0,1,.73-.7,2.31,2.31,0,0,1,2.09,0,1.94,1.94,0,0,1,.73.69,2,2,0,0,1,.26,1,1.93,1.93,0,0,1-.26,1,1.89,1.89,0,0,1-.73.7,2.31,2.31,0,0,1-2.09,0Zm1.73-.54a1.18,1.18,0,0,0,.47-.47,1.47,1.47,0,0,0,0-1.37,1.27,1.27,0,0,0-.47-.48,1.44,1.44,0,0,0-.69-.17,1.4,1.4,0,0,0-.68.17,1.27,1.27,0,0,0-.47.48,1.39,1.39,0,0,0,0,1.37,1.18,1.18,0,0,0,.47.47,1.3,1.3,0,0,0,.68.17A1.33,1.33,0,0,0,486,285.47Z" transform="translate(-239.62 -259.99)"/><path class="cls-2" d="M491.15,286.21l-.78-1.11h-1v1.11h-.7v-3.79h1.56a2.18,2.18,0,0,1,.85.16,1.25,1.25,0,0,1,.56.47,1.29,1.29,0,0,1,.2.72,1.26,1.26,0,0,1-.21.73,1.22,1.22,0,0,1-.6.46l.87,1.25Zm-.26-3a1.08,1.08,0,0,0-.7-.19h-.82v1.51h.82a1.08,1.08,0,0,0,.7-.2.77.77,0,0,0,0-1.12Z" transform="translate(-239.62 -259.99)"/><path class="cls-2" d="M496,285.62v.59h-2.84v-3.79h2.77V283h-2.06v1h1.82v.57h-1.82v1.05Z" transform="translate(-239.62 -259.99)"/><path class="cls-2" d="M497.65,286.14a2,2,0,0,1-.64-.33l.24-.55a2.19,2.19,0,0,0,.57.3,2,2,0,0,0,.68.12,1.18,1.18,0,0,0,.63-.14.41.41,0,0,0,.21-.36.34.34,0,0,0-.12-.26.74.74,0,0,0-.29-.17l-.49-.13a5.57,5.57,0,0,1-.7-.21,1.13,1.13,0,0,1-.46-.32.85.85,0,0,1-.19-.59,1,1,0,0,1,.17-.57,1.18,1.18,0,0,1,.51-.41,2.1,2.1,0,0,1,.84-.15,3.17,3.17,0,0,1,.69.08,2.36,2.36,0,0,1,.58.25l-.23.55a2,2,0,0,0-.52-.22,1.93,1.93,0,0,0-.52-.08,1.14,1.14,0,0,0-.62.14.46.46,0,0,0-.2.38.36.36,0,0,0,.11.26.86.86,0,0,0,.3.16c.12,0,.28.09.49.14a4.56,4.56,0,0,1,.69.2,1.23,1.23,0,0,1,.46.32.85.85,0,0,1,.19.59.91.91,0,0,1-.17.56,1.1,1.1,0,0,1-.52.41,2.1,2.1,0,0,1-.84.15A3.06,3.06,0,0,1,497.65,286.14Z" transform="translate(-239.62 -259.99)"/><path class="cls-2" d="M420.12,289.07a1.25,1.25,0,0,1,.56.47,1.38,1.38,0,0,1,0,1.43,1.19,1.19,0,0,1-.56.47,2,2,0,0,1-.85.16h-.86v1.1h-.7v-3.79h1.56A2.22,2.22,0,0,1,420.12,289.07Zm-.19,1.74a.66.66,0,0,0,.24-.55.68.68,0,0,0-.24-.56,1.08,1.08,0,0,0-.7-.19h-.82V291h.82A1.08,1.08,0,0,0,419.93,290.81Z" transform="translate(-239.62 -259.99)"/><path class="cls-2" d="M422.53,292.31a1.67,1.67,0,0,1-.44-1.26v-2.14h.7V291q0,1.11,1,1.11t1-1.11v-2.11h.69v2.14a1.7,1.7,0,0,1-.43,1.26,1.91,1.91,0,0,1-2.44,0Zm1.5-4.45h.79l-.94.74h-.58Z" transform="translate(-239.62 -259.99)"/><path class="cls-2" d="M430.11,291.07a1,1,0,0,1,.18.6.86.86,0,0,1-.38.76,1.88,1.88,0,0,1-1.1.27h-1.88v-3.79h1.77a1.82,1.82,0,0,1,1,.26.86.86,0,0,1,.36.72,1,1,0,0,1-.13.5.9.9,0,0,1-.36.34A1,1,0,0,1,430.11,291.07Zm-2.48-1.61v1.05h1a1,1,0,0,0,.56-.14.42.42,0,0,0,.2-.38.43.43,0,0,0-.2-.39,1,1,0,0,0-.56-.14Zm1.95,2.14c0-.37-.27-.55-.81-.55h-1.14v1.09h1.14Q429.58,292.14,429.58,291.6Z" transform="translate(-239.62 -259.99)"/><path class="cls-2" d="M431.58,288.91h.71v3.19h2v.6h-2.69Z" transform="translate(-239.62 -259.99)"/><path class="cls-2" d="M435.36,288.91h.71v3.79h-.71Z" transform="translate(-239.62 -259.99)"/><path class="cls-2" d="M438.35,292.5a1.89,1.89,0,0,1-.73-.7,1.93,1.93,0,0,1-.26-1,1.9,1.9,0,0,1,.27-1,1.84,1.84,0,0,1,.72-.69,2.31,2.31,0,0,1,1.89-.09,1.78,1.78,0,0,1,.65.47l-.46.43a1.31,1.31,0,0,0-1-.45,1.48,1.48,0,0,0-.7.17,1.38,1.38,0,0,0-.48.48,1.47,1.47,0,0,0,0,1.37,1.27,1.27,0,0,0,.48.47,1.37,1.37,0,0,0,.7.17,1.31,1.31,0,0,0,1-.45l.46.44a1.85,1.85,0,0,1-.66.47,2.29,2.29,0,0,1-1.88-.09Z" transform="translate(-239.62 -259.99)"/><path class="cls-2" d="M442.75,292.5a1.82,1.82,0,0,1-.73-.7,1.9,1.9,0,0,1-.27-1,1.86,1.86,0,0,1,.27-1,1.82,1.82,0,0,1,.73-.7,2.29,2.29,0,0,1,2.08,0,1.87,1.87,0,0,1,.73.69,1.9,1.9,0,0,1,.27,1,1.85,1.85,0,0,1-.27,1,1.82,1.82,0,0,1-.73.7,2.29,2.29,0,0,1-2.08,0Zm1.72-.54a1.27,1.27,0,0,0,.48-.47,1.44,1.44,0,0,0,.17-.69,1.4,1.4,0,0,0-.17-.68,1.38,1.38,0,0,0-.48-.48,1.44,1.44,0,0,0-1.36,0,1.38,1.38,0,0,0-.48.48,1.4,1.4,0,0,0-.17.68,1.44,1.44,0,0,0,.17.69,1.27,1.27,0,0,0,.48.47,1.44,1.44,0,0,0,1.36,0Z" transform="translate(-239.62 -259.99)"/><path class="cls-2" d="M447.44,292.63a2,2,0,0,1-.64-.33l.24-.55a2.19,2.19,0,0,0,.57.3,2,2,0,0,0,.68.12,1.18,1.18,0,0,0,.63-.14.41.41,0,0,0,.21-.36.34.34,0,0,0-.12-.26.82.82,0,0,0-.29-.17l-.49-.13a5.57,5.57,0,0,1-.7-.21,1.23,1.23,0,0,1-.46-.32.85.85,0,0,1-.19-.59,1,1,0,0,1,.17-.57,1.12,1.12,0,0,1,.51-.41,2.1,2.1,0,0,1,.84-.15,3.08,3.08,0,0,1,.68.08,1.81,1.81,0,0,1,.58.25l-.22.55a2,2,0,0,0-.52-.22,1.93,1.93,0,0,0-.52-.08,1.11,1.11,0,0,0-.62.14.43.43,0,0,0-.2.37.33.33,0,0,0,.11.27.86.86,0,0,0,.3.16l.48.14a4.73,4.73,0,0,1,.7.2,1.23,1.23,0,0,1,.46.32.85.85,0,0,1,.19.59,1,1,0,0,1-.17.56,1.15,1.15,0,0,1-.52.41,2.1,2.1,0,0,1-.84.15A3.06,3.06,0,0,1,447.44,292.63Z" transform="translate(-239.62 -259.99)"/><path class="cls-2" d="M453.42,292.63a2.07,2.07,0,0,1-.65-.33l.25-.55a1.91,1.91,0,0,0,.57.3,2,2,0,0,0,.67.12,1.19,1.19,0,0,0,.64-.14.42.42,0,0,0,.2-.36.36.36,0,0,0-.11-.26.87.87,0,0,0-.3-.17l-.48-.13a5.1,5.1,0,0,1-.7-.21,1.16,1.16,0,0,1-.46-.32.86.86,0,0,1-.2-.59,1,1,0,0,1,.17-.57,1.21,1.21,0,0,1,.52-.41,2.1,2.1,0,0,1,.84-.15,3.08,3.08,0,0,1,.68.08,1.92,1.92,0,0,1,.58.25l-.22.55a2.14,2.14,0,0,0-.52-.22,2,2,0,0,0-.53-.08,1.16,1.16,0,0,0-.62.14.45.45,0,0,0-.2.37.34.34,0,0,0,.12.27.73.73,0,0,0,.29.16c.12,0,.28.09.49.14a4.56,4.56,0,0,1,.69.2,1.16,1.16,0,0,1,.46.32.86.86,0,0,1,.2.59,1,1,0,0,1-.17.56,1.21,1.21,0,0,1-.52.41,2.12,2.12,0,0,1-.85.15A2.94,2.94,0,0,1,453.42,292.63Z" transform="translate(-239.62 -259.99)"/><path class="cls-2" d="M459.49,291.82H457.6l-.38.88h-.72l1.7-3.79h.69l1.71,3.79h-.73Zm-.23-.55-.72-1.66-.71,1.66Z" transform="translate(-239.62 -259.99)"/><path class="cls-2" d="M465,288.91v3.79h-.58l-2.09-2.57v2.57h-.69v-3.79h.57l2.09,2.56v-2.56Z" transform="translate(-239.62 -259.99)"/><path class="cls-2" d="M466.87,292.63a2,2,0,0,1-.64-.33l.24-.55a2.19,2.19,0,0,0,.57.3,2,2,0,0,0,.68.12,1.18,1.18,0,0,0,.63-.14.41.41,0,0,0,.21-.36.34.34,0,0,0-.12-.26.82.82,0,0,0-.29-.17l-.49-.13a5.57,5.57,0,0,1-.7-.21,1.23,1.23,0,0,1-.46-.32.85.85,0,0,1-.19-.59,1,1,0,0,1,.17-.57A1.12,1.12,0,0,1,467,289a2.1,2.1,0,0,1,.84-.15,3.25,3.25,0,0,1,.69.08,1.86,1.86,0,0,1,.57.25l-.22.55a2,2,0,0,0-.52-.22,1.93,1.93,0,0,0-.52-.08,1.11,1.11,0,0,0-.62.14.43.43,0,0,0-.2.37.37.37,0,0,0,.11.27.86.86,0,0,0,.3.16l.48.14a4.39,4.39,0,0,1,.7.2,1.23,1.23,0,0,1,.46.32.85.85,0,0,1,.19.59,1,1,0,0,1-.17.56,1.15,1.15,0,0,1-.52.41,2.1,2.1,0,0,1-.84.15A3.06,3.06,0,0,1,466.87,292.63Z" transform="translate(-239.62 -259.99)"/><path class="cls-2" d="M470.49,288.91h.7v3.79h-.7Z" transform="translate(-239.62 -259.99)"/><path class="cls-2" d="M473.48,292.5a1.91,1.91,0,0,1-1-1.7,1.86,1.86,0,0,1,.27-1,1.89,1.89,0,0,1,.73-.7,2.31,2.31,0,0,1,2.09,0,1.94,1.94,0,0,1,.73.69,2,2,0,0,1,.26,1,1.93,1.93,0,0,1-.26,1,1.89,1.89,0,0,1-.73.7,2.31,2.31,0,0,1-2.09,0Zm1.72-.54a1.15,1.15,0,0,0,.48-.47,1.33,1.33,0,0,0,.17-.69,1.3,1.3,0,0,0-.17-.68,1.23,1.23,0,0,0-.48-.48,1.37,1.37,0,0,0-.68-.17,1.4,1.4,0,0,0-.68.17,1.27,1.27,0,0,0-.47.48,1.3,1.3,0,0,0-.18.68,1.34,1.34,0,0,0,.18.69,1.18,1.18,0,0,0,.47.47,1.3,1.3,0,0,0,.68.17A1.27,1.27,0,0,0,475.2,292Z" transform="translate(-239.62 -259.99)"/><path class="cls-2" d="M481.21,288.91v3.79h-.58l-2.08-2.57v2.57h-.7v-3.79h.58l2.08,2.56v-2.56Z" transform="translate(-239.62 -259.99)"/><path class="cls-2" d="M485.23,291.82h-1.9l-.37.88h-.72l1.7-3.79h.69l1.71,3.79h-.74Zm-.24-.55-.71-1.66-.71,1.66Z" transform="translate(-239.62 -259.99)"/><path class="cls-2" d="M487.36,288.91H489a2.31,2.31,0,0,1,1.07.24,1.62,1.62,0,0,1,.73.66,2,2,0,0,1,0,2,1.67,1.67,0,0,1-.73.66,2.31,2.31,0,0,1-1.07.24h-1.66ZM489,292.1a1.58,1.58,0,0,0,.74-.16,1.1,1.1,0,0,0,.48-.45,1.31,1.31,0,0,0,.17-.69,1.27,1.27,0,0,0-.17-.68,1,1,0,0,0-.48-.45,1.58,1.58,0,0,0-.74-.16h-.92v2.59Z" transform="translate(-239.62 -259.99)"/><path class="cls-2" d="M493.09,292.5a1.89,1.89,0,0,1-.73-.7,2,2,0,0,1-.26-1,2,2,0,0,1,.26-1,1.89,1.89,0,0,1,.73-.7,2.31,2.31,0,0,1,2.09,0,1.94,1.94,0,0,1,.73.69,1.9,1.9,0,0,1,.27,1,1.85,1.85,0,0,1-.27,1,1.89,1.89,0,0,1-.73.7,2.31,2.31,0,0,1-2.09,0Zm1.73-.54a1.18,1.18,0,0,0,.47-.47,1.34,1.34,0,0,0,.18-.69,1.3,1.3,0,0,0-.18-.68,1.27,1.27,0,0,0-.47-.48,1.4,1.4,0,0,0-.68-.17,1.37,1.37,0,0,0-.68.17,1.29,1.29,0,0,0-.65,1.16,1.33,1.33,0,0,0,.17.69,1.21,1.21,0,0,0,.48.47,1.27,1.27,0,0,0,.68.17A1.3,1.3,0,0,0,494.82,292Z" transform="translate(-239.62 -259.99)"/><path class="cls-2" d="M497.79,292.63a2.07,2.07,0,0,1-.65-.33l.25-.55a1.91,1.91,0,0,0,.57.3,2,2,0,0,0,.68.12,1.18,1.18,0,0,0,.63-.14.4.4,0,0,0,.2-.36.33.33,0,0,0-.11-.26.87.87,0,0,0-.3-.17c-.11,0-.28-.08-.48-.13a5.57,5.57,0,0,1-.7-.21,1.23,1.23,0,0,1-.46-.32.85.85,0,0,1-.19-.59,1,1,0,0,1,.17-.57,1.12,1.12,0,0,1,.51-.41,2.1,2.1,0,0,1,.84-.15,3.08,3.08,0,0,1,.68.08,1.92,1.92,0,0,1,.58.25l-.22.55a2.14,2.14,0,0,0-.52-.22,2,2,0,0,0-.53-.08,1.1,1.1,0,0,0-.61.14.44.44,0,0,0-.21.37.34.34,0,0,0,.12.27.9.9,0,0,0,.29.16c.12,0,.28.09.49.14a4.56,4.56,0,0,1,.69.2,1.27,1.27,0,0,1,.47.32.91.91,0,0,1,.19.59,1,1,0,0,1-.17.56,1.21,1.21,0,0,1-.52.41,2.1,2.1,0,0,1-.84.15A3,3,0,0,1,497.79,292.63Z" transform="translate(-239.62 -259.99)"/><path class="cls-2" d="M286.54,294h.62v1.19a1.73,1.73,0,0,1-.56.28,2,2,0,0,1-.63.1,1.69,1.69,0,0,1-.82-.2,1.44,1.44,0,0,1-.58-.54,1.57,1.57,0,0,1,0-1.57,1.44,1.44,0,0,1,.58-.54,1.93,1.93,0,0,1,1.53-.06,1.34,1.34,0,0,1,.53.37l-.43.41a1,1,0,0,0-.76-.34,1,1,0,0,0-.5.12.93.93,0,0,0-.35.33,1,1,0,0,0-.12.5,1,1,0,0,0,.12.48.92.92,0,0,0,.34.34,1,1,0,0,0,.5.12,1.07,1.07,0,0,0,.53-.13Z" transform="translate(-239.62 -259.99)"/><path class="cls-2" d="M289.65,295.33a1.44,1.44,0,0,1-.58-.54,1.51,1.51,0,0,1-.2-.78,1.46,1.46,0,0,1,.2-.78,1.4,1.4,0,0,1,.58-.55,1.89,1.89,0,0,1,1.65,0,1.44,1.44,0,0,1,.57.55,1.48,1.48,0,0,1,.22.78,1.53,1.53,0,0,1-.22.78,1.48,1.48,0,0,1-.57.54,1.8,1.8,0,0,1-1.65,0Zm1.3-.5a.83.83,0,0,0,.33-.34,1,1,0,0,0,.12-.48,1,1,0,0,0-.12-.49.9.9,0,0,0-.33-.34.94.94,0,0,0-.47-.12,1,1,0,0,0-.48.12.9.9,0,0,0-.33.34,1,1,0,0,0-.12.49,1,1,0,0,0,.12.48.83.83,0,0,0,.33.34,1,1,0,0,0,.48.12A.94.94,0,0,0,291,294.83Z" transform="translate(-239.62 -259.99)"/><path class="cls-2" d="M296.41,294.21a.73.73,0,0,1,.15.46.69.69,0,0,1-.3.6,1.55,1.55,0,0,1-.88.21h-1.52v-3h1.44a1.38,1.38,0,0,1,.82.21.66.66,0,0,1,.29.56.7.7,0,0,1-.1.38.84.84,0,0,1-.29.27A.73.73,0,0,1,296.41,294.21Zm-1.87-1.16v.69h.67a.64.64,0,0,0,.38-.09.28.28,0,0,0,.13-.26.29.29,0,0,0-.13-.26.74.74,0,0,0-.38-.08Zm1.2,1.83a.31.31,0,0,0,.13-.28q0-.36-.54-.36h-.79V295h.79A.79.79,0,0,0,295.74,294.88Z" transform="translate(-239.62 -259.99)"/><path class="cls-2" d="M298.33,292.53H299v3h-.69Z" transform="translate(-239.62 -259.99)"/><path class="cls-2" d="M303.25,294.93v.55H301v-3h2.23v.55h-1.55v.64H303v.53h-1.37v.68Z" transform="translate(-239.62 -259.99)"/><path class="cls-2" d="M306.93,295.48l-.57-.82h-.62v.82h-.68v-3h1.27a1.59,1.59,0,0,1,.68.14,1,1,0,0,1,.44.36,1,1,0,0,1,.16.57,1.06,1.06,0,0,1-.16.57,1,1,0,0,1-.45.36l.66,1Zm-.17-2.26a.71.71,0,0,0-.47-.13h-.55v1h.55a.71.71,0,0,0,.47-.14.48.48,0,0,0,.16-.38A.5.5,0,0,0,306.76,293.22Z" transform="translate(-239.62 -259.99)"/><path class="cls-2" d="M312.1,292.53v3h-.55l-1.47-1.79v1.79h-.67v-3H310l1.46,1.79v-1.79Z" transform="translate(-239.62 -259.99)"/><path class="cls-2" d="M314.66,295.33a1.48,1.48,0,0,1-.57-.54,1.52,1.52,0,0,1-.21-.78,1.47,1.47,0,0,1,.21-.78,1.44,1.44,0,0,1,.57-.55,1.75,1.75,0,0,1,.83-.19,1.71,1.71,0,0,1,.82.19,1.4,1.4,0,0,1,.58.55,1.47,1.47,0,0,1,.21.78,1.52,1.52,0,0,1-.21.78,1.44,1.44,0,0,1-.58.54,1.72,1.72,0,0,1-.82.2A1.76,1.76,0,0,1,314.66,295.33Zm1.3-.5a.83.83,0,0,0,.33-.34,1,1,0,0,0,.12-.48,1,1,0,0,0-.12-.49.9.9,0,0,0-.33-.34.94.94,0,0,0-.47-.12.91.91,0,0,0-.47.12.9.9,0,0,0-.33.34,1,1,0,0,0-.12.49,1,1,0,0,0,.12.48.83.83,0,0,0,.33.34.91.91,0,0,0,.47.12A.94.94,0,0,0,316,294.83Z" transform="translate(-239.62 -259.99)"/><path class="cls-2" d="M321.32,292.53h1.34a1.93,1.93,0,0,1,.85.19,1.41,1.41,0,0,1,.57.51,1.6,1.6,0,0,1,0,1.55,1.41,1.41,0,0,1-.57.51,1.8,1.8,0,0,1-.85.19h-1.34Zm1.31,2.39a1,1,0,0,0,.7-.25.87.87,0,0,0,.26-.66.89.89,0,0,0-.26-.67,1,1,0,0,0-.7-.25H322v1.83Z" transform="translate(-239.62 -259.99)"/><path class="cls-2" d="M328.33,294.93v.55h-2.28v-3h2.23v.55h-1.55v.64h1.37v.53h-1.37v.68Z" transform="translate(-239.62 -259.99)"/><path class="cls-2" d="M330.14,292.53h.68v2.39h1.47v.56h-2.15Z" transform="translate(-239.62 -259.99)"/><path class="cls-2" d="M338.66,294.93v.55h-2.27v-3h2.22v.55h-1.55v.64h1.37v.53h-1.37v.68Z" transform="translate(-239.62 -259.99)"/><path class="cls-2" d="M340.76,295.43a1.48,1.48,0,0,1-.52-.24l.23-.52a1.36,1.36,0,0,0,.45.23,1.82,1.82,0,0,0,.52.08,1,1,0,0,0,.43-.08.28.28,0,0,0,.14-.23.23.23,0,0,0-.09-.18.68.68,0,0,0-.21-.11l-.34-.09-.55-.16a.81.81,0,0,1-.37-.26.7.7,0,0,1-.15-.47.82.82,0,0,1,.13-.46,1,1,0,0,1,.42-.33,1.76,1.76,0,0,1,.68-.12,2.6,2.6,0,0,1,.56.06,2.2,2.2,0,0,1,.47.19l-.21.52a1.73,1.73,0,0,0-.82-.23.77.77,0,0,0-.42.09.31.31,0,0,0-.14.25.23.23,0,0,0,.16.22,2.29,2.29,0,0,0,.48.15,3.4,3.4,0,0,1,.55.16.84.84,0,0,1,.37.25.68.68,0,0,1,.15.47.78.78,0,0,1-.14.46,1,1,0,0,1-.42.33,1.78,1.78,0,0,1-.69.12A2.18,2.18,0,0,1,340.76,295.43Z" transform="translate(-239.62 -259.99)"/><path class="cls-2" d="M345,293.09H344v-.56h2.56v.56h-.94v2.39H345Z" transform="translate(-239.62 -259.99)"/><path class="cls-2" d="M350,294.85h-1.37l-.26.63h-.7l1.31-3h.68l1.31,3h-.71Zm-.22-.52-.46-1.13-.47,1.13Z" transform="translate(-239.62 -259.99)"/><path class="cls-2" d="M352.56,292.53h1.34a1.86,1.86,0,0,1,.84.19,1.37,1.37,0,0,1,.58.51,1.6,1.6,0,0,1,0,1.55,1.37,1.37,0,0,1-.58.51,1.74,1.74,0,0,1-.84.19h-1.34Zm1.3,2.39a1,1,0,0,0,.71-.25.87.87,0,0,0,.26-.66.89.89,0,0,0-.26-.67,1,1,0,0,0-.71-.25h-.62v1.83Z" transform="translate(-239.62 -259.99)"/><path class="cls-2" d="M357.89,295.33a1.41,1.41,0,0,1-.57-.54,1.52,1.52,0,0,1-.21-.78,1.47,1.47,0,0,1,.21-.78,1.37,1.37,0,0,1,.57-.55,1.75,1.75,0,0,1,.83-.19,1.71,1.71,0,0,1,.82.19,1.48,1.48,0,0,1,.79,1.33,1.45,1.45,0,0,1-.79,1.32,1.72,1.72,0,0,1-.82.2A1.76,1.76,0,0,1,357.89,295.33Zm1.3-.5a.83.83,0,0,0,.33-.34,1,1,0,0,0,.12-.48,1,1,0,0,0-.12-.49.9.9,0,0,0-.33-.34.94.94,0,0,0-.47-.12.91.91,0,0,0-.47.12.9.9,0,0,0-.33.34,1,1,0,0,0-.12.49,1,1,0,0,0,.12.48.83.83,0,0,0,.33.34.91.91,0,0,0,.47.12A.94.94,0,0,0,359.19,294.83Z" transform="translate(-239.62 -259.99)"/><path class="cls-3" d="M286.09,284.35a5.58,5.58,0,0,1-.67,1.56,3.42,3.42,0,0,1-2.32.67,2.89,2.89,0,0,1-2.55-1.22,5.82,5.82,0,0,1-.86-3.43,7.52,7.52,0,0,1,1-4.23A3.71,3.71,0,0,1,283,277a2.88,2.88,0,0,1,2.64,1.24,7,7,0,0,1,.79,3.71,8.64,8.64,0,0,1-.31,2.38M283.38,275a7,7,0,0,0-5.17,2,7.15,7.15,0,0,0-2,5.24,6.18,6.18,0,0,0,1.82,4.7,7.4,7.4,0,0,0,9.84-.25,7.06,7.06,0,0,0,2-5.15,6.45,6.45,0,0,0-1.78-4.77,6.37,6.37,0,0,0-4.69-1.77" transform="translate(-239.62 -259.99)"/><path class="cls-3" d="M295.28,282.63q.95-3.17,1.67-5.33c.6,1.66,1.23,3.47,1.9,5.4Zm8.54,4q-1.6-4.07-3.53-9.54c-.36-1-.59-1.73-.67-2.07-1.2,0-2.59.07-4.17.19l-.52,1.88q-2.1,5.89-3.6,9.52l-1.45.58.25,1.14h5.53l.26-1.14-1.82-.56c.4-1.38.62-2.11.64-2.2l4.69-.11c.29.88.54,1.65.77,2.31l-1.78.56.24,1.14H305l.25-1.14Z" transform="translate(-239.62 -259.99)"/><path class="cls-3" d="M320.58,287.22c-.58-.24-1.1-.47-1.58-.71q-1.23-1.36-3.65-4.71,2.36-3.24,3.71-4.78l.69-.32.68-.32-.25-1.14h-5.72l-.24,1.14,1.73.74c-.6,1.06-1.18,2.08-1.73,3.07a54.39,54.39,0,0,1-3.21-5c-1.6.06-3.1.08-4.5.08l-.24,1.14a12.61,12.61,0,0,1,1.58.72c.66.73,1.83,2.26,3.52,4.57-1.57,2.16-2.85,3.8-3.82,4.91l-.68.32-.69.32.24,1.14h5.72l.24-1.14c-.36-.14-.93-.38-1.72-.73.54-1,1.15-2.06,1.84-3.24a54.79,54.79,0,0,1,3.37,5.19c1.58-.05,3.06-.08,4.46-.08Z" transform="translate(-239.62 -259.99)"/><path class="cls-3" d="M328.56,277.3q.9,2.49,1.9,5.4l-3.56-.07c.62-2.11,1.18-3.89,1.66-5.33m-2.21,7.16,4.69-.11c.29.88.54,1.65.77,2.31l-1.78.56.24,1.14h6.37l.25-1.14-1.46-.56c-1.07-2.71-2.24-5.9-3.53-9.54-.36-1-.59-1.73-.67-2.07-1.2,0-2.59.07-4.17.19l-.52,1.88q-2.1,5.89-3.6,9.52l-1.44.58.24,1.14h5.53l.26-1.14-1.82-.56c.4-1.38.62-2.11.64-2.2" transform="translate(-239.62 -259.99)"/><path class="cls-3" d="M349.13,286.73c0-1.16,0-2.1-.07-2.81a14.21,14.21,0,0,0-2.22-.09c-.28,1-.52,1.81-.71,2.36a4.06,4.06,0,0,1-1.85.32,3.28,3.28,0,0,1-2.77-1.26,5.57,5.57,0,0,1-1-3.45,6.66,6.66,0,0,1,1.35-4.37A4.13,4.13,0,0,1,344,277a3.66,3.66,0,0,1,1.9.4,23.81,23.81,0,0,1,.61,2.6,12.38,12.38,0,0,0,2.07.1c.3-1.25.54-2.38.73-3.4l-.32-.56a10.93,10.93,0,0,0-4.84-1.16,7.06,7.06,0,0,0-5.08,2A6.74,6.74,0,0,0,337,282a6.41,6.41,0,0,0,1.83,4.84,6.83,6.83,0,0,0,5,1.78,8.91,8.91,0,0,0,5-1.34Z" transform="translate(-239.62 -259.99)"/><path class="cls-3" d="M355.79,282.63q.93-3.17,1.67-5.33c.6,1.66,1.23,3.47,1.89,5.4Zm8.53,4q-1.6-4.07-3.53-9.54c-.36-1-.58-1.73-.67-2.07-1.2,0-2.59.07-4.16.19l-.53,1.88q-2.1,5.89-3.6,9.52l-1.44.58.24,1.14h5.53l.26-1.14-1.81-.56c.4-1.38.61-2.11.63-2.2l4.69-.11c.29.88.54,1.65.77,2.31l-1.78.56.24,1.14h6.38l.24-1.14Z" transform="translate(-239.62 -259.99)"/><path class="cls-4" d="M242,278.37a.12.12,0,0,1-.24,0,.12.12,0,0,1,.24,0Z" transform="translate(-239.62 -259.99)"/><path class="cls-5" d="M248.07,268.86a10.68,10.68,0,0,0-4.31,1,8,8,0,0,0-4.14,7.2v1.42h2.29a.11.11,0,0,0,.12-.11v-1a6.17,6.17,0,0,1,1.07-3.48,6.27,6.27,0,0,1,3.78-2.51,6.34,6.34,0,0,1,1.18-.11Z" transform="translate(-239.62 -259.99)"/><path class="cls-6" d="M267.34,277.3a10.78,10.78,0,0,0-1-4.31,8,8,0,0,0-7.21-4.13h-1.42v2.3a.12.12,0,0,0,.12.12h1a6.13,6.13,0,0,1,6,4.85,7.74,7.74,0,0,1,.11,1.18Z" transform="translate(-239.62 -259.99)"/><path class="cls-7" d="M258.9,296.59a10.6,10.6,0,0,0,4.31-1,8,8,0,0,0,4.14-7.21V287H265a.12.12,0,0,0-.11.12v1a6.13,6.13,0,0,1-1.08,3.48,6.23,6.23,0,0,1-3.77,2.51,7.56,7.56,0,0,1-1.18.11Z" transform="translate(-239.62 -259.99)"/><path class="cls-8" d="M239.63,288.15a10.6,10.6,0,0,0,1,4.31,8,8,0,0,0,7.21,4.14h1.42v-2.3a.11.11,0,0,0-.12-.11h-1a6.13,6.13,0,0,1-3.48-1.08,6.23,6.23,0,0,1-2.51-3.77,7.56,7.56,0,0,1-.11-1.18Z" transform="translate(-239.62 -259.99)"/><path class="cls-9" d="M249.29,268.86v4.5a1.48,1.48,0,0,1-.52,1.14,1.83,1.83,0,0,1-.69.33l-.38.07-.3.06a2.26,2.26,0,0,0-1,.52,2.39,2.39,0,0,0-.81,1.57,1.5,1.5,0,0,1-1.55,1.44h-.85c-.11-2.48.45-3.93,2.17-5.2a4.38,4.38,0,0,1,2.38-.8.31.31,0,0,0,.29-.3v-3.33Z" transform="translate(-239.62 -259.99)"/><path class="cls-10" d="M267.34,278.53h-4.5a1.5,1.5,0,0,1-1.14-.52,1.83,1.83,0,0,1-.33-.69,2.71,2.71,0,0,1-.06-.38c0-.1,0-.2-.07-.3a2.26,2.26,0,0,0-.52-1,2.38,2.38,0,0,0-1.56-.82,1.48,1.48,0,0,1-1.44-1.55v-.84c2.47-.11,3.92.45,5.19,2.16a4.34,4.34,0,0,1,.8,2.38.3.3,0,0,0,.31.29h3.32Z" transform="translate(-239.62 -259.99)"/><path class="cls-11" d="M257.68,296.6v-4.5a1.52,1.52,0,0,1,.52-1.15,1.88,1.88,0,0,1,.69-.32,2.32,2.32,0,0,1,.38-.07,1.5,1.5,0,0,0,.29-.06,2.2,2.2,0,0,0,1-.52,2.39,2.39,0,0,0,.82-1.57,1.49,1.49,0,0,1,1.55-1.44h.84c.11,2.48-.45,3.93-2.16,5.19a4.26,4.26,0,0,1-2.38.8.32.32,0,0,0-.29.31v3.32Z" transform="translate(-239.62 -259.99)"/><path class="cls-12" d="M239.63,286.93h4.49a1.52,1.52,0,0,1,1.15.52,1.88,1.88,0,0,1,.32.69,1.59,1.59,0,0,1,.07.38,1.5,1.5,0,0,0,.06.29,2.46,2.46,0,0,0,2.09,1.78,1.49,1.49,0,0,1,1.44,1.55V293c-2.47.11-3.92-.45-5.19-2.16a4.26,4.26,0,0,1-.8-2.38.32.32,0,0,0-.31-.29h-3.32Z" transform="translate(-239.62 -259.99)"/><path class="cls-13" d="M249.29,273.36" transform="translate(-239.62 -259.99)"/><rect class="cls-14" x="7.23" y="18.52" width="6.04" height="1.21"/><path class="cls-14" d="M246.85,277.31h6V276.1h-5a1,1,0,0,0-1,1Z" transform="translate(-239.62 -259.99)"/><rect class="cls-14" x="7.23" y="20.94" width="6.04" height="1.21"/><rect class="cls-14" x="24.1" y="19.7" width="1.21" height="2.41"/><polygon class="cls-14" points="21.69 19.7 21.69 25.73 27.72 25.73 27.72 19.7 26.52 19.7 26.52 23.32 22.89 23.32 22.89 19.7 21.69 19.7"/><path class="cls-14" d="M255.64,278.52l.71-1.21.14-.25.55-.93,0,0h-3v6h3l0,0-.55-.93-.14-.25-.71-1.21-.34-.57a.06.06,0,0,1,0-.06Z" transform="translate(-239.62 -259.99)"/><path class="cls-14" d="M258.55,279.72l-.71,1.21-.14.25-.55.93,0,0h3v-5a1,1,0,0,0-1-1h-2s0,0,0,0l.55.93.14.25.71,1.21.34.57a.06.06,0,0,1,0,.06Z" transform="translate(-239.62 -259.99)"/><path class="cls-14" d="M254.17,269.13l.33.3.44,0a.82.82,0,0,1,.35.08,1,1,0,0,1,.55.54,1.37,1.37,0,0,1,.08.35l0,.44.3.33.06.09a1,1,0,0,1,.2.53v-2.95h-2.95a1.08,1.08,0,0,1,.54.2l.08.07" transform="translate(-239.62 -259.99)"/><path class="cls-14" d="M250.73,271.19l.3-.33,0-.44a.85.85,0,0,1,.08-.35,1,1,0,0,1,.54-.54.85.85,0,0,1,.35-.08l.45,0,.32-.3.09-.07a1,1,0,0,1,.53-.2h-2.95v2.95a1,1,0,0,1,.2-.53l.07-.09" transform="translate(-239.62 -259.99)"/><path class="cls-14" d="M256.5,272a1,1,0,0,1-.2.53l-.06.09-.3.33,0,.44a1.28,1.28,0,0,1-.08.35,1.06,1.06,0,0,1-.55.55,1,1,0,0,1-.35.07l-.44,0-.33.3-.08.07a1,1,0,0,1-.54.2h2.95Z" transform="translate(-239.62 -259.99)"/><path class="cls-14" d="M252.88,274.7l-.09-.07-.32-.29-.45,0a1,1,0,0,1-.89-.62.82.82,0,0,1-.08-.35l0-.44-.3-.33-.07-.09a1,1,0,0,1-.2-.53v2.95h2.95a1,1,0,0,1-.53-.2" transform="translate(-239.62 -259.99)"/><path class="cls-14" d="M252.88,271.88a.61.61,0,1,0,.6-.6.6.6,0,0,0-.6.6" transform="translate(-239.62 -259.99)"/><polygon class="cls-14" points="3.06 24.25 1.81 22.73 3.06 21.22 1.9 19.73 0.01 19.73 0.01 25.76 1.82 25.76 3.06 24.25"/><polygon class="cls-14" points="6.03 25.76 6.03 19.73 3.08 19.73 4.32 21.21 3.06 22.73 4.32 24.25 3.07 25.76 6.03 25.76"/><polygon class="cls-14" points="15.66 24.55 14.46 24.55 14.46 25.75 16.87 25.75 16.87 23.34 15.66 23.34 15.66 24.55"/><polygon class="cls-14" points="18.08 23.34 18.08 25.75 20.49 25.75 20.49 24.55 19.29 24.55 19.29 23.34 18.08 23.34"/><rect class="cls-14" x="16.87" y="25.75" width="1.21" height="1.21"/><polygon class="cls-14" points="16.87 29.38 16.87 26.96 14.46 26.96 14.46 28.17 15.66 28.17 15.66 29.38 16.87 29.38"/><polygon class="cls-14" points="19.29 28.17 20.49 28.17 20.49 26.96 18.08 26.96 18.08 29.38 19.29 29.38 19.29 28.17"/><polygon class="cls-14" points="13.27 26.69 13.27 23.34 7.23 23.34 7.23 25.35 7.9 25.35 7.9 26.02 8.57 26.02 8.57 26.7 10.58 26.7 10.58 25.35 9.91 25.35 9.91 26.02 9.24 26.02 9.24 24.68 11.25 24.68 11.25 25.35 11.92 25.35 11.92 26.02 12.6 26.02 12.6 26.69 13.27 26.69"/><path class="cls-14" d="M247.91,289.37h5v-2h-6v1a1.06,1.06,0,0,0,1.06,1.06" transform="translate(-239.62 -259.99)"/><path class="cls-14" d="M254.5,294a2.18,2.18,0,0,0-.83.14,3.76,3.76,0,0,1-2.42,0,2,2,0,0,0-.79-.14v.65a3.2,3.2,0,0,1,1.17.2,2.53,2.53,0,0,0,1.66,0,3.76,3.76,0,0,1,2.42,0,2,2,0,0,0,.79.14v-.65a3.7,3.7,0,0,1-1.17-.2,2.15,2.15,0,0,0-.83-.14" transform="translate(-239.62 -259.99)"/><path class="cls-14" d="M254.5,292.18a2.18,2.18,0,0,0-.83.14,3.76,3.76,0,0,1-2.42,0,2,2,0,0,0-.79-.14v.65a3.2,3.2,0,0,1,1.17.2,2.18,2.18,0,0,0,.83.14,2.15,2.15,0,0,0,.83-.14,3.76,3.76,0,0,1,2.42,0,2,2,0,0,0,.79.14v-.65a3.2,3.2,0,0,1-1.17-.2,2.15,2.15,0,0,0-.83-.14" transform="translate(-239.62 -259.99)"/><path class="cls-14" d="M252.46,291.31a2.15,2.15,0,0,0,.83-.14,3.76,3.76,0,0,1,2.42,0,2,2,0,0,0,.79.14v-.75h-6V291a3.7,3.7,0,0,1,1.17.2,2.15,2.15,0,0,0,.83.14" transform="translate(-239.62 -259.99)"/><path class="cls-14" d="M254.5,295.84a2.4,2.4,0,0,0-.83.14,3.59,3.59,0,0,1-2.42,0,2.49,2.49,0,0,0-.79-.14v.76h6v-.41a3.38,3.38,0,0,1-1.17-.21,2.35,2.35,0,0,0-.83-.14" transform="translate(-239.62 -259.99)"/><rect class="cls-1" x="137.16" y="8" width="1" height="28"/><rect class="cls-1" x="304.16" y="8" width="1" height="28"/><rect class="cls-1" x="437.16" y="8" width="1" height="28"/><path class="cls-1" d="M690.9,290.41a1.24,1.24,0,0,1-.46-.24l.17-.39a1.22,1.22,0,0,0,.41.21,1.37,1.37,0,0,0,.49.09.88.88,0,0,0,.45-.1.29.29,0,0,0,.15-.25.25.25,0,0,0-.09-.2.42.42,0,0,0-.21-.11l-.34-.1a4.13,4.13,0,0,1-.51-.15.79.79,0,0,1-.32-.23.56.56,0,0,1-.14-.42.73.73,0,0,1,.12-.41.79.79,0,0,1,.37-.29,1.5,1.5,0,0,1,.6-.11,2.05,2.05,0,0,1,.49.06,1.28,1.28,0,0,1,.41.18l-.16.39a1.73,1.73,0,0,0-.37-.16,1.65,1.65,0,0,0-.38-.05.78.78,0,0,0-.44.1.31.31,0,0,0-.14.26.21.21,0,0,0,.08.19.72.72,0,0,0,.21.12l.35.1a2.71,2.71,0,0,1,.49.14.86.86,0,0,1,.33.23.59.59,0,0,1,.14.42.73.73,0,0,1-.12.41.86.86,0,0,1-.37.29,1.54,1.54,0,0,1-.6.1A2.49,2.49,0,0,1,690.9,290.41Z" transform="translate(-239.62 -259.99)"/><path class="cls-1" d="M693.2,287.75h.5v2.71h-.5Z" transform="translate(-239.62 -259.99)"/><path class="cls-1" d="M694.76,290.41a1.24,1.24,0,0,1-.46-.24l.17-.39a1.22,1.22,0,0,0,.41.21,1.37,1.37,0,0,0,.49.09.88.88,0,0,0,.45-.1.29.29,0,0,0,.15-.25.25.25,0,0,0-.09-.2.42.42,0,0,0-.21-.11l-.35-.1a4.48,4.48,0,0,1-.5-.15.9.9,0,0,1-.33-.23.6.6,0,0,1-.13-.42.73.73,0,0,1,.12-.41.79.79,0,0,1,.37-.29,1.5,1.5,0,0,1,.6-.11,1.91,1.91,0,0,1,.48.06,1.33,1.33,0,0,1,.42.18l-.16.39a1.42,1.42,0,0,0-.75-.21.78.78,0,0,0-.44.1.29.29,0,0,0-.14.26.21.21,0,0,0,.08.19.53.53,0,0,0,.21.12l.35.1a3,3,0,0,1,.49.14.86.86,0,0,1,.33.23.64.64,0,0,1,.14.42.73.73,0,0,1-.12.41.92.92,0,0,1-.37.29,1.57,1.57,0,0,1-.6.1A2.49,2.49,0,0,1,694.76,290.41Z" transform="translate(-239.62 -259.99)"/><path class="cls-1" d="M697.61,288.17h-.9v-.42H699v.42h-.9v2.29h-.5Z" transform="translate(-239.62 -259.99)"/><path class="cls-1" d="M701.51,290v.43h-2v-2.71h2v.42H700v.7h1.31v.42H700V290Z" transform="translate(-239.62 -259.99)"/><path class="cls-1" d="M704.65,290.46v-1.8l-.89,1.49h-.22l-.89-1.47v1.78h-.48v-2.71h.41l1.08,1.79,1.05-1.79h.42v2.71Z" transform="translate(-239.62 -259.99)"/><path class="cls-1" d="M707.71,289.83h-1.35l-.27.63h-.52l1.22-2.71h.5l1.22,2.71H708Zm-.16-.39-.51-1.19-.51,1.19Z" transform="translate(-239.62 -259.99)"/><path class="cls-1" d="M710.11,287.75h1.19a1.74,1.74,0,0,1,.77.17,1.25,1.25,0,0,1,.52.47,1.39,1.39,0,0,1,.19.71,1.37,1.37,0,0,1-.19.71,1.21,1.21,0,0,1-.52.48,1.74,1.74,0,0,1-.77.17h-1.19Zm1.16,2.28a1.25,1.25,0,0,0,.53-.11.86.86,0,0,0,.35-.33,1,1,0,0,0,.12-.49,1,1,0,0,0-.12-.49.84.84,0,0,0-.35-.32,1.12,1.12,0,0,0-.53-.12h-.65V290Z" transform="translate(-239.62 -259.99)"/><path class="cls-1" d="M715.44,290v.43h-2v-2.71h2v.42h-1.47v.7h1.31v.42h-1.31V290Z" transform="translate(-239.62 -259.99)"/><path class="cls-1" d="M717.49,290.41a1.24,1.24,0,0,1-.46-.24l.17-.39a1.22,1.22,0,0,0,.41.21,1.37,1.37,0,0,0,.49.09.88.88,0,0,0,.45-.1.28.28,0,0,0,.14-.25.24.24,0,0,0-.08-.2.42.42,0,0,0-.21-.11l-.35-.1a4.48,4.48,0,0,1-.5-.15.76.76,0,0,1-.33-.23.6.6,0,0,1-.13-.42.73.73,0,0,1,.12-.41.79.79,0,0,1,.37-.29,1.5,1.5,0,0,1,.6-.11,2,2,0,0,1,.48.06,1.33,1.33,0,0,1,.42.18l-.16.39a1.42,1.42,0,0,0-.75-.21.75.75,0,0,0-.44.1.29.29,0,0,0-.14.26.21.21,0,0,0,.08.19.53.53,0,0,0,.21.12l.35.1a3,3,0,0,1,.49.14.86.86,0,0,1,.33.23.64.64,0,0,1,.14.42.73.73,0,0,1-.12.41.92.92,0,0,1-.37.29,1.57,1.57,0,0,1-.6.1A2.43,2.43,0,0,1,717.49,290.41Z" transform="translate(-239.62 -259.99)"/><path class="cls-1" d="M721.82,290v.43h-2v-2.71h2v.42h-1.47v.7h1.3v.42h-1.3V290Z" transform="translate(-239.62 -259.99)"/><path class="cls-1" d="M724.24,290.46l-.55-.8H723v.79h-.51v-2.71h1.12a1.44,1.44,0,0,1,.61.12.82.82,0,0,1,.4.33,1,1,0,0,1,0,1,1,1,0,0,1-.43.33l.62.89Zm-.18-2.15a.78.78,0,0,0-.5-.14H723v1.08h.58a.73.73,0,0,0,.5-.14.47.47,0,0,0,.17-.4A.48.48,0,0,0,724.06,288.31Z" transform="translate(-239.62 -259.99)"/><path class="cls-1" d="M727.87,287.75l-1.18,2.71h-.49L725,287.75h.55l.9,2.09.91-2.09Z" transform="translate(-239.62 -259.99)"/><path class="cls-1" d="M728.31,287.75h.5v2.71h-.5Z" transform="translate(-239.62 -259.99)"/><path class="cls-1" d="M729.64,287.75h1.18a1.71,1.71,0,0,1,.77.17,1.28,1.28,0,0,1,.53.47,1.39,1.39,0,0,1,.18.71,1.36,1.36,0,0,1-.18.71,1.23,1.23,0,0,1-.53.48,1.71,1.71,0,0,1-.77.17h-1.18ZM730.8,290a1.29,1.29,0,0,0,.53-.11.83.83,0,0,0,.34-.33,1,1,0,0,0,.13-.49,1,1,0,0,0-.13-.49.81.81,0,0,0-.34-.32,1.15,1.15,0,0,0-.53-.12h-.66V290Z" transform="translate(-239.62 -259.99)"/><path class="cls-1" d="M733.45,290.31a1.23,1.23,0,0,1-.52-.49,1.36,1.36,0,0,1-.19-.72,1.36,1.36,0,0,1,.71-1.21,1.63,1.63,0,0,1,1.49,0,1.43,1.43,0,0,1,.53,1.93,1.32,1.32,0,0,1-.53.49,1.63,1.63,0,0,1-1.49,0Zm1.23-.38a.8.8,0,0,0,.34-.34.9.9,0,0,0,.13-.49.92.92,0,0,0-.13-.49.86.86,0,0,0-.34-.34,1,1,0,0,0-.48-.12,1,1,0,0,0-.49.12.92.92,0,0,0-.34.34,1,1,0,0,0-.12.49,1,1,0,0,0,.12.49.86.86,0,0,0,.34.34,1,1,0,0,0,.49.12A1,1,0,0,0,734.68,289.93Z" transform="translate(-239.62 -259.99)"/><path class="cls-1" d="M738.06,290.46l-.56-.8h-.71v.79h-.51v-2.71h1.12a1.44,1.44,0,0,1,.61.12.78.78,0,0,1,.4.33,1,1,0,0,1,0,1,1,1,0,0,1-.43.33l.63.89Zm-.19-2.15a.77.77,0,0,0-.49-.14h-.59v1.08h.59a.72.72,0,0,0,.49-.14.47.47,0,0,0,.17-.4A.48.48,0,0,0,737.87,288.31Z" transform="translate(-239.62 -259.99)"/><path class="cls-1" d="M741.24,290v.43h-2v-2.71h2v.42h-1.47v.7H741v.42h-1.31V290Z" transform="translate(-239.62 -259.99)"/><path class="cls-1" d="M742.13,290.41a1.17,1.17,0,0,1-.46-.24l.17-.39a1.22,1.22,0,0,0,.41.21,1.36,1.36,0,0,0,.48.09.9.9,0,0,0,.46-.1.3.3,0,0,0,.14-.25.24.24,0,0,0-.08-.2.42.42,0,0,0-.21-.11l-.35-.1a4.48,4.48,0,0,1-.5-.15.76.76,0,0,1-.33-.23.6.6,0,0,1-.13-.42.73.73,0,0,1,.12-.41.81.81,0,0,1,.36-.29,1.58,1.58,0,0,1,.61-.11,2,2,0,0,1,.48.06,1.33,1.33,0,0,1,.42.18l-.16.39a1.42,1.42,0,0,0-.75-.21.75.75,0,0,0-.44.1.3.3,0,0,0-.15.26.22.22,0,0,0,.09.19.53.53,0,0,0,.21.12l.35.1a3,3,0,0,1,.49.14.86.86,0,0,1,.33.23.64.64,0,0,1,.14.42.73.73,0,0,1-.12.41.92.92,0,0,1-.37.29,1.59,1.59,0,0,1-.61.1A2.41,2.41,0,0,1,742.13,290.41Z" transform="translate(-239.62 -259.99)"/><path class="cls-1" d="M692.39,292.51a.84.84,0,0,1,.41.33.92.92,0,0,1,.13.51,1,1,0,0,1-.13.52,1,1,0,0,1-.41.33,1.41,1.41,0,0,1-.61.12h-.61v.78h-.5v-2.71h1.11A1.41,1.41,0,0,1,692.39,292.51Zm-.13,1.24a.49.49,0,0,0,.17-.4.51.51,0,0,0-.17-.4.8.8,0,0,0-.5-.13h-.59v1.07h.59A.8.8,0,0,0,692.26,293.75Z" transform="translate(-239.62 -259.99)"/><path class="cls-1" d="M693.86,294.82a1.22,1.22,0,0,1-.31-.9v-1.53h.5v1.51c0,.53.23.79.69.79s.68-.26.68-.79v-1.51h.5v1.53a1.22,1.22,0,0,1-.31.9,1.36,1.36,0,0,1-1.75,0Zm1.08-3.18h.57l-.68.53h-.41Z" transform="translate(-239.62 -259.99)"/><path class="cls-1" d="M699,293.93a.69.69,0,0,1,.14.43.64.64,0,0,1-.28.55,1.4,1.4,0,0,1-.78.19h-1.35v-2.71H698a1.23,1.23,0,0,1,.74.19.59.59,0,0,1,.26.51.61.61,0,0,1-.1.36.64.64,0,0,1-.25.24A.69.69,0,0,1,699,293.93Zm-1.77-1.15v.75h.71a.78.78,0,0,0,.41-.09.34.34,0,0,0,.14-.28.32.32,0,0,0-.14-.28.77.77,0,0,0-.41-.1Zm1.4,1.53c0-.26-.2-.39-.59-.39h-.81v.78H698C698.42,294.7,698.62,294.57,698.62,294.31Z" transform="translate(-239.62 -259.99)"/><path class="cls-1" d="M699.76,292.39h.5v2.28h1.42v.43h-1.92Z" transform="translate(-239.62 -259.99)"/><path class="cls-1" d="M702.17,292.39h.5v2.71h-.5Z" transform="translate(-239.62 -259.99)"/><path class="cls-1" d="M704,295a1.21,1.21,0,0,1-.51-.49,1.44,1.44,0,0,1,0-1.43,1.32,1.32,0,0,1,.52-.5,1.61,1.61,0,0,1,1.35-.06,1.26,1.26,0,0,1,.46.33l-.32.31a1,1,0,0,0-.73-.32,1.06,1.06,0,0,0-.5.12.92.92,0,0,0-.34.34,1,1,0,0,0-.12.49,1,1,0,0,0,.12.49.86.86,0,0,0,.34.34,1.06,1.06,0,0,0,.5.12.94.94,0,0,0,.73-.32l.32.31a1.24,1.24,0,0,1-.47.34A1.57,1.57,0,0,1,704,295Z" transform="translate(-239.62 -259.99)"/><path class="cls-1" d="M706.93,295a1.23,1.23,0,0,1-.52-.49,1.36,1.36,0,0,1-.19-.72,1.36,1.36,0,0,1,.71-1.21,1.63,1.63,0,0,1,1.49,0,1.36,1.36,0,0,1,.71,1.21,1.34,1.34,0,0,1-.19.72,1.23,1.23,0,0,1-.52.49,1.56,1.56,0,0,1-1.49,0Zm1.23-.38a.8.8,0,0,0,.34-.34,1,1,0,0,0,.13-.49,1,1,0,0,0-.13-.49.86.86,0,0,0-.34-.34,1,1,0,0,0-.49-.12,1,1,0,0,0-.48.12.86.86,0,0,0-.34.34.92.92,0,0,0-.13.49.9.9,0,0,0,.13.49.8.8,0,0,0,.34.34,1,1,0,0,0,.48.12A1,1,0,0,0,708.16,294.57Z" transform="translate(-239.62 -259.99)"/><path class="cls-1" d="M710,295.05a1.3,1.3,0,0,1-.47-.24l.18-.39a1.22,1.22,0,0,0,.41.21,1.36,1.36,0,0,0,.48.09.79.79,0,0,0,.45-.1.29.29,0,0,0,.15-.25.28.28,0,0,0-.08-.2.53.53,0,0,0-.21-.11l-.35-.1a3.91,3.91,0,0,1-.5-.15.76.76,0,0,1-.33-.23.61.61,0,0,1-.14-.42.73.73,0,0,1,.12-.41.91.91,0,0,1,.37-.29,1.57,1.57,0,0,1,.6-.11,2,2,0,0,1,.49.06,1.19,1.19,0,0,1,.41.18l-.15.39a1.8,1.8,0,0,0-.38-.16,1.64,1.64,0,0,0-.37-.05.73.73,0,0,0-.44.1.32.32,0,0,0-.15.27.27.27,0,0,0,.08.19,1,1,0,0,0,.21.11l.35.1a3.13,3.13,0,0,1,.5.14.86.86,0,0,1,.33.23.64.64,0,0,1,.14.42.67.67,0,0,1-.13.41.86.86,0,0,1-.37.29,1.5,1.5,0,0,1-.6.11A2,2,0,0,1,710,295.05Z" transform="translate(-239.62 -259.99)"/><path class="cls-1" d="M713.69,295.05a1.17,1.17,0,0,1-.46-.24l.17-.39a1.22,1.22,0,0,0,.41.21,1.36,1.36,0,0,0,.48.09.81.81,0,0,0,.46-.1.3.3,0,0,0,.14-.25.24.24,0,0,0-.08-.2.42.42,0,0,0-.21-.11l-.35-.1a4.48,4.48,0,0,1-.5-.15.76.76,0,0,1-.33-.23.6.6,0,0,1-.13-.42.73.73,0,0,1,.12-.41.81.81,0,0,1,.36-.29,1.58,1.58,0,0,1,.61-.11,2,2,0,0,1,.48.06,1.33,1.33,0,0,1,.42.18l-.16.39a1.42,1.42,0,0,0-.75-.21.75.75,0,0,0-.44.1.32.32,0,0,0-.15.27.25.25,0,0,0,.09.19.68.68,0,0,0,.21.11l.35.1a3,3,0,0,1,.49.14.86.86,0,0,1,.33.23.64.64,0,0,1,.14.42.73.73,0,0,1-.12.41.92.92,0,0,1-.37.29,1.58,1.58,0,0,1-.61.11A2,2,0,0,1,713.69,295.05Z" transform="translate(-239.62 -259.99)"/><path class="cls-1" d="M717.74,294.47h-1.35l-.27.63h-.52l1.22-2.71h.49l1.23,2.71H718Zm-.17-.39-.51-1.19-.5,1.19Z" transform="translate(-239.62 -259.99)"/><path class="cls-1" d="M721.38,292.39v2.71H721l-1.49-1.84v1.84H719v-2.71h.41l1.49,1.83v-1.83Z" transform="translate(-239.62 -259.99)"/><path class="cls-1" d="M722.44,295.05a1.24,1.24,0,0,1-.46-.24l.17-.39a1.22,1.22,0,0,0,.41.21,1.37,1.37,0,0,0,.49.09.79.79,0,0,0,.45-.1.3.3,0,0,0,.14-.25.24.24,0,0,0-.08-.2.42.42,0,0,0-.21-.11L723,294a4.48,4.48,0,0,1-.5-.15.76.76,0,0,1-.33-.23.6.6,0,0,1-.13-.42.73.73,0,0,1,.12-.41.79.79,0,0,1,.37-.29,1.5,1.5,0,0,1,.6-.11,2,2,0,0,1,.48.06,1.33,1.33,0,0,1,.42.18l-.16.39a1.42,1.42,0,0,0-.75-.21.75.75,0,0,0-.44.1.32.32,0,0,0-.15.27.25.25,0,0,0,.09.19.68.68,0,0,0,.21.11l.35.1a3,3,0,0,1,.49.14.86.86,0,0,1,.33.23.64.64,0,0,1,.14.42.73.73,0,0,1-.12.41.92.92,0,0,1-.37.29,1.57,1.57,0,0,1-.6.11A2,2,0,0,1,722.44,295.05Z" transform="translate(-239.62 -259.99)"/><path class="cls-1" d="M724.73,292.39h.51v2.71h-.51Z" transform="translate(-239.62 -259.99)"/><path class="cls-1" d="M726.58,295a1.29,1.29,0,0,1-.52-.49,1.36,1.36,0,0,1-.19-.72,1.33,1.33,0,0,1,.19-.71,1.39,1.39,0,0,1,.52-.5,1.54,1.54,0,0,1,.75-.18,1.57,1.57,0,0,1,.75.18,1.39,1.39,0,0,1,.52.5,1.44,1.44,0,0,1,0,1.43,1.29,1.29,0,0,1-.52.49,1.47,1.47,0,0,1-.75.19A1.44,1.44,0,0,1,726.58,295Zm1.24-.38a.92.92,0,0,0,.34-.34,1,1,0,0,0,.12-.49,1,1,0,0,0-.12-.49,1,1,0,0,0-.34-.34,1.06,1.06,0,0,0-1,0,.92.92,0,0,0-.34.34,1,1,0,0,0-.12.49,1,1,0,0,0,.12.49.86.86,0,0,0,.34.34,1.06,1.06,0,0,0,1,0Z" transform="translate(-239.62 -259.99)"/><path class="cls-1" d="M731.82,292.39v2.71h-.41l-1.49-1.84v1.84h-.5v-2.71h.41l1.49,1.83v-1.83Z" transform="translate(-239.62 -259.99)"/><path class="cls-1" d="M734.4,294.47h-1.35l-.27.63h-.52l1.22-2.71h.5l1.22,2.71h-.53Zm-.16-.39-.51-1.19-.51,1.19Z" transform="translate(-239.62 -259.99)"/><path class="cls-1" d="M735.64,292.39h1.18a1.71,1.71,0,0,1,.77.17,1.19,1.19,0,0,1,.52.47,1.33,1.33,0,0,1,.19.71,1.28,1.28,0,0,1-.19.71,1.15,1.15,0,0,1-.52.48,1.71,1.71,0,0,1-.77.17h-1.18Zm1.16,2.28a1.21,1.21,0,0,0,.52-.11.86.86,0,0,0,.35-.33,1,1,0,0,0,.12-.49,1,1,0,0,0-.12-.49.84.84,0,0,0-.35-.32,1.08,1.08,0,0,0-.52-.11h-.66v1.85Z" transform="translate(-239.62 -259.99)"/><path class="cls-1" d="M739.45,295a1.23,1.23,0,0,1-.52-.49,1.36,1.36,0,0,1-.19-.72,1.36,1.36,0,0,1,.71-1.21,1.63,1.63,0,0,1,1.49,0,1.36,1.36,0,0,1,.71,1.21,1.34,1.34,0,0,1-.19.72,1.23,1.23,0,0,1-.52.49,1.56,1.56,0,0,1-1.49,0Zm1.23-.38a.8.8,0,0,0,.34-.34,1,1,0,0,0,.13-.49,1,1,0,0,0-.13-.49.86.86,0,0,0-.34-.34,1,1,0,0,0-.49-.12,1,1,0,0,0-.48.12.86.86,0,0,0-.34.34.92.92,0,0,0-.13.49.9.9,0,0,0,.13.49.8.8,0,0,0,.34.34,1,1,0,0,0,.48.12A1,1,0,0,0,740.68,294.57Z" transform="translate(-239.62 -259.99)"/><path class="cls-1" d="M742.52,295.05a1.3,1.3,0,0,1-.47-.24l.18-.39a1.22,1.22,0,0,0,.41.21,1.36,1.36,0,0,0,.48.09.79.79,0,0,0,.45-.1.29.29,0,0,0,.15-.25.28.28,0,0,0-.08-.2.53.53,0,0,0-.21-.11l-.35-.1a3.91,3.91,0,0,1-.5-.15.76.76,0,0,1-.33-.23.61.61,0,0,1-.14-.42.73.73,0,0,1,.12-.41.91.91,0,0,1,.37-.29,1.57,1.57,0,0,1,.6-.11,2,2,0,0,1,.49.06,1.19,1.19,0,0,1,.41.18L744,293a1.8,1.8,0,0,0-.38-.16,1.57,1.57,0,0,0-.37-.05.73.73,0,0,0-.44.1.32.32,0,0,0-.15.27.27.27,0,0,0,.08.19,1,1,0,0,0,.21.11l.35.1a3.13,3.13,0,0,1,.5.14.86.86,0,0,1,.33.23.64.64,0,0,1,.14.42.67.67,0,0,1-.13.41.86.86,0,0,1-.37.29,1.5,1.5,0,0,1-.6.11A2,2,0,0,1,742.52,295.05Z" transform="translate(-239.62 -259.99)"/><polygon class="cls-1" points="502.01 40.44 479.27 40.44 477.34 38.51 475.4 40.44 452.66 40.44 452.66 40.8 475.4 40.8 477.34 42.73 479.27 40.8 502.01 40.8 502.01 40.44"/><path class="cls-15" d="M711.39,282.51h0V280c0-1.12,0-1.66.54-2a1.61,1.61,0,0,1,.66-.26h8.88a2.95,2.95,0,0,0,0-5.89H713a2,2,0,0,1,0-3.92h8.51a6.84,6.84,0,0,1,6.29,4.19s0-.08,0-.12a12,12,0,1,0-16.39,11.16Zm-5.57-12.66a6.87,6.87,0,0,1,6.86-6.86h8.45a2,2,0,1,1,0,3.92h-8.45a2.94,2.94,0,1,0,0,5.88h8.53a2,2,0,0,1,0,3.92h-8.53A6.87,6.87,0,0,1,705.82,269.85Z" transform="translate(-239.62 -259.99)"/><path class="cls-16" d="M721.48,281.65h-6.14V284l.44,0a11.88,11.88,0,0,0,7.4-2.57A6.77,6.77,0,0,1,721.48,281.65Z" transform="translate(-239.62 -259.99)"/><path class="cls-1" d="M570.6,295.18c.94-.42,1.81-.79,2.67-1.19a17.48,17.48,0,0,0,8.64-9c.72-1.61,1.33-3.26,2-4.9a13.29,13.29,0,0,1,7.94-7.89,11,11,0,0,1,7.42-.33,10.54,10.54,0,0,1,7.18,12.89,9.86,9.86,0,0,1-5.07,6.46,9.68,9.68,0,0,1-6.56.67,5.66,5.66,0,0,1-4.6-4.35,10.2,10.2,0,0,1-.35-2.51,4.71,4.71,0,0,1,3.95-4.67,5.39,5.39,0,0,1,3.18.13,3,3,0,0,1,1.82,1.83c.13.37.25.84.79.61s.39-.64.24-1a4.23,4.23,0,0,0-3.2-2.67,6.66,6.66,0,0,0-7.83,4.6,25,25,0,0,1-2.56,5.7c-1.67,2.7-3.75,5-6.85,6a12.63,12.63,0,0,1-7.88.12,5,5,0,0,1-.63-.27A1.93,1.93,0,0,1,570.6,295.18Z" transform="translate(-239.62 -259.99)"/><path class="cls-1" d="M593.32,270.37c-1.36.59-2.67,1.06-3.88,1.72a13.89,13.89,0,0,0-6.72,7.89,32.4,32.4,0,0,1-3.73,7.89,16.56,16.56,0,0,1-6.85,5.46c-4.12,2-7.85,1.16-11.16-1.73-5.52-4.82-4.43-13.93,2.11-17.1a8.74,8.74,0,0,1,8.53.3c1.82,1.08,2.49,2.92,2.72,4.93a5.16,5.16,0,0,1-1,4c-1.36,1.73-4.88,2.43-6.69,1.19a5.21,5.21,0,0,1-1.21-1.52c-.2-.31-.25-.78-.75-.61s-.44.64-.28,1.05a4.19,4.19,0,0,0,2.79,2.54,6.63,6.63,0,0,0,8.33-4.73,18.28,18.28,0,0,1,3.78-7.41,11.53,11.53,0,0,1,5.63-4.12,12.91,12.91,0,0,1,7.71-.09A5.66,5.66,0,0,1,593.32,270.37Z" transform="translate(-239.62 -259.99)"/><path class="cls-2" d="M580.94,270.89a21.12,21.12,0,0,0-5.49,7.4,9.05,9.05,0,0,0-.91-2,1.57,1.57,0,0,1,.25-2.49c.88-.81,1.61-1.78,2.49-2.58a3,3,0,0,1,2.79-.67A5.55,5.55,0,0,1,580.94,270.89Z" transform="translate(-239.62 -259.99)"/><path class="cls-2" d="M583.2,294.85a20.56,20.56,0,0,0,5.44-7.24c.55,1,1.1,2,1.62,3a.38.38,0,0,1-.06.37c-1,1.12-1.93,2.27-3,3.32a3.3,3.3,0,0,1-3.2.91A8.29,8.29,0,0,1,583.2,294.85Z" transform="translate(-239.62 -259.99)"/><path class="cls-2" d="M570.62,272.88c1.16-1.73,3-2.41,4.59-1.64l-1.35,1.58c-.23.27-.48.52-.69.79a.59.59,0,0,1-.94.14A17.33,17.33,0,0,0,570.62,272.88Z" transform="translate(-239.62 -259.99)"/><path class="cls-2" d="M589,294.48c.75-.85,1.48-1.71,2.24-2.54a.5.5,0,0,1,.48,0c.61.29,1.19.63,1.79,1C592.77,294.25,590.42,295.53,589,294.48Z" transform="translate(-239.62 -259.99)"/><path class="cls-2" d="M569.73,271.63c-.32.59-.67,1-1.42.85a15.86,15.86,0,0,0-2.19,0A2.82,2.82,0,0,1,569.73,271.63Z" transform="translate(-239.62 -259.99)"/><path class="cls-2" d="M594.45,294.16c.37-.81.63-1,1.45-.9s1.43,0,2.16,0C597.58,294.32,595.54,294.81,594.45,294.16Z" transform="translate(-239.62 -259.99)"/><path class="cls-1" d="M624.89,269v3.8H624l-1.68-2v2h-1.06V269h.89l1.68,2v-2Z" transform="translate(-239.62 -259.99)"/><path class="cls-1" d="M626.09,272.41a1.74,1.74,0,0,1-.48-1.31V269h1.08v2.07c0,.61.24.92.73.92s.71-.31.71-.92V269h1.06v2.11a1.74,1.74,0,0,1-.47,1.31,2.11,2.11,0,0,1-2.63,0Z" transform="translate(-239.62 -259.99)"/><path class="cls-1" d="M633,272v.83h-3.06V269h3v.83H631v.64h1.69v.81H631V272Z" transform="translate(-239.62 -259.99)"/><path class="cls-1" d="M637.39,269l-1.64,3.8h-1.06l-1.62-3.8h1.16l1,2.48,1.06-2.48Z" transform="translate(-239.62 -259.99)"/><path class="cls-1" d="M638.39,272.61a1.94,1.94,0,0,1,0-3.44,2.31,2.31,0,0,1,1.09-.26,2.27,2.27,0,0,1,1.08.26,1.84,1.84,0,0,1,.76.7,2.06,2.06,0,0,1,0,2,1.84,1.84,0,0,1-.76.7,2.16,2.16,0,0,1-1.08.26A2.2,2.2,0,0,1,638.39,272.61Zm1.61-.77a1,1,0,0,0,.37-.38,1.23,1.23,0,0,0,0-1.14,1,1,0,0,0-.37-.38,1,1,0,0,0-1,0,1,1,0,0,0-.37.38,1.23,1.23,0,0,0,0,1.14,1,1,0,0,0,.37.38,1,1,0,0,0,1,0Z" transform="translate(-239.62 -259.99)"/><path class="cls-2" d="M621.91,293.64a.91.91,0,0,1,.39.33,1.07,1.07,0,0,1,0,1,.87.87,0,0,1-.39.34,1.55,1.55,0,0,1-.59.11h-.6v.78h-.48v-2.7h1.08A1.38,1.38,0,0,1,621.91,293.64Zm-.13,1.24a.49.49,0,0,0,.16-.4.47.47,0,0,0-.16-.39.7.7,0,0,0-.49-.14h-.57V295h.57A.75.75,0,0,0,621.78,294.88Z" transform="translate(-239.62 -259.99)"/><path class="cls-2" d="M624.49,295.6h-1.31l-.26.62h-.5l1.18-2.7h.48l1.19,2.7h-.51Zm-.16-.4-.49-1.18-.49,1.18Z" transform="translate(-239.62 -259.99)"/><path class="cls-2" d="M627.32,296.22l-.54-.79h-.69v.79h-.49v-2.7h1.08a1.4,1.4,0,0,1,.6.12.94.94,0,0,1,.38.33.93.93,0,0,1,.14.51.94.94,0,0,1-.15.53.84.84,0,0,1-.41.32l.6.89Zm-.18-2.13a.69.69,0,0,0-.48-.14h-.57V295h.57a.74.74,0,0,0,.48-.14.5.5,0,0,0,.17-.4A.48.48,0,0,0,627.14,294.09Z" transform="translate(-239.62 -259.99)"/><path class="cls-2" d="M630,295.6h-1.31l-.26.62H628l1.18-2.7h.48l1.19,2.7h-.51Zm-.16-.4-.49-1.18-.49,1.18Z" transform="translate(-239.62 -259.99)"/><path class="cls-2" d="M634.59,293.52l-1.15,2.7H633l-1.14-2.7h.52l.88,2.08.88-2.08Z" transform="translate(-239.62 -259.99)"/><path class="cls-2" d="M634.86,293.52h.49v2.7h-.49Z" transform="translate(-239.62 -259.99)"/><path class="cls-2" d="M638.44,293.52l-1.14,2.7h-.48l-1.15-2.7h.53l.87,2.08.89-2.08Z" transform="translate(-239.62 -259.99)"/><path class="cls-2" d="M638.72,293.52h.49v2.7h-.49Z" transform="translate(-239.62 -259.99)"/><path class="cls-2" d="M641.63,296.22l-.53-.79h-.7v.79h-.48v-2.7H641a1.38,1.38,0,0,1,.59.12.91.91,0,0,1,.39.33.92.92,0,0,1,.13.51.93.93,0,0,1-.14.53.88.88,0,0,1-.41.32l.6.89Zm-.17-2.13A.7.7,0,0,0,641,294h-.57V295H641a.75.75,0,0,0,.49-.14.49.49,0,0,0,.16-.4A.47.47,0,0,0,641.46,294.09Z" transform="translate(-239.62 -259.99)"/><path class="cls-2" d="M645.66,295.8v.42h-2v-2.7h1.92v.42h-1.43v.7h1.27v.42h-1.27v.74Z" transform="translate(-239.62 -259.99)"/><path class="cls-2" d="M648.54,293.52v2.7h-.4l-1.45-1.83v1.83h-.48v-2.7h.4l1.45,1.83v-1.83Z" transform="translate(-239.62 -259.99)"/><path class="cls-2" d="M652,293.64a.94.94,0,0,1,.38.33,1,1,0,0,1,0,1,.9.9,0,0,1-.38.34,1.57,1.57,0,0,1-.6.11h-.59v.78h-.49v-2.7h1.08A1.4,1.4,0,0,1,652,293.64Zm-.14,1.24a.5.5,0,0,0,.17-.4.48.48,0,0,0-.17-.39.69.69,0,0,0-.48-.14h-.57V295h.57A.74.74,0,0,0,651.82,294.88Z" transform="translate(-239.62 -259.99)"/><path class="cls-2" d="M654.54,295.6h-1.31l-.26.62h-.51l1.19-2.7h.48l1.18,2.7h-.51Zm-.16-.4-.5-1.18-.49,1.18Z" transform="translate(-239.62 -259.99)"/><path class="cls-2" d="M657.69,295.8v.42h-2.24v-.33L657,294h-1.52v-.43h2.17v.34l-1.55,1.94Z" transform="translate(-239.62 -259.99)"/><path class="cls-1" d="M625.47,275.75a2.38,2.38,0,0,1,1,.87,2.58,2.58,0,0,1,0,2.66,2.38,2.38,0,0,1-1,.87,3.9,3.9,0,0,1-1.6.3h-1.18v1.78h-1.92v-6.79h3.1A3.9,3.9,0,0,1,625.47,275.75Zm-.82,2.94a.94.94,0,0,0,.3-.74.91.91,0,0,0-.3-.73,1.3,1.3,0,0,0-.89-.26h-1.07v2h1.07A1.35,1.35,0,0,0,624.65,278.69Z" transform="translate(-239.62 -259.99)"/><path class="cls-1" d="M632,280.91h-2.87l-.53,1.32h-2l3-6.79h1.89l3,6.79h-2Zm-.56-1.42-.87-2.17-.87,2.17Z" transform="translate(-239.62 -259.99)"/><path class="cls-1" d="M636.47,281.91a3.43,3.43,0,0,1-1.34-1.25,3.71,3.71,0,0,1,0-3.65,3.43,3.43,0,0,1,1.34-1.25,4,4,0,0,1,1.91-.45,4.13,4.13,0,0,1,1.68.33,3.22,3.22,0,0,1,1.24.95l-1.23,1.1a2,2,0,0,0-1.59-.79,2,2,0,0,0-1,.24,1.69,1.69,0,0,0-.67.68,2.35,2.35,0,0,0,0,2,1.69,1.69,0,0,0,.67.68,2,2,0,0,0,1,.24,2,2,0,0,0,1.59-.79l1.23,1.1a3.22,3.22,0,0,1-1.24.95,4.13,4.13,0,0,1-1.68.33A4,4,0,0,1,636.47,281.91Z" transform="translate(-239.62 -259.99)"/><path class="cls-1" d="M643.53,277h-2.08v-1.53h6.08V277h-2.08v5.26h-1.92Z" transform="translate(-239.62 -259.99)"/><path class="cls-1" d="M649.63,281.91a3.46,3.46,0,0,1-1.34-1.26,3.61,3.61,0,0,1,0-3.63,3.46,3.46,0,0,1,1.34-1.26,4.39,4.39,0,0,1,3.87,0,3.56,3.56,0,0,1,1.35,1.26,3.61,3.61,0,0,1,0,3.63,3.56,3.56,0,0,1-1.35,1.26,4.39,4.39,0,0,1-3.87,0Zm2.87-1.38a1.77,1.77,0,0,0,.65-.68,2.19,2.19,0,0,0,0-2,1.77,1.77,0,0,0-.65-.68,1.84,1.84,0,0,0-.93-.24,1.79,1.79,0,0,0-.93.24,1.73,1.73,0,0,0-.66.68,2.27,2.27,0,0,0,0,2,1.73,1.73,0,0,0,.66.68,1.79,1.79,0,0,0,.93.24A1.84,1.84,0,0,0,652.5,280.53Z" transform="translate(-239.62 -259.99)"/><path class="cls-1" d="M621.56,290.33a3.88,3.88,0,0,1-1.26-.55l.63-1.41a3.9,3.9,0,0,0,1.05.48,3.84,3.84,0,0,0,1.19.19c.73,0,1.1-.19,1.1-.55a.44.44,0,0,0-.31-.43,5,5,0,0,0-1-.3,11.25,11.25,0,0,1-1.28-.35,2.22,2.22,0,0,1-.88-.61,1.66,1.66,0,0,1-.37-1.12,2,2,0,0,1,.34-1.12,2.23,2.23,0,0,1,1-.79,4,4,0,0,1,1.65-.29,5.94,5.94,0,0,1,1.32.15,3.87,3.87,0,0,1,1.14.44l-.59,1.42a3.93,3.93,0,0,0-1.88-.52,1.65,1.65,0,0,0-.84.17.51.51,0,0,0-.26.44.45.45,0,0,0,.31.41,6,6,0,0,0,1,.28,8.38,8.38,0,0,1,1.28.35,2.34,2.34,0,0,1,.89.6,1.61,1.61,0,0,1,.37,1.12,1.89,1.89,0,0,1-.34,1.11,2.3,2.3,0,0,1-1,.78,4,4,0,0,1-1.64.3A6.49,6.49,0,0,1,621.56,290.33Z" transform="translate(-239.62 -259.99)"/><path class="cls-1" d="M628.53,290.08a3.56,3.56,0,0,1-1.35-1.26,3.61,3.61,0,0,1,0-3.63,3.56,3.56,0,0,1,1.35-1.26,4.39,4.39,0,0,1,3.87,0,3.46,3.46,0,0,1,1.34,1.26,3.61,3.61,0,0,1,0,3.63,3.46,3.46,0,0,1-1.34,1.26,4.39,4.39,0,0,1-3.87,0Zm2.86-1.38a1.73,1.73,0,0,0,.66-.68,2.11,2.11,0,0,0,.24-1,2.07,2.07,0,0,0-.24-1,1.73,1.73,0,0,0-.66-.68,1.81,1.81,0,0,0-.93-.24,1.84,1.84,0,0,0-.93.24,1.73,1.73,0,0,0-.66.68,2.07,2.07,0,0,0-.24,1,2.11,2.11,0,0,0,.24,1,1.73,1.73,0,0,0,.66.68,1.84,1.84,0,0,0,.93.24A1.81,1.81,0,0,0,631.39,288.7Z" transform="translate(-239.62 -259.99)"/><path class="cls-1" d="M636.71,290.08a3.43,3.43,0,0,1-1.34-1.25,3.71,3.71,0,0,1,0-3.65,3.43,3.43,0,0,1,1.34-1.25,4,4,0,0,1,1.91-.45,4.13,4.13,0,0,1,1.68.33,3.22,3.22,0,0,1,1.24.95l-1.22,1.1a2,2,0,0,0-1.6-.79,2,2,0,0,0-1,.24,1.63,1.63,0,0,0-.67.68,2.07,2.07,0,0,0-.24,1,2.11,2.11,0,0,0,.24,1,1.63,1.63,0,0,0,.67.68,2,2,0,0,0,1,.24,2,2,0,0,0,1.6-.79l1.22,1.1a3.22,3.22,0,0,1-1.24.95,4.13,4.13,0,0,1-1.68.33A4,4,0,0,1,636.71,290.08Z" transform="translate(-239.62 -259.99)"/><path class="cls-1" d="M642.39,283.61h1.92v6.78h-1.92Z" transform="translate(-239.62 -259.99)"/><path class="cls-1" d="M650.22,289.08h-2.87l-.53,1.31h-2l3-6.78h1.88l3,6.78h-2Zm-.56-1.42-.87-2.17-.88,2.17Z" transform="translate(-239.62 -259.99)"/><path class="cls-1" d="M653.29,283.61h1.92v5.26h3.24v1.52h-5.16Z" transform="translate(-239.62 -259.99)"/></svg>